<?xml version="1.0" encoding="UTF-8"?>
<svg width="300px" height="295px" viewBox="0 0 300 295" version="1.1" xmlns="http://www.w3.org/2000/svg" xmlns:xlink="http://www.w3.org/1999/xlink">
    <title>Untitled 3</title>
    <g id="Page-1" stroke="none" stroke-width="1" fill="none" fill-rule="evenodd" fill-opacity="0.21">
        <g id="background" transform="translate(-0, 0.5991)" fill="#000000" fill-rule="nonzero">
            <g id="Group" transform="translate(150, 147.1044) scale(-1, 1) rotate(-180) translate(-150, -147.1044)translate(0, 0)">
                <path d="M122.2,292.807879 C119,291.307879 117.8,290.207879 117.4,288.007879 C116.9,285.507879 116.5,285.207879 113.9,285.607879 C110.8,286.107879 106.7,283.907879 105.2,281.107879 C103.5,277.907879 102.8,272.807879 103.9,272.807879 C104.5,272.807879 105,273.807879 105,275.107879 C105,278.407879 108.6,283.707879 111.4,284.407879 C112.9,284.707879 115.2,284.307879 117.1,283.407879 C118.9,282.507879 120.7,281.807879 121.1,281.807879 C122.9,281.807879 125,285.207879 125,288.207879 C125,289.907879 125.5,291.907879 126.2,292.607879 C128.3,294.707879 126.6,294.707879 122.2,292.807879 Z" id="Path"></path>
                <path d="M95,276.807879 C95,275.107879 94.3,272.107879 93.5,270.107879 C92.7,268.207879 92,265.507879 92,264.107879 C92,261.307879 94.5,256.107879 96.1,255.607879 C97,255.307879 96.9,251.807879 95.9,241.407879 L94.6,227.607879 L92.7,231.807879 C89.3,239.007879 82.5,245.507879 74.1,249.507879 C69.9,251.507879 66.4,253.207879 66.2,253.407879 C66,253.507879 66.8,254.607879 67.9,255.707879 C70.5,258.307879 70.5,260.407879 68.1,264.407879 C67.1,266.107879 66,268.407879 65.8,269.407879 C65.4,270.807879 64.8,270.207879 63.2,266.807879 C60.5,261.107879 60.4,257.207879 63,255.607879 C67,253.107879 64.4,251.807879 59.6,253.907879 C58.2,254.607879 57.4,255.607879 57.7,256.407879 C58,257.407879 57.2,258.007879 55.1,258.407879 C53.3,258.807879 51.5,259.907879 50.9,260.907879 C49.4,263.907879 52.4,263.307879 55.7,260.107879 L58.5,257.307879 L58.8,260.207879 C59.3,264.707879 56.4,266.907879 49.7,267.207879 C46.7,267.307879 43.5,268.007879 42.6,268.707879 C40.2,270.707879 40.6,269.207879 44.1,263.107879 C46.4,259.107879 48.3,257.207879 50.9,256.107879 L54.5,254.507879 L50.5,253.107879 C45.6,251.407879 43.8,249.807879 46.7,249.807879 C47.8,249.807879 50.5,249.107879 52.5,248.207879 C56.8,246.407879 61,247.507879 61,250.407879 C61,251.707879 61.7,252.007879 64.5,251.507879 C78.5,249.207879 92.7,234.907879 94.9,220.907879 L95.6,216.207879 L91.3,220.407879 C88.9,222.707879 87,225.507879 87,226.607879 C87,229.107879 81.7,233.707879 78.7,234.007879 C77.5,234.007879 73.1,234.207879 69,234.307879 L61.5,234.507879 L67,228.807879 C70.1,225.707879 73.6,222.607879 74.7,221.907879 C77.4,220.507879 82.5,220.507879 85,221.807879 C87.7,223.207879 93.4,218.107879 95.6,212.007879 C97.9,206.307879 97.9,192.107879 95.8,186.307879 L94.3,182.407879 L93.7,185.607879 C92.8,190.107879 89.1,194.807879 86.4,194.807879 C84.1,194.807879 81.5,198.007879 80.4,202.207879 C79.9,204.407879 80.1,204.807879 81.8,204.807879 C84.5,204.807879 90.1,200.007879 89.8,197.907879 C89.7,197.007879 90.3,195.007879 91.2,193.407879 L92.7,190.407879 L94,192.707879 C96.8,198.107879 92.3,205.307879 84.5,208.207879 C82.3,208.907879 78.1,210.507879 75.3,211.707879 L70,213.807879 L72.9,209.807879 C74.5,207.607879 76.1,204.107879 76.5,202.107879 C77.9,194.207879 83.1,188.807879 89.2,188.807879 C91.5,188.807879 92,188.307879 92.6,185.407879 C94.2,176.407879 86.1,166.907879 62.4,150.007879 L55.2,145.007879 L56.9,148.907879 C58,151.707879 59.1,152.807879 60.6,152.807879 C63.6,152.807879 68,156.507879 69.6,160.407879 C71.1,164.007879 71.4,167.207879 70.2,166.507879 C69.8,166.207879 69.5,167.207879 69.4,168.607879 C69.4,170.107879 69.3,173.507879 69.2,176.107879 L69,180.907879 L63.5,175.507879 C60.5,172.607879 58,169.507879 58,168.707879 C58,167.507879 57.8,167.507879 57.1,168.707879 C55.7,170.907879 54,166.807879 54,161.407879 C54,158.307879 54.6,156.207879 55.8,155.007879 C57.6,153.207879 57.6,153.007879 55.1,148.107879 C53.7,145.307879 50.1,140.507879 47.3,137.307879 C42.1,131.807879 42,131.707879 42,134.507879 C42,137.807879 37.7,145.107879 33.5,148.807879 C31.9,150.207879 31,150.707879 31.4,150.107879 C31.8,149.407879 32.3,147.907879 32.5,146.807879 C32.9,144.507879 30.6,144.107879 26.7,145.907879 C23.7,147.307879 19,156.707879 19,161.307879 C19,165.707879 20.9,165.907879 28.3,162.207879 C35,158.807879 38,156.007879 38,153.207879 C38,151.107879 37.7,151.007879 35.4,151.807879 C32.7,152.907879 32.8,152.207879 36.1,148.307879 C37.1,147.207879 38.6,145.407879 39.3,144.407879 C40.7,142.507879 40.8,142.507879 42,144.807879 C43.8,148.207879 42.7,155.207879 39.6,159.307879 C36.9,162.807879 31.9,166.407879 33.6,163.607879 C34,162.807879 33.6,163.007879 32.4,163.907879 C31.4,164.907879 27.5,166.907879 23.9,168.607879 C19.6,170.507879 17,172.307879 16.5,173.707879 C15.2,177.807879 14.4,175.707879 14.7,169.107879 C15.3,156.607879 15.9,154.007879 18.7,151.807879 C21.5,149.607879 21.1,149.207879 17.9,150.907879 C16.1,151.807879 16,151.707879 16.9,150.007879 C20.1,144.007879 30,139.007879 36,140.307879 C38.7,140.907879 39,140.607879 39.9,137.107879 C41.4,131.707879 41.3,131.007879 38.1,126.907879 C30.2,116.807879 25,102.307879 25,90.2078795 C25,83.2078795 23.9,81.5078795 22.3,85.8078795 C21.5,88.0078795 21.5,89.1078795 22.6,90.5078795 C23.3,91.5078795 23.9,93.2078795 23.9,94.3078795 C23.9,96.0078795 23.7,95.9078795 22.2,93.5078795 C21.3,92.0078795 20.2,90.8078795 19.9,90.8078795 C19.5,90.8078795 17.6,92.6078795 15.6,94.8078795 C11.7,99.2078795 11,99.5078795 11,97.3078795 C11,96.5078795 10.6,95.8078795 10.2,95.8078795 C8.6,95.8078795 6.1,101.507879 5.4,106.607879 C4.8,111.207879 5,111.807879 6.5,111.807879 C9.3,111.807879 14.7,107.207879 15.8,103.907879 C16.7,101.307879 16.6,100.907879 14.9,100.607879 C13.2,100.307879 13.2,100.107879 15.7,96.9078795 C18.2,93.8078795 18.4,93.7078795 19.7,95.4078795 C23.9,101.107879 18.5,110.907879 8.4,116.107879 C6.6,117.007879 4.4,118.907879 3.4,120.307879 C1.5,122.807879 1.5,122.807879 1.7,112.207879 C1.9,103.607879 2.2,101.207879 3.7,99.5078795 C5.4,97.6078795 5.4,97.5078795 3.7,98.1078795 C2.1,98.7078795 2.1,98.6078795 3.6,96.4078795 C5.7,93.1078795 11.5,90.5078795 15.1,91.2078795 C19.1,92.0078795 19.6,89.2078795 16.6,83.1078795 C11.4,72.9078795 10.7,68.0078795 10.6,44.2078795 L10.5,22.1078795 L5.2,11.5078795 C2.4,5.70787946 0,0.807879459 0,0.507879459 C0,0.207879459 1.8,0.00787945924 4.1,0.00787945924 C7.7,-0.0921205408 9.1,0.707879459 14.7,5.40787946 C26.3,15.3078795 44.6,25.4078795 52.9,26.5078795 C58.1,27.2078795 62.7,26.1078795 61.1,24.5078795 C59.2,22.6078795 59.9,18.1078795 62.5,14.9078795 C64.2,13.0078795 66.9,11.4078795 70.4,10.4078795 C73.3,9.50787946 76.3,8.10787946 77,7.30787946 C78.9,5.10787946 80.1,5.50787946 79.1,8.10787946 C78.7,9.30787946 78,12.7078795 77.6,15.7078795 C76.8,22.0078795 75.6,24.6078795 72.6,27.0078795 C70.3,28.9078795 65,29.4078795 63.4,27.8078795 C62.8,27.2078795 61.2,27.2078795 59.5,27.7078795 L56.5,28.5078795 L60.5,29.7078795 C62.7,30.4078795 69.7,31.2078795 76,31.5078795 C88.4,32.1078795 99.6,30.6078795 110.5,26.8078795 C117.5,24.4078795 117,24.4078795 117,26.7078795 C117,30.6078795 91,35.5078795 77,34.3078795 C67.6,33.4078795 56,30.9078795 56,29.7078795 C56,29.2078795 54.9,28.8078795 53.7,28.8078795 C48.4,28.8078795 32.2,21.7078795 23.2,15.6078795 C20.8,13.9078795 18.7,12.8078795 18.4,13.1078795 C18.2,13.3078795 20.1,15.5078795 22.7,17.8078795 C38.6,32.2078795 42.2,36.0078795 40.9,36.9078795 C40.1,37.4078795 39.2,37.8078795 38.8,37.8078795 C37,37.8078795 18.3,18.6078795 11.9,10.2078795 C4.1,0.00787945924 1.8,-1.59212054 7.3,6.90787946 C15.9,20.4078795 20.5,32.4078795 24.8,52.5078795 C26.5,60.2078795 28.9,68.7078795 30.3,71.4078795 C32.7,76.2078795 32.8,76.2078795 37.3,75.9078795 C40,75.8078795 43.1,76.3078795 44.9,77.3078795 C48,78.9078795 52.3,84.4078795 53.5,88.5078795 C54,90.4078795 53.8,90.7078795 52.3,90.1078795 C50.6,89.4078795 50.6,89.5078795 52.2,91.2078795 C53.2,92.1078795 54.3,94.1078795 54.6,95.6078795 C55.2,98.5078795 56.3,102.007879 57.6,105.307879 C58.3,107.207879 58.3,107.207879 56.3,105.507879 C55.2,104.607879 52.1,103.007879 49.4,102.107879 C46.7,101.207879 43.6,99.9078795 42.5,99.2078795 C40.6,98.0078795 40.1,97.8078795 38.1,97.8078795 C36.2,97.8078795 31,91.3078795 30.4,88.2078795 C29.8,84.7078795 30.7,78.8078795 31.9,78.8078795 C32.3,78.8078795 34.2,80.6078795 36,82.9078795 C38.7,86.3078795 38.9,86.9078795 37.2,86.4078795 C34.7,85.6078795 33.6,87.1078795 34.9,89.6078795 C35.9,91.5078795 47,97.8078795 49.4,97.8078795 C50.8,97.8078795 50.7,96.9078795 48.5,87.1078795 C48.2,85.9078795 46.4,83.7078795 44.5,82.3078795 C40.7,79.3078795 38.3,79.7078795 40,82.9078795 C41.8,86.2078795 39.6,85.0078795 35.1,80.2078795 C32.7,77.7078795 29.7,73.3078795 28.5,70.5078795 L26.1,65.3078795 L26.5,69.8078795 C26.7,72.3078795 27.2,79.0078795 27.5,84.8078795 C28.2,98.2078795 30.1,106.207879 35.1,116.607879 C40,126.707879 44.9,131.907879 52.4,134.707879 C59.8,137.507879 60.5,137.407879 62.8,133.507879 C65,129.707879 70.3,126.807879 75,126.807879 C77.9,126.807879 78.1,127.007879 76.9,128.607879 C75.6,130.107879 75.7,130.207879 77.3,128.907879 C79.6,127.107879 86,128.007879 90.3,130.707879 L93.5,132.807879 L90.8,132.807879 C89.3,132.807879 87.8,133.307879 87.4,134.007879 C87,134.607879 87.1,134.807879 87.7,134.507879 C89.9,133.107879 95.8,136.107879 101.9,141.607879 L108.3,147.307879 L103.7,147.007879 C101.1,146.807879 96.9,147.307879 93.9,148.307879 C90.9,149.307879 87.4,149.807879 85.4,149.507879 C83.4,149.107879 82.2,149.307879 82.5,149.907879 C82.9,150.407879 83.9,150.807879 84.8,150.807879 C86.3,150.907879 86.3,151.007879 84.6,151.907879 C82.1,153.407879 74.7,152.307879 69.3,149.707879 C65.6,147.907879 61,142.707879 61,140.207879 C61,139.707879 63.9,139.507879 67.5,139.607879 C74.2,140.007879 75.3,141.107879 69.9,142.307879 C66.1,143.207879 67.3,145.007879 73.4,147.307879 C77.4,148.807879 78.1,148.807879 85.1,147.007879 C98.1,143.507879 98.2,143.407879 91,138.207879 C88.2,136.207879 85.6,134.007879 85.2,133.207879 C83.9,130.807879 71.7,130.907879 69.1,133.207879 C66.7,135.407879 67.2,136.807879 70.3,136.807879 C71.5,136.807879 73.2,137.307879 74,137.907879 C77,139.907879 56.5,138.107879 51.3,135.907879 L46.5,133.807879 L53,139.907879 C56.5,143.207879 63.8,148.807879 69.1,152.407879 C74.4,156.007879 81.9,162.107879 85.6,165.907879 C89.4,169.807879 95.1,175.007879 98.4,177.407879 L104.2,181.807879 L107.2,179.307879 C110.7,176.307879 117,175.907879 122.7,178.307879 C124.6,179.107879 128.3,179.807879 130.8,179.807879 L135.4,179.807879 L133,181.507879 C131.6,182.507879 128.1,185.207879 125.2,187.507879 C120.7,191.107879 119.2,191.807879 115.4,191.807879 C108.7,191.807879 104,188.807879 104,184.707879 C104,183.407879 109.3,184.807879 110.3,186.507879 C111.5,188.507879 118.4,188.107879 121.1,185.907879 C124.3,183.307879 122.7,181.707879 116.4,181.007879 C112.7,180.607879 111.4,180.907879 110.4,182.207879 C109.4,183.707879 108.6,183.807879 105.1,182.807879 C102.8,182.207879 99.4,180.307879 97.5,178.707879 C95.6,177.007879 94,175.807879 94,176.107879 C94,176.307879 94.9,178.607879 96.1,181.207879 C97.2,183.807879 98.6,188.707879 99.1,192.107879 C99.8,196.707879 100.8,199.007879 102.8,201.007879 C105.4,203.607879 105.7,203.707879 109.4,202.407879 C114.2,200.707879 118.9,201.707879 123.1,205.207879 C124.8,206.607879 127.4,208.107879 128.8,208.407879 C130.3,208.707879 132,209.107879 132.5,209.207879 C133.1,209.407879 131,210.807879 128,212.307879 C120.4,216.207879 112.2,216.407879 108.6,212.807879 C107.2,211.407879 105.9,209.207879 105.8,207.807879 C105.5,205.607879 101.3,200.807879 99.6,200.807879 C99.3,200.807879 99,202.207879 99,203.907879 C99,205.507879 98.5,210.007879 97.9,213.807879 C96.7,220.607879 96.8,220.907879 99.4,224.807879 C102,228.707879 104.2,229.807879 105.5,227.807879 C106.3,226.507879 112.6,226.507879 115.3,227.907879 C116.5,228.507879 119,230.407879 120.8,232.107879 C122.5,233.807879 125.2,235.707879 126.8,236.307879 C129.4,237.407879 129.1,237.507879 122.1,239.107879 C118.1,240.007879 113.8,240.807879 112.5,240.807879 C108.9,240.807879 103.5,236.607879 103.2,233.507879 C103,232.007879 101.9,229.707879 100.7,228.507879 C99.5,227.207879 97.9,225.307879 97.2,224.207879 C96.2,222.607879 96.1,223.507879 96.6,229.807879 C97.6,241.707879 100.2,247.307879 106.2,250.407879 C108.7,251.707879 109.1,251.607879 111.4,249.307879 C114.6,246.107879 119.5,246.007879 125.3,249.007879 C127.6,250.207879 130.8,251.407879 132.5,251.807879 C135.4,252.407879 135.3,252.407879 128.8,256.107879 C125.2,258.107879 120.8,259.807879 119.1,259.807879 C114.8,259.807879 111,257.807879 110.4,255.207879 C109.9,253.307879 104.4,250.107879 103.4,251.107879 C102.9,251.607879 110.5,260.507879 113.8,263.307879 C116.4,265.507879 117.5,265.807879 120.5,265.207879 C125.3,264.307879 129.5,266.307879 132.2,270.707879 C133.3,272.707879 135.5,275.607879 136.9,277.207879 L139.5,280.007879 L137,279.307879 C135.6,278.807879 131.7,278.207879 128.3,277.807879 C121,277.107879 117,274.207879 117,269.607879 C117,268.107879 116.6,266.807879 116.1,266.807879 C113.9,266.807879 103.6,254.707879 100.3,248.307879 C97.6,243.007879 96.9,242.107879 97.4,244.707879 C97.7,246.507879 98,249.807879 98,251.907879 C98,254.607879 98.4,255.807879 99.4,255.807879 C101.5,255.807879 104,259.807879 104,263.107879 C104,265.307879 96.5,279.807879 95.3,279.807879 C95.2,279.807879 95,278.407879 95,276.807879 Z M128,271.707879 C127.3,270.607879 126.6,269.907879 126.3,270.107879 C126,270.407879 124,270.007879 121.7,269.207879 C117.1,267.607879 117.2,267.707879 122,271.207879 C123.9,272.507879 126.3,273.707879 127.3,273.707879 C128.8,273.807879 128.9,273.507879 128,271.707879 Z M99.3,263.407879 C98.9,262.807879 98.7,261.107879 98.8,259.507879 C99.1,255.207879 97.4,257.107879 96.6,261.807879 C95.8,266.807879 96.8,268.907879 98.6,266.307879 C99.3,265.307879 99.6,264.007879 99.3,263.407879 Z M122.4,255.207879 C123.3,254.907879 124,254.007879 124,253.307879 C124,251.007879 117.5,249.807879 115.5,251.707879 C114.9,252.207879 113.6,252.807879 112.5,253.107879 C111,253.507879 111.2,253.607879 113.3,253.707879 C114.8,253.707879 116,254.307879 116,254.807879 C116,255.907879 119.9,256.107879 122.4,255.207879 Z M116,235.807879 C118.8,234.107879 114.7,231.407879 109,231.307879 C104.1,231.207879 104,231.207879 106.4,232.507879 C107.8,233.307879 109,234.307879 109,234.807879 C109,235.607879 111,236.407879 113.5,236.707879 C114.1,236.707879 115.2,236.307879 116,235.807879 Z M82.2,227.107879 C83.9,225.307879 83.8,225.207879 80.6,225.107879 C78.4,225.007879 76.3,225.807879 74.9,227.107879 L72.6,229.207879 L75.1,229.907879 C77.8,230.607879 79.8,229.807879 82.2,227.107879 Z M121.7,210.107879 C122.4,208.207879 117.9,206.407879 112.3,206.307879 C109.5,206.207879 107.4,206.607879 107.6,207.007879 C107.9,207.407879 108.5,207.807879 109.1,207.807879 C109.6,207.807879 110.9,208.707879 112.1,209.907879 C114.3,212.107879 121,212.307879 121.7,210.107879 Z M66.2,167.107879 C66.6,162.407879 65.2,158.807879 63,158.807879 C62.1,158.807879 60.8,157.607879 60.1,156.207879 C59.5,154.707879 58.7,153.807879 58.4,154.107879 C58.1,154.407879 58.6,156.007879 59.5,157.707879 C60.6,160.007879 60.7,160.707879 59.8,160.607879 C57.3,160.007879 57.9,164.507879 60.9,167.607879 C64.7,171.707879 65.8,171.607879 66.2,167.107879 Z M23.5,78.4078795 C24.6,70.8078795 21.2,51.0078795 15.6,32.8078795 C14.3,28.4078795 14.2,28.6078795 13.5,43.9078795 C12.7,61.0078795 13.7,68.6078795 18,80.2078795 C20.1,85.6078795 20.4,86.0078795 21.6,84.3078795 C22.3,83.3078795 23.2,80.7078795 23.5,78.4078795 Z M67.6,25.0078795 C71.6,23.3078795 74.5,18.6078795 73,15.9078795 C71.8,13.6078795 69.7,14.0078795 66.3,17.1078795 C63.6,19.5078795 63.4,21.6078795 65.6,22.5078795 C67,23.0078795 66.9,23.4078795 64.9,25.0078795 C63.6,26.1078795 63,26.8078795 63.5,26.6078795 C64.1,26.3078795 65.9,25.6078795 67.6,25.0078795 Z" id="Shape"></path>
                <path d="M75.4,259.807879 C71.3,258.207879 72.1,257.107879 76.3,258.607879 C81.3,260.407879 86.5,259.307879 92.6,255.207879 C95.8,253.007879 96.1,252.907879 94.6,254.607879 C90.2,259.507879 80.9,262.007879 75.4,259.807879 Z" id="Path"></path>
                <path d="M0,253.807879 C0,253.307879 2.2,252.807879 4.8,252.807879 C20.5,252.807879 43.8,241.107879 50.2,230.107879 L51.9,227.107879 L47,227.607879 C42.4,228.007879 41.8,227.807879 38.5,224.507879 C35.6,221.607879 35,220.307879 35,216.907879 C35,213.507879 35.6,212.107879 38.6,209.007879 C40.6,207.007879 41.7,206.107879 41,207.107879 C39.9,208.607879 40.1,208.807879 42.9,208.807879 C47.5,208.807879 51.5,211.207879 53.3,215.007879 C55.6,220.007879 55.6,221.807879 53.1,227.507879 C48.3,238.407879 33.4,248.807879 16.7,252.807879 C7.8,254.907879 0,255.407879 0,253.807879 Z M50.4,225.807879 C52.6,225.007879 53,224.207879 53,220.707879 C53,217.407879 52.4,216.007879 49.6,213.207879 C44.5,208.107879 38.9,208.607879 37,214.407879 C35.5,218.807879 37.3,222.707879 42,225.007879 C46,227.107879 46.9,227.207879 50.4,225.807879 Z" id="Shape"></path>
                <path d="M22.3,235.107879 C16.1,227.307879 15.4,223.307879 19.4,219.307879 C22.4,216.307879 21.3,214.607879 15.2,212.907879 C9.6,211.307879 2.5,204.407879 1.1,199.207879 C0.5,197.007879 0,191.607879 0,187.207879 C0,179.907879 0.4,178.307879 3.5,172.207879 C7.7,163.807879 12.6,157.407879 12.7,160.407879 C12.7,161.407879 11.6,163.807879 10.3,165.607879 C9,167.307879 6.5,171.807879 4.7,175.607879 C-2.2,190.307879 1.9,205.107879 14.2,210.307879 C28.9,216.407879 44.7,201.707879 37.1,189.207879 C33.6,183.507879 25.2,182.407879 20.3,187.007879 C16.2,190.807879 18.3,196.807879 23.1,195.307879 C24.5,194.807879 25,194.907879 24.6,195.707879 C22.5,199.007879 16,195.107879 16,190.507879 C16,188.007879 21.1,183.107879 24.5,182.207879 C28.2,181.307879 34.2,183.307879 37.4,186.507879 C40.3,189.407879 40.2,189.407879 42.3,185.307879 C44.6,180.607879 46.2,171.207879 45.6,165.507879 C45.2,161.907879 45.3,160.907879 45.9,162.307879 C47.2,165.007879 47.2,175.507879 46,179.907879 C45.4,181.907879 43.9,185.107879 42.7,187.007879 C41,189.507879 40.5,191.307879 40.8,194.107879 C41,196.107879 40.9,198.907879 40.6,200.307879 C39.1,206.107879 29.3,213.707879 23.3,213.807879 C20.2,213.807879 21.4,216.407879 25,217.707879 C29,219.007879 30.4,222.107879 29.5,227.707879 C29.2,230.207879 28.5,234.407879 28.2,237.007879 L27.5,241.707879 L22.3,235.107879 Z M25.8,226.807879 C26,225.607879 25.8,224.307879 25.3,223.907879 C24.8,223.607879 23.9,222.207879 23.2,220.807879 C22,218.407879 22,218.407879 22.6,221.507879 C22.9,223.207879 22.7,224.907879 22.1,225.307879 C21.3,225.707879 21.3,226.507879 22.1,227.907879 C23.4,230.407879 25.4,229.907879 25.8,226.807879 Z" id="Shape"></path>
                <path d="M26,197.807879 C26,192.107879 29.3,187.807879 33.8,187.807879 C35,187.807879 34.6,188.607879 32.5,190.807879 C29.5,194.007879 29.6,194.107879 35,193.807879 C37.9,193.607879 38.2,193.807879 37.2,195.107879 C36.5,195.907879 34.3,196.907879 32.4,197.307879 C30.5,197.607879 28.6,198.607879 28.3,199.407879 C27.4,201.907879 26,200.907879 26,197.807879 Z" id="Path"></path>
                <path d="M160.4,177.707879 C156.2,176.507879 150.3,169.807879 149.4,165.307879 C148.8,161.907879 148.6,161.807879 147,163.307879 C146,164.207879 145,166.207879 144.7,167.707879 C144.1,170.707879 140.2,172.807879 135.4,172.807879 L133.1,172.807879 L135.2,169.107879 C137.9,164.507879 138.9,163.707879 141.6,164.007879 C144.2,164.307879 149,160.607879 149,158.207879 C149,155.407879 153.1,148.807879 156.1,146.607879 C164.4,140.407879 178,143.907879 182.5,153.407879 C184.8,158.407879 184.2,167.307879 181.2,171.507879 C177.4,176.807879 167.3,179.807879 160.4,177.707879 Z M165,174.807879 C162.9,172.707879 162.3,167.407879 163.9,165.007879 C165.2,162.807879 170.1,164.007879 172.4,167.107879 C174.1,169.407879 174.3,170.307879 173.3,172.807879 C172,176.307879 172.8,176.607879 176.4,173.707879 C184.2,167.607879 183.8,153.907879 175.6,148.907879 C165.9,143.007879 154.9,147.007879 152.1,157.607879 C149.7,166.507879 156.3,176.507879 164.8,176.707879 C167,176.807879 167,176.807879 165,174.807879 Z M170.7,172.307879 C171.3,170.507879 168.2,166.507879 166.9,167.407879 C165.8,168.007879 165.7,172.207879 166.7,173.107879 C167.9,174.307879 170,173.807879 170.7,172.307879 Z" id="Shape"></path>
                <path d="M100.7,164.807879 C98.9,163.407879 98,161.807879 98.1,160.007879 L98.1,157.307879 L99.1,159.807879 C100.3,162.807879 101.7,163.807879 105.2,163.807879 C108.8,163.807879 113,160.007879 114,155.807879 L114.8,152.307879 L114.9,156.007879 C115.1,163.707879 106.3,169.207879 100.7,164.807879 Z" id="Path"></path>
                <path d="M126,157.607879 C117.5,155.207879 109.1,145.207879 106.9,135.007879 C105.4,128.007879 106.9,119.707879 110.8,112.407879 C113.8,106.807879 122.9,96.8078795 124.9,96.8078795 C125.6,96.8078795 123.6,99.6078795 120.4,103.007879 C112.6,111.507879 108.6,120.207879 108.6,128.807879 C108.6,132.707879 109.3,136.807879 110.2,139.107879 C111.8,142.607879 112.1,142.807879 116.5,142.807879 C119.1,142.807879 122.8,141.907879 125,140.807879 C129,138.807879 129.9,137.507879 128,136.307879 C126.2,135.207879 126.9,128.207879 129.1,125.407879 C132,121.707879 134.3,120.707879 142.4,119.807879 C146.3,119.407879 150.6,118.707879 152,118.307879 L154.5,117.507879 L152.2,120.007879 C151,121.307879 148.9,125.307879 147.5,128.807879 C144.7,136.007879 143,138.107879 138.9,139.807879 C135.7,141.207879 130.5,140.407879 131.6,138.707879 C131.9,138.107879 134.1,136.807879 136.4,135.907879 C141.6,133.607879 142.9,132.107879 143.2,127.707879 C143.5,124.307879 143.5,124.307879 139.6,124.507879 C132.9,125.007879 128,131.807879 133.1,133.607879 C135.1,134.407879 134.9,134.707879 130.6,138.507879 C125.9,142.707879 118.6,145.507879 115,144.507879 C112.6,143.907879 112.5,144.207879 114.5,147.207879 C120.8,156.807879 136.5,158.907879 147,151.707879 L151.5,148.607879 L148,152.207879 C142.7,157.807879 134,159.907879 126,157.607879 Z" id="Path"></path>
                <path d="M139,150.107879 C136.9,149.307879 133,145.707879 133,144.407879 C133,143.907879 134.2,144.607879 135.8,146.007879 C137.3,147.407879 139.4,149.007879 140.5,149.607879 C142.6,150.807879 141.6,151.107879 139,150.107879 Z" id="Path"></path>
                <path d="M0.5,145.807879 C0.8,144.807879 1.5,141.407879 2,138.107879 C2.9,132.307879 6.2,127.807879 9.4,127.807879 C10.1,127.807879 13.8,122.807879 17.6,116.707879 C21.3,110.607879 24.6,106.107879 24.8,106.707879 C25,107.307879 24.3,109.007879 23.2,110.507879 C15.8,121.107879 15,130.007879 21.1,135.707879 C22.4,136.907879 22.9,137.807879 22.4,137.807879 C19.3,137.807879 14.4,128.007879 15.5,124.207879 C16.1,122.407879 16,122.407879 14.8,124.307879 C14.1,125.307879 11.6,128.307879 9.2,130.707879 C4.7,135.507879 3.1,139.307879 4.7,140.907879 C5.4,141.607879 6.8,140.907879 8.9,138.807879 C12,135.607879 12.8,133.207879 11,132.607879 C10.3,132.407879 10.5,131.507879 11.4,130.307879 C12.8,128.607879 13.1,128.507879 14,129.807879 C17.1,134.507879 13.8,140.107879 5.4,144.707879 C0.8,147.207879 -5.55111512e-17,147.407879 0.5,145.807879 Z" id="Path"></path>
                <path d="M150.2,146.907879 C149.2,146.307879 149.2,145.907879 150.4,144.807879 C152.8,142.907879 154.1,136.907879 153,132.407879 C152.4,129.807879 152.5,128.907879 153.2,129.607879 C155.8,132.207879 154.7,145.807879 151.9,145.807879 C151.3,145.807879 151.2,146.307879 151.5,146.807879 C152.2,148.007879 151.9,148.007879 150.2,146.907879 Z" id="Path"></path>
                <path d="M168,141.507879 C168,141.207879 169.6,139.107879 171.6,136.707879 C177,130.207879 179.2,125.007879 179.7,117.807879 C180.4,108.607879 177.5,101.407879 169.9,93.2078795 C161.5,84.1078795 162.3,83.3078795 171.3,91.7078795 C177.8,97.8078795 182,106.807879 182,114.907879 C182,120.207879 184,123.807879 187.1,123.807879 C190.8,123.807879 192.6,125.607879 195.7,132.307879 C197.2,135.607879 198.6,138.607879 198.8,139.007879 C199.6,140.607879 185.3,134.707879 183.8,132.707879 C181.8,130.407879 181.4,126.307879 183,125.307879 C183.7,124.907879 183.6,123.907879 182.8,122.507879 C181.8,120.507879 181.6,120.707879 180.4,125.007879 C178.8,130.307879 173.5,138.507879 170.3,140.607879 C169,141.407879 168,141.807879 168,141.507879 Z M192,132.407879 C192,130.007879 188.4,126.407879 186.7,127.107879 C185.3,127.607879 185.2,128.207879 186.1,130.207879 C186.8,131.607879 188.2,132.907879 189.4,133.107879 C190.5,133.307879 191.6,133.607879 191.8,133.707879 C191.9,133.707879 192,133.207879 192,132.407879 Z" id="Shape"></path>
                <path d="M98,121.907879 C94.1,115.607879 93.6,111.007879 96.5,107.807879 C98.1,106.007879 98.2,105.507879 97,104.807879 C96.2,104.207879 94.2,103.807879 92.7,103.807879 C87.6,103.807879 79,99.2078795 79,96.5078795 C79,95.9078795 80,96.4078795 81.3,97.6078795 C83.8,100.007879 88.1,101.807879 91.3,101.807879 C92.5,101.807879 94.6,102.407879 96,103.107879 C98.1,104.107879 98.7,104.007879 100.6,102.307879 C103.4,99.7078795 117.5,91.6078795 119.6,91.4078795 C124.3,91.0078795 120.9,93.9078795 111,98.8078795 C105,101.807879 99.8,104.807879 99.6,105.507879 C97.3,111.307879 98.5,121.607879 101,117.807879 C102.3,115.807879 102.3,111.107879 101,110.307879 C99.8,109.607879 99.7,105.807879 100.8,105.807879 C101.3,105.807879 102.5,106.707879 103.5,107.807879 C105.4,109.907879 105.2,114.107879 102.8,122.907879 L101.5,127.507879 L98,121.907879 Z" id="Path"></path>
                <path d="M204.5,116.107879 C200.4,110.007879 197.1,105.407879 195.9,104.007879 C193.8,101.507879 193.8,96.4078795 195.9,93.1078795 C197.1,91.3078795 198.4,89.8078795 198.8,89.8078795 C199.5,89.8078795 200.9,92.0078795 202.7,96.0078795 C202.9,96.3078795 202.2,96.4078795 201.1,96.1078795 C198,95.3078795 197.7,98.6078795 200.5,103.407879 C201.9,105.807879 203.4,107.807879 203.9,107.807879 C205,107.807879 207,103.107879 207,100.307879 C207,99.0078795 206.2,97.1078795 205.2,96.1078795 C204.2,95.1078795 202.7,93.1078795 201.7,91.6078795 C200.8,90.2078795 197.5,87.7078795 194.3,86.2078795 C188.9,83.6078795 187.6,83.4078795 175.6,83.3078795 C166.2,83.3078795 162.6,83.0078795 162.3,82.1078795 C161.9,81.1078795 163.7,80.8078795 168.7,80.8078795 C187.1,80.8078795 199.8,74.8078795 205.4,63.6078795 C208.4,57.5078795 209.1,52.4078795 206.3,57.0078795 C204,60.7078795 200.8,62.0078795 197.1,60.7078795 C195.4,60.1078795 194.2,59.1078795 194.3,58.5078795 C194.4,57.8078795 193.2,57.2078795 191.7,57.0078795 C189.4,56.7078795 188.9,57.0078795 189.2,58.5078795 C189.4,59.8078795 190.9,60.5078795 194.3,61.2078795 C199.6,62.1078795 200.6,64.3078795 196.5,65.8078795 C191.3,67.8078795 185.4,63.1078795 180.1,53.0078795 C178.9,50.8078795 179,50.7078795 180.9,51.7078795 C182,52.3078795 185.7,52.8078795 189.2,52.8078795 C196.6,52.8078795 200,54.6078795 200,58.5078795 C200,60.9078795 200.1,61.0078795 202.3,59.6078795 C208.1,55.8078795 209.6,45.8078795 205.6,37.3078795 C201.1,27.6078795 192.3,21.2078795 180,18.7078795 C171,16.8078795 150.3,18.1078795 139,21.2078795 C126.5,24.7078795 121,26.8078795 121.1,28.2078795 C121.1,29.4078795 123.8,33.5078795 128.4,39.2078795 C131.8,43.5078795 132.9,50.8078795 130.8,54.7078795 C129.5,57.2078795 124.3,61.5078795 123.6,60.7078795 C122.5,59.5078795 124.4,53.9078795 126.1,53.5078795 C129.3,52.7078795 128.6,46.1078795 124.9,41.0078795 C123.2,38.6078795 121.3,36.9078795 120.6,37.1078795 C119.1,37.6078795 116,47.9078795 116.7,50.3078795 C117.5,53.1078795 120,55.8078795 121.3,55.2078795 C122.1,54.9078795 122.5,56.2078795 122.5,59.0078795 C122.5,62.5078795 121.8,63.9078795 119.2,66.5078795 C117.4,68.3078795 116.2,69.8078795 116.5,69.8078795 C116.8,69.8078795 121.5,67.6078795 126.9,64.8078795 L136.9,59.9078795 L136.3,54.5078795 C135.6,47.6078795 137.2,42.7078795 141.8,37.6078795 C144.8,34.3078795 151.5,29.8078795 153.4,29.8078795 C154.8,29.8078795 149.7,36.6078795 147.1,38.1078795 C145.5,39.0078795 143.2,41.8078795 142.1,44.1078795 C140,48.5078795 139.3,53.8078795 140.9,53.8078795 C141.4,53.8078795 144.8,52.4078795 148.4,50.7078795 C152.1,49.0078795 155.3,47.8078795 155.7,48.1078795 C156.3,48.8078795 134.5,63.1078795 128.3,66.1078795 C123.6,68.4078795 123.3,69.0078795 125.4,70.7078795 C126.4,71.5078795 127.5,71.5078795 129.4,70.8078795 C137.4,67.8078795 149.3,71.1078795 156,78.3078795 L159.5,81.9078795 L156.5,81.2078795 C154.9,80.9078795 153.1,80.5078795 152.5,80.4078795 C152,80.4078795 150.9,79.5078795 150.2,78.6078795 C147.8,75.3078795 140.8,73.2078795 134.3,73.7078795 C132.3,73.9078795 132.8,76.3078795 135.1,78.4078795 C136.2,79.4078795 137.6,81.1078795 138.2,82.1078795 C139.9,85.3078795 135.2,82.1078795 128,75.2078795 C122.6,70.0078795 121.2,69.1078795 119.7,70.0078795 C118.7,70.5078795 117.3,70.7078795 116.6,70.5078795 C115.8,70.2078795 114.3,71.3078795 113.1,72.9078795 C110.7,76.1078795 107,76.7078795 105,74.3078795 C104.3,73.5078795 103.1,72.8078795 102.4,72.8078795 C101.5,72.8078795 102.3,74.5078795 104.5,77.4078795 C108.6,82.8078795 108.2,84.5078795 102,87.6078795 C98.4,89.4078795 97.9,89.4078795 98.5,88.0078795 C98.9,87.0078795 99.6,84.8078795 100,83.0078795 C100.5,81.1078795 101.6,79.1078795 102.6,78.4078795 C103.6,77.6078795 103.9,76.9078795 103.3,76.5078795 C102.7,76.1078795 101.9,76.5078795 101.6,77.4078795 C101.1,78.6078795 100.2,78.9078795 97.9,78.4078795 C95.2,77.9078795 94.9,78.0078795 96,79.3078795 C97,80.5078795 97,81.4078795 96.2,83.3078795 C95.2,85.5078795 94.4,85.8078795 89.2,85.8078795 C86,85.8078795 82.9,86.3078795 82.2,87.0078795 C81.3,87.9078795 81,87.9078795 81,87.0078795 C81,86.4078795 82.4,85.1078795 84,84.3078795 C85.7,83.4078795 87.6,81.6078795 88.2,80.3078795 C88.8,78.9078795 90.1,77.6078795 91,77.3078795 C93.1,76.6078795 94.4,72.8078795 93,71.4078795 C90.9,69.3078795 92.1,66.1078795 95.8,63.1078795 C99.9,59.8078795 99.6,59.6078795 100.1,66.4078795 C100.2,68.2078795 99.3,69.9078795 97.1,71.8078795 C95.4,73.4078795 94,74.9078795 94,75.2078795 C94,75.5078795 95.9,75.8078795 98.2,75.8078795 C102.1,75.8078795 102.3,75.7078795 100.8,74.2078795 C99.4,72.8078795 99.4,72.4078795 100.7,70.9078795 C101.5,70.0078795 102.9,68.2078795 103.9,66.8078795 L105.8,64.4078795 L109.8,66.2078795 C114.5,68.3078795 117.4,67.7078795 119.7,64.1078795 C121.4,61.6078795 121.3,61.4078795 119.5,60.4078795 C116.1,58.5078795 113.3,54.8078795 112.6,51.8078795 C111.9,48.2078795 112.9,42.6078795 114.1,43.4078795 C114.6,43.7078795 115,42.8078795 115,41.5078795 C115,40.1078795 115.7,37.1078795 116.6,34.7078795 C117.4,32.3078795 118.2,28.4078795 118.2,26.0078795 C118.3,23.5078795 118.7,22.1078795 119.2,22.6078795 C119.7,23.1078795 122.7,22.6078795 126.3,21.3078795 C138.4,16.9078795 152.7,14.6078795 165.9,15.0078795 C178.8,15.3078795 179.6,14.4078795 168,12.8078795 C159.4,11.6078795 150.2,12.8078795 134.3,17.3078795 C133.3,17.6078795 134.5,16.9078795 137,15.8078795 C147.5,10.9078795 162.4,9.50787946 173.4,12.3078795 C176.6,13.2078795 183.3,15.9078795 188.1,18.4078795 C203.3,26.3078795 210.1,36.5078795 210.2,51.4078795 C210.2,65.0078795 202.6,75.9078795 190.2,79.9078795 C186,81.3078795 186.2,81.3078795 206.3,83.7078795 C225,85.8078795 226.9,85.9078795 230.3,84.4078795 C233.8,83.0078795 233.9,82.7078795 232.9,80.4078795 C231.1,76.5078795 233.3,72.5078795 239.5,68.4078795 C242.4,66.5078795 245.1,64.0078795 245.5,62.8078795 C246.9,58.4078795 247.5,61.3078795 247,70.4078795 C246.5,79.4078795 246.3,80.1078795 243.7,82.4078795 C240.8,84.9078795 237.6,85.5078795 236.5,83.9078795 C236.2,83.4078795 237.5,81.7078795 239.4,80.1078795 C242.9,77.3078795 244.5,72.8078795 242.3,72.1078795 C240.3,71.4078795 236.8,75.7078795 237.5,77.9078795 C238.2,80.1078795 233.3,85.7078795 230.3,85.9078795 C229.3,86.0078795 231,86.4078795 234,86.9078795 C239.3,87.6078795 244.8,87.0078795 250.4,84.8078795 C252.3,84.1078795 253,83.2078795 253,81.0078795 C253,77.8078795 255.2,74.4078795 258.3,72.6078795 C260.1,71.6078795 280,70.6078795 280,71.5078795 C280,71.6078795 278.7,72.4078795 277.1,73.2078795 C275.6,74.0078795 272.8,76.9078795 271.1,79.7078795 C267.6,85.0078795 264,87.1078795 258.9,86.6078795 C254,86.1078795 254.1,84.0078795 259.1,83.2078795 C263.4,82.5078795 268.4,78.5078795 267.7,76.4078795 C267.1,74.7078795 260.7,75.4078795 259.3,77.4078795 C258.6,78.4078795 258.1,79.7078795 258.3,80.3078795 C258.8,81.5078795 248.3,87.8078795 245.5,87.8078795 C244,87.9078795 244.4,88.4078795 247,89.7078795 C248.9,90.7078795 250.9,91.1078795 251.4,90.6078795 C253.1,89.2078795 258.4,89.7078795 261.6,91.7078795 C263.3,92.7078795 265.5,95.3078795 266.5,97.4078795 C267.4,99.6078795 269.3,102.807879 270.7,104.607879 C273.2,108.007879 273.1,108.407879 270,106.807879 C269,106.307879 265.1,105.407879 261.3,104.907879 C255.5,104.007879 254.1,103.407879 251.7,100.707879 C249.5,98.3078795 248.9,96.9078795 249.4,94.7078795 C249.9,92.1078795 249.6,91.8078795 245.2,90.5078795 C238.8,88.4078795 229.6,87.4078795 230.5,88.8078795 C230.8,89.3078795 232.1,89.8078795 233.4,89.8078795 C236.7,89.8078795 238.6,92.6078795 239.5,98.2078795 C239.8,100.907879 240.4,103.807879 240.8,104.707879 C241.2,105.807879 240.4,105.507879 238.2,103.807879 C236.5,102.407879 233.7,100.307879 232,99.0078795 C230.2,97.6078795 229,95.7078795 229,94.4078795 C229,91.4078795 230,90.6078795 231.9,92.1078795 C233.3,93.2078795 233.4,93.1078795 232,91.4078795 C231.2,90.4078795 229.5,89.2078795 228.1,88.6078795 C225,87.5078795 193.9,83.6078795 193.2,84.3078795 C192.9,84.6078795 193.4,84.8078795 194.2,84.8078795 C195,84.8078795 196.9,85.7078795 198.3,86.8078795 C199.7,87.9078795 201.6,88.8078795 202.5,88.8078795 C203.4,88.8078795 205.7,90.3078795 207.6,92.2078795 C211.7,96.3078795 212,100.107879 208.9,108.007879 C207.8,110.907879 207,114.707879 207.2,116.507879 C207.4,118.307879 207.5,119.807879 207.3,119.807879 C207.2,119.807879 205.9,118.107879 204.5,116.107879 Z M263,100.007879 C263,98.1078795 259.7,94.7078795 258.2,95.1078795 C257.2,95.3078795 255.2,94.8078795 253.5,94.1078795 L250.5,92.7078795 L252.8,94.7078795 C254,95.7078795 255,97.1078795 255,97.7078795 C255,98.2078795 255.8,99.2078795 256.8,99.7078795 C258.8,100.907879 263,101.107879 263,100.007879 Z" id="Shape"></path>
                <path d="M48.3,115.007879 C41.4,112.507879 33,106.307879 33,103.607879 C33,103.207879 35.1,104.507879 37.8,106.507879 C51,116.607879 63.5,117.407879 71.7,108.607879 C78.4,101.507879 77.1,89.4078795 69.1,84.1078795 C65.1,81.4078795 61.1,81.2078795 56.7,83.4078795 L53.5,85.1078795 L55.4,82.9078795 C58,80.0078795 66.1,80.0078795 70.8,82.8078795 C75.4,85.6078795 78.4,92.5078795 77.8,99.0078795 C76.5,112.307879 62.3,120.007879 48.3,115.007879 Z" id="Path"></path>
                <path d="M170,106.407879 C167.5,104.107879 162,102.807879 154.8,102.807879 C146.8,102.807879 141.9,101.007879 139.4,97.4078795 C137,93.7078795 138,93.4078795 143.1,96.3078795 C146.6,98.2078795 148.9,98.8078795 154.1,98.8078795 C157.7,98.8078795 160.9,98.5078795 161.3,98.2078795 C162.2,97.2078795 157.5,88.6078795 154.6,85.9078795 C151.5,83.0078795 151.3,81.8078795 153.9,81.8078795 C156.7,81.8078795 160.6,86.0078795 164,92.9078795 C165.8,96.4078795 168.2,100.707879 169.4,102.307879 C172.6,106.607879 173.2,107.807879 172.3,107.807879 C171.8,107.807879 170.8,107.207879 170,106.407879 Z" id="Path"></path>
                <path d="M136.5,100.607879 C131.7,98.2078795 126.3,93.3078795 124.4,89.6078795 C122.8,86.6078795 122.5,78.1078795 123.9,75.9078795 C124.6,74.8078795 126,75.5078795 130.4,79.4078795 C136.1,84.4078795 136.4,86.1078795 131.1,83.4078795 C127.2,81.4078795 127,81.4078795 127,83.9078795 C127,87.9078795 132,94.8078795 134.9,94.8078795 C135.8,94.8078795 137.5,96.6078795 138.8,98.8078795 C140,101.007879 140.9,102.807879 140.8,102.807879 C140.6,102.707879 138.7,101.807879 136.5,100.607879 Z" id="Path"></path>
                <path d="M66,95.9078795 C64.6,93.1078795 64.6,93.0078795 68.1,92.3078795 C71.7,91.5078795 74.7,93.6078795 73.7,96.2078795 C72.8,98.5078795 67.3,98.3078795 66,95.9078795 Z" id="Path"></path>
                <path d="M289.5,81.1078795 C288.8,76.4078795 289.9,73.4078795 293.2,71.7078795 C295,70.7078795 295.6,70.9078795 296.7,72.4078795 C298.7,75.2078795 298.3,76.5078795 294.1,81.0078795 L290.2,85.2078795 L289.5,81.1078795 Z" id="Path"></path>
                <path d="M208.6,78.7078795 C207,77.4078795 206,75.7078795 206,74.0078795 L206,71.3078795 L208,74.6078795 C209.7,77.3078795 210.6,77.8078795 213.8,77.8078795 C227.8,77.8078795 228.9,56.9078795 215.6,45.1078795 C213.2,43.0078795 210.5,39.8078795 209.5,37.9078795 L207.8,34.4078795 L212,37.8078795 C221.4,45.2078795 228,56.6078795 228,65.3078795 C228,70.0078795 224,76.8078795 220,78.9078795 C215.5,81.4078795 211.9,81.3078795 208.6,78.7078795 Z" id="Path"></path>
                <path d="M67.8,78.2078795 C50.6,75.1078795 33.8,66.1078795 29.4,57.7078795 C27,53.0078795 27.8,52.3078795 30.9,56.5078795 C36.6,64.4078795 51.1,71.8078795 70.9,76.9078795 C83,80.0078795 81.5,80.7078795 67.8,78.2078795 Z" id="Path"></path>
                <path d="M107.2,78.6078795 C106.4,77.6078795 107.9,77.2078795 114.3,77.0078795 C121.6,76.7078795 122.3,76.8078795 121.1,78.2078795 C119.4,80.2078795 108.8,80.4078795 107.2,78.6078795 Z" id="Path"></path>
                <path d="M78,75.2078795 C69.5,73.0078795 60.9,68.4078795 56,63.4078795 C50.9,58.1078795 52.3,57.2078795 58.1,62.1078795 C63.9,67.1078795 72.3,70.8078795 82.4,72.9078795 C87.4,73.9078795 91.6,74.8078795 91.8,74.8078795 C92,74.8078795 91.8,75.3078795 91.5,75.8078795 C90.6,77.2078795 84.5,76.9078795 78,75.2078795 Z" id="Path"></path>
                <path d="M54.4,68.4078795 C42.9,64.2078795 33.2,55.2078795 27.2,43.3078795 C23.8,36.5078795 19.7,24.7078795 20.5,24.0078795 C20.8,23.7078795 21,24.0078795 21,24.6078795 C21,26.2078795 30.9,36.7078795 34.1,38.3078795 C36.6,39.6078795 37.3,39.6078795 41.2,37.8078795 C47.9,34.8078795 55.6,35.5078795 61,39.8078795 L63.5,41.7078795 L61.1,41.1078795 C59.4,40.7078795 58.9,40.8078795 59.4,41.6078795 C59.8,42.3078795 60.6,42.8078795 61.2,42.8078795 C61.8,42.8078795 63.9,44.3078795 65.9,46.1078795 C67.9,47.8078795 70.6,50.1078795 72,51.1078795 C73.8,52.4078795 74,52.8078795 72.6,52.3078795 C71.6,52.0078795 67.2,52.9078795 62.8,54.4078795 C56.3,56.7078795 54.5,56.9078795 52.4,55.9078795 C50.9,55.3078795 50.1,55.2078795 50.5,55.8078795 C52.3,58.6078795 43.4,55.0078795 40.3,51.6078795 C39,50.3078795 37.7,47.7078795 37.4,45.8078795 C36.7,42.8078795 36.9,42.5078795 38.6,43.2078795 C39.6,43.7078795 41.3,44.3078795 42.3,44.5078795 C43.4,44.9078795 43.9,45.7078795 43.5,46.8078795 C43.2,47.8078795 43.8,49.3078795 45.1,50.4078795 C46.8,51.9078795 48.5,52.3078795 53.8,52.0078795 C58,51.9078795 61,51.2078795 61.9,50.3078795 C62.7,49.5078795 63.2,48.7078795 62.9,48.5078795 C62.7,48.4078795 60.4,46.4078795 57.8,44.0078795 C53.9,40.6078795 52.3,39.8078795 49.2,39.8078795 C44.7,39.8078795 43.6,40.6078795 45.1,42.5078795 C46.6,44.2078795 45.4,44.2078795 39.4,42.2078795 C34.2,40.4078795 29,37.0078795 25.2,32.8078795 L23,30.3078795 L25,35.3078795 C30.9,49.4078795 40.9,60.3078795 53.5,66.3078795 C57.6,68.2078795 61,70.0078795 61,70.3078795 C61,70.9078795 61.5,71.1078795 54.4,68.4078795 Z" id="Path"></path>
                <path d="M214.5,66.6078795 C214.1,64.7078795 214,61.6078795 214.2,59.7078795 C214.5,56.7078795 214.9,56.3078795 217.8,56.0078795 C220.8,55.7078795 221,55.9078795 221,58.7078795 C221,60.6078795 219.8,63.5078795 218.1,65.9078795 L215.1,69.9078795 L214.5,66.6078795 Z" id="Path"></path>
                <path d="M278.5,67.9078795 C273.4,65.6078795 268.3,59.8078795 267.5,55.5078795 C266.9,52.4078795 266,51.7078795 258.5,47.9078795 C253.9,45.5078795 249.4,42.8078795 248.4,41.7078795 C246.1,39.1078795 247.3,39.3078795 251.8,42.2078795 C255.8,44.7078795 265.6,49.8078795 266.5,49.8078795 C266.8,49.8078795 267,48.7078795 267,47.3078795 C267,41.9078795 272,34.9078795 278.2,31.7078795 C285.3,28.1078795 298.9,30.2078795 299.8,35.1078795 C300.2,36.9078795 300,36.8078795 297.3,34.9078795 C290.3,29.7078795 278.1,31.8078795 272.6,39.1078795 C269.4,43.2078795 267.9,50.8078795 270.1,50.8078795 C270.9,50.8078795 272.5,51.1078795 273.8,51.4078795 C275.1,51.8078795 276,51.7078795 275.9,51.2078795 C275.5,48.9078795 276.2,47.7078795 279,46.3078795 C283.2,44.1078795 285.8,44.4078795 291.5,47.8078795 C294.3,49.4078795 297.3,50.8078795 298.3,50.8078795 C301.2,50.8078795 300.1,52.1078795 294.1,56.1078795 C287.1,60.5078795 280.8,61.2078795 277.2,57.8078795 C275,55.7078795 274.3,53.8078795 275.8,53.8078795 C276.2,53.8078795 278.2,53.3078795 280.4,52.9078795 C283.2,52.2078795 284,52.2078795 283.1,53.1078795 C281.3,54.9078795 281.8,55.8078795 284.8,55.8078795 C287.3,55.7078795 291,53.8078795 291,52.5078795 C291,52.1078795 290.1,51.4078795 288.9,50.8078795 C287.4,49.9078795 285.3,50.1078795 280.3,51.3078795 C276.7,52.2078795 272.6,52.8078795 271.3,52.5078795 C268.6,52.0078795 268.3,53.6078795 270.4,57.6078795 C275.3,67.0078795 289.1,70.8078795 297.1,64.9078795 C299.5,63.1078795 300,63.0078795 300,64.3078795 C300,66.6078795 292.4,69.8078795 287,69.8078795 C284.5,69.8078795 280.7,68.9078795 278.5,67.9078795 Z" id="Path"></path>
                <path d="M0.1,66.8078795 C0,65.4078795 1.5,59.7078795 3.4,54.3078795 C5.3,48.8078795 6.9,45.2078795 6.9,46.3078795 C7,49.5078795 4.3,59.9078795 2.1,64.8078795 C0.5,68.6078795 0.1,68.9078795 0.1,66.8078795 Z" id="Path"></path>
                <path d="M70.4,66.5078795 C75,63.6078795 78.8,59.6078795 80.5,55.8078795 C82.2,52.0078795 84,50.5078795 84,52.8078795 C84,57.5078795 74.8,67.8078795 70.7,67.7078795 C68.6,67.7078795 68.6,67.6078795 70.4,66.5078795 Z" id="Path"></path>
                <path d="M144.8,65.8078795 C143.3,65.4078795 141.2,64.3078795 140,63.5078795 C138,62.1078795 138.1,61.9078795 143.7,58.8078795 C146.9,57.0078795 151.2,54.2078795 153.2,52.6078795 C159.2,47.9078795 158.5,51.2078795 152.3,56.7078795 C145.9,62.4078795 146.4,63.6078795 154.7,62.3078795 C158.3,61.8078795 160.3,60.7078795 163.3,57.7078795 C165.5,55.6078795 167.5,53.8078795 167.9,53.8078795 C168.2,53.8078795 169.8,53.1078795 171.4,52.3078795 C173,51.4078795 174.5,50.9078795 174.7,51.1078795 C174.9,51.4078795 172.9,53.9078795 170.3,56.8078795 C162.8,65.1078795 153.5,68.4078795 144.8,65.8078795 Z" id="Path"></path>
                <path d="M233.4,59.9078795 C227.3,57.1078795 226.4,52.1078795 232.1,53.0078795 C233.7,53.2078795 235.1,54.5078795 236.3,57.2078795 C237.3,59.3078795 238,61.2078795 237.8,61.3078795 C237.6,61.5078795 235.6,60.9078795 233.4,59.9078795 Z" id="Path"></path>
                <path d="M166,52.2078795 C166,51.9078795 167.6,49.8078795 169.4,47.6078795 C172.6,43.9078795 176,36.4078795 176,33.0078795 C176,30.6078795 161.6,32.3078795 156.1,35.4078795 C153.7,36.7078795 151.6,37.8078795 151.3,37.8078795 C151.1,37.8078795 151.6,36.5078795 152.5,34.8078795 C154.5,30.8078795 156.9,29.7078795 165.9,28.6078795 C170.1,28.1078795 176.2,26.6078795 179.4,25.3078795 C182.7,24.0078795 185.5,23.0078795 185.7,23.2078795 C185.8,23.3078795 184.9,25.0078795 183.5,26.8078795 C182.1,28.7078795 179.9,33.8078795 178.5,38.3078795 C176.1,46.2078795 174,49.2078795 169.3,51.7078795 C166.9,52.9078795 166,53.1078795 166,52.2078795 Z" id="Path"></path>
                <path d="M76.5,49.0078795 C71.8,47.4078795 64.5,43.0078795 65.2,42.3078795 C65.4,42.1078795 68.2,43.2078795 71.5,44.8078795 C79,48.3078795 87.8,50.2078795 93.3,49.3078795 C99.5,48.3078795 106.9,43.9078795 109.8,39.5078795 C111.2,37.5078795 112.5,36.0078795 112.8,36.3078795 C114.2,37.6078795 107.1,45.4078795 102.1,48.0078795 C97.6,50.4078795 95.6,50.8078795 89.1,50.8078795 C84.6,50.7078795 79.5,50.0078795 76.5,49.0078795 Z" id="Path"></path>
                <path d="M226,49.3078795 C225,48.1078795 225,47.8078795 226.1,47.8078795 C227.8,47.8078795 234,42.9078795 232.4,42.8078795 C231.8,42.8078795 230.5,43.7078795 229.5,44.8078795 C226.9,47.7078795 224,47.4078795 224,44.4078795 C224,41.4078795 227.4,38.8078795 231.5,38.7078795 C233.1,38.7078795 236.1,38.1078795 238,37.4078795 L241.4,36.1078795 L234.5,32.2078795 C224.3,26.6078795 212.8,22.1078795 202,19.8078795 C188.2,16.7078795 185.2,15.7078795 192,16.4078795 C206.2,17.7078795 225.5,24.4078795 237.5,32.3078795 C241.2,34.8078795 244.6,36.5078795 245.1,36.2078795 C246.5,35.4078795 246.1,39.6078795 244.5,42.8078795 C243,45.8078795 238.5,49.8078795 236.7,49.8078795 C236.1,49.8078795 237,48.3078795 238.7,46.6078795 C242.9,42.1078795 244.5,38.9078795 243.1,37.5078795 C241.6,36.0078795 238.3,39.2078795 237.5,42.9078795 C236.8,46.1078795 231.8,50.8078795 229,50.8078795 C228.1,50.8078795 226.7,50.1078795 226,49.3078795 Z" id="Path"></path>
                <path d="M0,44.9078795 C0,43.3078795 0.7,41.5078795 1.5,40.8078795 C3.4,39.2078795 3.4,35.4078795 1.5,33.8078795 C-0.4,32.2078795 -0.4,30.8078795 1.6,29.4078795 C3.8,27.8078795 3.7,17.5078795 1.5,10.8078795 C0.6,8.00787946 0,5.40787946 0.3,5.10787946 C0.6,4.80787946 1.8,7.60787946 2.9,11.3078795 C5.1,18.3078795 5.6,25.3078795 4.1,27.7078795 C3.5,28.6078795 3.9,29.7078795 5.1,30.9078795 C7.8,33.6078795 7.5,38.9078795 4.3,43.7078795 C1.2,48.5078795 0,48.9078795 0,44.9078795 Z" id="Path"></path>
                <path d="M82.7,44.6078795 C82.4,42.8078795 81.8,40.4078795 81.4,39.3078795 C80.8,37.5078795 80.9,37.5078795 82.3,38.8078795 C84.1,40.6078795 85.7,47.8078795 84.2,47.8078795 C83.7,47.8078795 83,46.3078795 82.7,44.6078795 Z" id="Path"></path>
                <path d="M65.9,37.3078795 C59.4,35.7078795 46.7,30.8078795 47.4,30.1078795 C47.6,29.8078795 51.1,30.8078795 55.2,32.1078795 C59.2,33.5078795 66.2,35.2078795 70.8,35.9078795 C79.2,37.2078795 81.9,38.9078795 75.3,38.7078795 C73.2,38.7078795 69,38.0078795 65.9,37.3078795 Z" id="Path"></path>
                <path d="M247.4,36.2078795 C247.7,35.3078795 248,34.3078795 248,33.8078795 C248,33.4078795 248.9,33.2078795 249.9,33.5078795 C251.2,33.8078795 252.2,33.3078795 253,31.9078795 C254,29.9078795 253.9,29.8078795 251,30.0078795 C249.1,30.1078795 247.4,31.1078795 246.4,32.5078795 C244.9,34.9078795 243,34.8078795 243,32.4078795 C243,29.5078795 245.7,27.7078795 251.5,26.8078795 C254.8,26.4078795 258.4,25.6078795 259.5,25.2078795 C261.4,24.5078795 261.4,24.6078795 259.9,26.4078795 C259,27.4078795 257.9,29.3078795 257.6,30.5078795 C257.2,31.7078795 255.5,33.9078795 253.9,35.3078795 C250.4,38.2078795 246.4,38.8078795 247.4,36.2078795 Z" id="Path"></path>
                <path d="M198,35.1078795 C193.2,34.2078795 184.9,31.6078795 185.4,31.1078795 C185.7,30.8078795 189.2,31.3078795 193.2,32.2078795 C203.1,34.4078795 206.7,36.6078795 198,35.1078795 Z" id="Path"></path>
                <path d="M39.1,29.3078795 C32.9,24.8078795 31.1,22.7078795 35.2,24.9078795 C38.6,26.7078795 47.3,33.8078795 46.2,33.8078795 C45.7,33.8078795 42.5,31.8078795 39.1,29.3078795 Z" id="Path"></path>
                <path d="M100.8,23.8078795 C97.3,17.7078795 89.6,15.2078795 83.8,18.2078795 C82.2,19.0078795 81,19.3078795 81,18.8078795 C81,18.4078795 82.9,17.3078795 85.1,16.4078795 C89.4,14.7078795 93.6,14.9078795 97.3,17.2078795 C99.5,18.5078795 103.3,24.4078795 102.8,25.8078795 C102.6,26.3078795 101.7,25.4078795 100.8,23.8078795 Z" id="Path"></path>
                <path d="M250.2,23.3078795 C250.1,21.6078795 249.3,19.2078795 248.4,18.0078795 C247.6,16.8078795 247.3,15.8078795 247.9,15.8078795 C249.6,15.8078795 251.1,19.7078795 250.7,23.1078795 L250.3,26.3078795 L250.2,23.3078795 Z" id="Path"></path>
                <path d="M48.6,21.3078795 C46.6,19.3078795 45,17.6078795 45,17.3078795 C45,16.7078795 51.4,15.4078795 53,15.7078795 C58.2,16.7078795 59.8,24.0078795 54.8,24.6078795 C52.9,24.8078795 51.2,24.0078795 48.6,21.3078795 Z" id="Path"></path>
            </g>
        </g>
    </g>
</svg>