<?xml version="1.0" encoding="utf-8"?>
<svg viewBox="0 0 300 300" xmlns="http://www.w3.org/2000/svg">
  <path d="m122 7-5 5c0 2 0 3-3 2-3 0-7 2-9 5l-1 8 1-2c0-4 4-9 6-10l6 1 4 2c2 0 4-3 4-6l1-5c2-2 1-2-4 0z" style="fill: #{transparentize(_palette(accent-border), 0.75)}"/>
  <path d="m95 23-1 7-2 6c0 3 3 8 4 8v14l-1 14-2-4c-4-7-11-14-19-18l-8-4 2-2c2-2 2-5 0-9l-2-5c-1-1-1 0-3 3-3 6-3 10 0 11 4 3 1 4-3 2-2-1-3-2-2-3l-3-2-4-2c-2-3 1-2 5 1l2 3 1-3c0-5-3-7-9-7l-7-2c-3-2-2 0 1 6 2 4 4 6 7 7l3 1-4 2c-4 1-6 3-3 3l5 2c5 1 9 0 9-3l3-1c14 3 29 17 31 31l1 5-5-5-4-6c0-2-5-7-8-7l-10-1h-7l5 6 8 7h10c3-1 8 4 11 10 2 5 2 20 0 26l-2 3v-3c-1-4-5-9-8-9-2 0-4-3-6-7 0-3 0-3 2-3 3 0 8 5 8 7l1 4 2 3 1-2c3-5-2-12-9-15l-10-4-5-2 3 4 4 8c1 8 6 13 12 13 3 0 3 1 4 3 1 9-7 19-31 36l-7 5 2-4c1-3 2-4 4-4 3 0 7-4 9-8v-6l-1-2v-12l-5 5-6 7h-1c-1-2-3 2-3 7 0 4 1 6 2 7 2 2 2 2-1 7l-8 11c-5 5-5 5-5 2s-4-10-8-14l-3-1 2 3c0 2-2 3-6 1-3-1-8-11-8-15 0-5 2-5 9-1 7 3 10 6 10 9 0 2 0 2-3 1-2-1-2 0 1 4l3 3c2 2 2 2 3 0 2-3 1-10-2-14s-8-8-6-5h-2l-8-5c-4-2-7-3-7-5-2-4-3-2-2 5 0 12 1 15 4 17s2 3-1 1c-2-1-2-1-1 1 3 6 13 11 19 10 3-1 3-1 4 3 1 5 1 6-2 10-8 10-13 25-13 37 0 7-1 8-3 4l1-5 1-3c0-2 0-2-2 0l-2 3-4-4c-4-4-5-5-5-2l-1 1c-1 0-4-6-5-11 0-4 0-5 2-5s8 5 9 8 1 3-1 3c-2 1-2 1 1 4 2 3 2 3 4 1 4-5-1-15-12-20l-5-4c-1-3-1-3-1 8 0 8 0 11 2 12v2c-2-1-2-1 0 1 2 4 8 6 11 6 4-1 5 2 2 8-6 10-6 15-6 39v22l-6 10-5 11 4 1c4 0 5-1 11-6 11-9 30-20 38-21 5 0 10 1 8 2-2 2-1 7 2 10 1 2 4 3 7 4l7 4c2 2 3 1 2-1l-1-8c-1-6-2-9-5-11s-8-3-10-1h-3l-3-1 4-1 15-2c12 0 24 1 35 5 7 2 6 2 6 0 0-4-26-9-40-7-9 0-21 3-21 4l-2 1c-6 0-22 7-31 13l-5 3 5-5c16-14 19-18 18-19l-2-1c-2 0-21 19-27 28-8 10-10 11-5 3 9-14 14-26 18-46l5-19c3-4 3-4 7-4l8-1c3-2 7-8 8-12 1-2 1-2-1-1v-1l3-5 3-9c0-2 0-2-2-1l-7 4-7 3-4 1c-2 0-7 7-8 10l2 9 4-4c3-3 3-4 1-4-2 1-3 0-2-3 1-2 12-8 14-8s2 1 0 11l-4 5c-4 3-7 2-5-1s0-2-5 3l-6 9-3 6 1-5 1-15c0-13 2-21 7-32 5-10 10-15 17-18 8-3 9-3 11 1s7 7 12 7c3 0 3 0 2-2-1-1-1-1 0 0 3 2 9 1 13-2l4-2h-3l-4-1 1-1c2 2 8-1 14-7l6-5h-4l-10-1-9-2h-2l2-1v-1c-3-2-10 0-16 2-3 2-8 7-8 10h7c6 0 7-1 2-2-4-1-3-3 3-5 4-2 5-2 12 0 13 3 13 3 6 9l-6 5c-1 2-13 2-16 0-2-3-2-4 1-4l4-1c3-2-17 0-23 2l-4 2 6-6 16-13 17-13 12-12 6-4 3 3c4 3 10 3 16 1l8-2h4l-2-2-8-6c-4-3-6-4-10-4-6 0-11 3-11 7 0 1 5 0 6-2s8-1 11 1c3 3 2 4-5 5l-6-1c-1-2-1-2-5-1l-8 4-3 3 2-5 3-11c1-5 2-7 4-9 2-3 3-3 6-2 5 2 10 1 14-2l6-4h3c1-1-1-2-4-3-8-4-16-5-19-1-2 1-3 4-3 5l-6 7-1-3-1-10c-1-7-1-7 1-11 3-4 5-5 6-3h10l6-4c1-2 4-4 6-4 2-2 2-2-5-3l-10-2c-3 0-9 4-9 7l-2 5-4 5v-6c1-12 3-17 9-21 3-1 3-1 5 2 4 3 8 3 14 0l7-3c3-1 3-1-3-4l-10-4c-4 0-8 2-9 5 0 2-6 5-7 4l11-12c2-3 4-3 7-2 4 1 9-1 11-6l5-6 3-3-3 1-9 1c-7 1-11 4-11 8l-1 3c-2 0-12 12-16 19-2 5-3 6-3 3l1-7 1-4c3 0 5-4 5-7 0-2-7-17-9-17v3zm33 5-2 2-4 1c-5 1-5 1 0-2l5-3c2 0 2 0 1 2zm-29 8v4c0 5-2 3-2-2-1-5 0-7 2-4v2zm23 9 2 2c0 2-6 3-8 1l-3-1c-2-1-2-1 0-1l3-1h6zm-6 19c3 2-1 4-7 5-5 0-5 0-3-2 2 0 3-1 3-2s2-2 5-2l2 1zm-34 9c2 2 2 2-1 2l-6-2-2-2 2-1c3-1 5 0 7 3zm40 17c0 2-4 3-10 4l-4-1 1-1 3-2c2-2 9-2 10 0zm-56 43c1 4-1 8-3 8l-3 3-2 2 1-4c2-2 2-3 1-3-3 1-2-4 1-7 4-4 5-4 5 1zm-43 88c2 8-2 28-7 46-2 4-2 4-3-11 0-17 1-25 5-36 2-6 2-6 4-4l1 5zm45 54c4 2 6 6 5 9-1 2-3 2-7-1-2-3-3-5 0-6 1 0 1-1-1-2l-2-2 5 2z" style="fill: #{transparentize(_palette(accent-border), 0.75)}"/>
  <path d="M75 40c-4 2-3 3 1 1 5-2 11 0 17 4 3 2 3 2 2 0-5-5-14-7-20-5zM0 46l5 1c16 0 39 12 45 23l2 3-5-1c-5 0-5 0-8 3s-4 4-4 8c0 3 1 5 4 8l2 2c-1-2-1-2 2-2 5 0 9-2 10-6 3-5 3-7 0-13-5-11-20-21-36-25-9-2-17-3-17-1zm50 28c3 1 3 2 3 5s-1 5-3 8c-5 5-11 4-13-2-1-4 0-8 5-10 4-2 5-2 8-1z" style="fill: #{transparentize(_palette(accent-border), 0.75)}"/>
  <path d="M22 65c-6 7-7 11-3 15 3 3 2 5-4 7-5 1-13 8-14 14l-1 12c0 7 0 8 3 15 5 8 10 14 10 11l-3-5-5-10c-7-14-3-29 9-34 15-7 31 8 23 21-3 5-12 6-17 2-4-4-2-10 3-8l2-1c-2-3-9 1-9 5 0 3 5 8 9 9 3 1 9-1 12-5 3-3 3-3 5 2 3 4 4 14 4 19v4-18l-3-7c-2-3-3-4-2-7v-6c-2-6-12-14-18-14-3 0-2-3 2-4s5-4 4-10l-1-9-1-5-5 7zm4 8-1 3-2 3v-1l-1-4v-2c1-3 3-2 4 1z" style="fill: #{transparentize(_palette(accent-border), 0.75)}"/>
  <path d="M26 102c0 6 3 10 8 10 1 0 1-1-2-3-2-3-2-3 3-3 3 0 3 0 2-1l-5-2-4-3c-1-2-2-1-2 2zm134 20c-4 1-10 8-11 12 0 4 0 4-2 3l-2-5c-1-3-5-5-10-5h-2l2 4c3 4 4 5 7 5 2-1 7 3 7 6 0 2 4 9 7 11 8 6 22 3 26-7 3-5 2-14-1-18-4-5-14-8-21-6zm5 3c-2 2-3 7-1 10 1 2 6 1 8-2s2-3 1-6 0-4 3-1c8 6 8 20 0 25-10 6-21 2-24-9-2-9 4-19 13-19 2 0 2 0 0 2zm6 3c0 1-3 5-4 4v-5c1-1 3-1 4 1zm-70 7c-2 1-3 3-3 5v3l1-3c1-3 3-4 6-4 4 0 8 4 9 8l1 4v-4c0-8-9-13-14-9zm25 7c-8 3-17 13-19 23-2 7 0 15 4 22 3 6 12 16 14 16 1 0-1-3-5-6-7-9-11-17-11-26l1-10c2-4 2-4 7-4l8 2c4 2 5 3 3 4-2 2-1 9 1 11 3 4 5 5 13 6l10 1 3 1-3-2-5-9c-2-7-4-9-8-11-3-1-8-1-7 1l4 3c6 2 7 4 7 8 1 3 1 3-3 3-7 0-12-7-7-9 2-1 2-1-2-5-5-4-12-7-16-6-2 1-2 1 0-2 6-10 22-12 32-5l5 3-4-3c-5-6-14-8-22-6z" style="fill: #{transparentize(_palette(accent-border), 0.75)}"/>
  <path d="M139 150c-2 0-6 4-6 5l3-1 5-4h-2zM1 154l1 8c1 5 4 10 7 10l9 11 7 10-2-4c-7-10-8-19-2-25l1-2c-3 0-8 10-7 14v-1l-6-6c-4-5-6-9-4-10l4 2c3 3 4 6 2 6v2c2 2 2 2 3 1 3-5 0-10-9-15-4-2-5-3-5-1zm149-1v2c3 2 4 8 3 12v3c3-2 2-16-1-16l-1-1h-1zm18 5 4 5c5 7 7 12 8 19 0 9-3 16-10 25-9 9-8 9 1 1 7-6 11-15 11-23 0-5 2-9 5-9 4 0 6-2 9-9l3-6c1-2-14 4-15 6-2 2-3 6-1 7v3c-1 2-1 2-3-2-1-5-7-14-10-16l-2-1zm24 9c0 3-4 6-5 6-2-1-2-1-1-3l3-3 3-1v1zm-94 11c-4 6-4 11-1 14v3l-4 1c-5 0-14 5-14 7l2-1c3-2 7-4 10-4l5-1h5c2 3 16 11 19 11 4 1 1-2-9-7l-11-7c-3-5-2-16 1-12v12l2-2c2-2 2-6 0-15l-2-5-3 6z" style="fill: #{transparentize(_palette(accent-border), 0.75)}"/>
  <path d="m205 184-9 12c-2 2-2 7 0 11l3 3 4-6h-2c-3 1-3-3 0-8l3-4c1 0 3 5 3 8l-2 4-3 4-8 6c-5 2-6 2-18 2l-14 2 7 1c18 0 31 6 36 17 3 6 4 11 1 7-2-4-5-5-9-4l-3 2-2 2c-3 0-3 0-3-2 0-1 2-2 5-2 6-1 7-4 3-5-6-2-12 3-17 13-1 2-1 2 1 1l8-1c8 0 11-2 11-6 0-2 0-2 2-1 6 4 8 14 4 23-5 9-14 16-26 18-9 2-30 1-41-2l-18-7c0-2 3-6 7-11s5-12 3-16l-7-6c-1 1 0 7 2 7 3 1 3 8-1 13l-4 4c-2-1-5-11-4-13 1-3 3-6 4-5 1 0 2-1 2-4 0-4-1-5-4-8-2-1-3-3-2-3l10 5 10 5-1 5c0 7 1 12 6 17 3 4 10 8 11 8 2 0-3-7-6-8l-5-6c-2-5-3-10-1-10l7 3 8 3c0-1-21-15-28-18-4-3-5-3-3-5h4c8 3 20 0 27-7l4-4-3 1h-4l-3 2c-2 4-9 6-16 5-2 0-1-2 1-5l3-3c2-3-3 0-10 7-5 5-7 6-8 5l-3-1c-1 1-3 0-4-2-2-3-6-4-8-1l-3 1s0-2 3-5c4-5 3-7-3-10-4-2-4-2-3 0l1 5 3 4v2l-1-1-4-1h-2v-4c-1-3-2-3-7-3l-7-1h-1l3 3c2 0 4 2 4 4l3 3c2 0 3 4 2 5-2 3-1 6 3 9s4 3 4-4l-3-5-3-3 4-1c4 0 4 0 3 2-2 1-2 1 0 3l3 4 2 2 4-1c5-2 7-2 10 2v3c-4 2-7 6-7 9-1 4 0 9 1 8l1 2 2 7 1 9 1 3 7 1c12 5 27 7 40 7s14 0 2 2c-9 1-18 0-34-4l3 1c11 5 25 6 36 4l15-7c15-8 22-18 22-33 0-13-7-24-20-28-4-2-4-2 16-4 19-2 21-2 24-1 4 2 4 2 3 4-2 4 0 8 7 12l6 6c1 4 2 1 1-8 0-9-1-9-3-12-3-2-6-3-7-1l2 4c4 2 6 7 3 8-2 0-5-4-4-6 0-2-5-8-8-8l4-1c5-1 11 0 16 2 2 1 3 2 3 4 0 3 2 6 5 8l22 1-3-1-6-7c-3-5-7-7-12-7-5 1-5 3 0 4 4 0 9 4 9 6-1 2-7 1-9-1l-1-2c1-2-10-8-12-8s-2-1 1-2l4-1c2 2 7 1 11-1l5-6 4-7c2-3 2-4-1-2l-9 2c-5 1-7 1-9 4l-3 6c1 3 1 3-4 4-6 2-15 3-14 2l2-1c4 0 6-3 7-8l1-7c0-1-1-1-3 1l-6 5-3 4c0 3 1 4 3 3 1-1 1-1 0 0s-2 3-4 3a275 275 0 0 1-34 4l4-2 5-2 5-3c4-4 4-8 1-16a24 24 0 0 1-2-12l-2 4zm58 16c0 2-3 5-5 5-1-1-3 0-5 1l-2 1 2-2 2-3 2-2h6zM48 185c-7 2-15 9-15 11l5-3c13-10 26-11 34-2 6 7 5 19-3 25-4 2-8 3-12 0l-4-1 2 2c3 3 11 3 16 0 4-3 7-10 7-16-2-13-16-21-30-16z" style="fill: #{transparentize(_palette(accent-border), 0.75)}"/>
  <path d="M170 193c-2 3-8 4-15 4-8 0-13 2-16 5-2 4-1 4 4 1l11-2 7 1c1 1-4 9-6 12-4 3-4 4-1 4s7-4 10-11l5-10c4-4 4-5 3-5l-2 1z" style="fill: #{transparentize(_palette(accent-border), 0.75)}"/>
  <path d="M137 199c-5 3-11 7-13 11v14c1 1 2 0 6-4 6-5 6-6 1-4-4 2-4 2-4 0 0-4 5-11 8-11l4-4 2-4-4 2zm-71 5c-1 3-1 3 2 3 4 1 7-1 6-3-1-3-7-3-8 0zm224 15c-1 4 0 7 3 9 2 1 3 1 4-1 2-2 1-4-3-8l-4-4-1 4zm-81 2c-2 1-3 3-3 5v2l2-3c2-3 3-3 6-3 14 0 15 21 2 33l-6 7-2 3 4-3c9-7 16-19 16-27 0-5-4-12-8-14-4-3-8-2-11 0zm-141 1c-17 3-34 12-39 20-2 5-1 5 2 1 6-8 20-15 40-20 12-3 10-4-3-1zm39-1c-1 1 1 2 7 2 8 0 8 0 7-1-2-2-12-3-14-1zm-29 4c-8 2-17 6-22 11-5 6-4 7 2 2s14-9 24-11l10-2v-1c-1-1-7-1-14 1z" style="fill: #{transparentize(_palette(accent-border), 0.75)}"/>
  <path d="M54 231c-11 5-21 14-27 25-3 7-7 19-6 20v-1l13-14c3-1 3-1 7 1 7 3 15 2 20-2l3-2-3 1-2-1 2-1 5-3 6-5 1-1-10-3c-7-2-9-2-11-1h-2c2-3-7 1-10 4l-3 6c0 3 0 3 2 3l3-2 2-2c-1-1 0-2 1-4l9-1 8 2 1 1-5 5c-4 3-6 4-9 4-4 0-5-1-4-3l-6 1c-5 1-10 5-14 9l-2 3 2-5c6-15 16-25 29-31l7-4-7 1zm161 2-1 7c0 3 1 3 4 4 3 0 3 0 3-3 0-2-1-5-3-7l-3-4-1 3zm64-1c-6 2-11 8-11 12-1 3-2 4-9 8l-11 6c-2 3-1 2 4 0l15-8v2c0 6 5 13 11 16 7 4 21 2 22-3 0-2 0-2-3 0-7 5-19 3-24-4-4-4-5-12-3-12l4-1 2 1c0 2 0 3 3 4 4 3 7 2 13-1l6-3c3 0 2-1-4-5-7-5-13-5-17-2-2 2-3 4-1 4l4 1h3c-2-2-1-3 2-3l6 3-2 2h-9l-9-2c-2 1-3-1-1-5 5-9 19-13 27-7l3 1c0-3-8-6-13-6l-8 2zM0 233l3 13 4 8c0-4-3-14-5-19-2-4-2-4-2-2zm70 0c5 3 9 7 11 11 1 4 3 5 3 3 0-5-9-15-13-15-2 0-2 0-1 1zm75 1-5 2c-2 2-2 2 4 5l9 6c6 5 5 2-1-4s-6-7 3-6l8 5 5 4 3 2 4 1-5-6c-7-8-17-12-25-9zm88 6c-6 3-7 8-1 7 2 0 3-2 4-4l2-4-5 1z" style="fill: #{transparentize(_palette(accent-border), 0.75)}"/>
  <path d="m166 248 3 4c4 4 7 11 7 15 0 2-14 1-20-3l-5-2 1 3c2 4 5 5 14 6 4 1 10 2 13 4l7 2-3-4-4-11c-3-8-5-11-10-14h-3zm-89 3c-5 1-12 6-12 7l7-3c7-3 16-5 21-4 6 1 14 5 17 9l3 4c1-2-6-10-11-12-4-3-6-3-13-3l-13 2zm149 0v1c2 0 8 5 6 5l-2-2c-3-3-6-3-6 0s3 6 8 6l6 1 3 2-6 4c-11 5-22 10-33 12-14 3-17 4-10 3 14-1 34-8 46-16l7-3c1 0 1-4-1-7-1-3-5-7-7-7-1 0 0 2 2 3 4 5 5 8 4 9-1 2-5-1-6-5 0-3-5-8-8-8l-3 2zM0 255l2 4v7c-2 2-2 3 0 4 2 2 2 12 0 19l-2 6 3-7c2-6 3-13 1-16-1-1 0-2 1-3 3-3 3-8-1-13-3-5-4-5-4-1z" style="fill: #{transparentize(_palette(accent-border), 0.75)}"/>
  <path d="m83 255-2 5c0 2 0 2 1 1 2-2 4-9 2-9l-1 3zm-17 8c-7 1-19 6-19 7l8-2 16-4c8-1 11-3 4-3l-9 1zm181 1 1 2h2l3 2c1 2 1 2-2 2-2 0-4-1-5-3s-3-2-3 0c0 3 3 5 9 6l8 2v-2l-2-4-4-4c-4-3-8-4-7-1zm-49 1-13 4 8-1c10-3 14-5 5-3zm-159 6c-6 4-8 6-4 4l11-9-7 5zm62 5c-4 6-11 9-17 6l-3-1 4 2c4 2 9 2 12 0s6-8 6-9l-2 2zm149 1-2 5v2c2 0 3-4 3-7l-1-4v4zm-201 2-4 4 8 1c5-1 7-8 2-9-2 0-4 1-6 4z" style="fill: #{transparentize(_palette(accent-border), 0.75)}"/>
</svg>