<?xml version="1.0" encoding="utf-8"?>
<svg viewBox="0 0 964 1006" xmlns="http://www.w3.org/2000/svg">
  <ellipse style="stroke: rgb(0, 0, 0); fill: rgb(255, 240, 207);" cx="476.064" cy="495.37" rx="343.173" ry="343.173" transform="matrix(1, 0, 0, 1, -5.684341886080802e-14, 0)"/>
  <g fill="none" fill-rule="evenodd" transform="matrix(1, 0, 0, 1, -5.684341886080802e-14, 0)">
    <g fill="#FED579">
      <path d="M307.094 530.912c-35.572-21.909-40.179-45.715-13.822-71.42 26.358-25.705 37.355-3.771 32.992 65.8l-19.17 5.62Zm351.243 8c35.649-21.956 40.266-45.815 13.851-71.575-26.414-25.76-37.435-3.78-33.063 65.943l19.212 5.632ZM323.298 390.148c-11.23-32.054-13.544-51.585-6.94-58.593 6.604-7.008 32.128-7.757 76.571-2.246l-52.321 76.282-17.31-15.443Zm107.643-90.84c20.126-22.508 38.592-33.762 55.4-33.762 16.807 0 35.197 11.254 55.17 33.762h-110.57Zm211.688 90.903c11.243-32.085 13.558-51.635 6.948-58.65-6.611-7.015-32.16-7.765-76.648-2.249l52.374 76.358 17.326-15.459Zm-232.98-60.902c-11.556 19.828-18.653 37.776-21.292 53.842-3.959 24.1-7.918 86.176-3.959 95.766 3.959 9.59 6.592 43.293 60.537 43.293 13.218 0 4.178 5.229 2.248 10.542-1.056 2.908-1.784 8.386-2.183 16.435-31.61 9.006-52.87 3.527-63.779-16.435-16.363-29.943-44.502-119.275-24.855-146.931 13.099-18.438 30.86-37.275 53.283-56.512Z"/>
      <path d="M558.811 329.309c11.139 19.113 17.98 36.414 20.524 51.9 3.816 23.231 7.632 83.07 3.816 92.315-3.816 9.245-6.355 41.731-58.354 41.731-12.742 0-4.028 5.041-2.167 10.163 1.018 2.803 1.719 8.084 2.104 15.842 30.47 8.681 50.964 3.4 61.48-15.842 15.773-28.864 42.898-114.976 23.958-141.635-12.626-17.772-29.747-35.93-51.361-54.474ZM168.579 750.291c-22.738 22.775-36.246 41.727-40.524 56.855-4.28 15.128 5.329 10.015 28.823-15.34 59.888-14.563 98.334-12.594 115.338 5.907 17.005 18.5 89.32 47.475 216.948 86.923l289.54-106.92 60.225 28.93c-9.966-21.746-23.626-40.53-40.979-56.355-17.352-15.823-25.83-38.55-25.435-68.178-27.93 16.54-44.396 24.81-49.398 24.81-7.502 0-76.869-7.95-94.766 9.819-17.898 17.769-46.303 19.815-53.7 17.769-7.398-2.047-5.989-21.181-27.346-17.254-21.356 3.927-14.567 17.825-14.567 17.825s21.75 13.22 7.48 15.21c-14.27 1.988-106.997-9.198-113.387-9.198-6.39 0 21.534-20.417 14.7-20.417s-43.417-7.7-43.417 0-3.697 18.063-7.998 20.417c-4.302 2.353-26.877 5.953-32.63-3.881-5.755-9.834-20.615-42.505-47.045-39.13-26.43 3.376-62.283 1.907-65.712 0-3.43-1.907-26.3-23.9-32.53-40.083-4.154-10.789-18.694 19.975-43.62 92.291Zm16.269-373.294c-2.404 26.264-2.146 41.997.773 47.2 4.378 7.803-41.052 21.257-41.052 21.257s2.281 22.21 14.148 22.21c7.91 0 10.414 2.905 7.51 8.717 9.564 23.02 15.77 35.952 18.62 38.799 2.851 2.847 10.453 7.467 22.805 13.863 4.674 38.387 5.441 57.932 2.3 58.637-25.104 5.631-2.69 53.066 0 56.3 3.888 4.677-18.641 9.35-67.588 14.02L94.751 450.762l54.215-102.467 35.882 28.702Zm596.847-3.158c2.39 26.12 2.135 41.766-.768 46.94-4.355 7.76 40.826 21.14 40.826 21.14s-2.27 22.087-14.07 22.087c-7.868 0-10.357 2.89-7.469 8.67-9.511 22.893-15.684 35.755-18.519 38.586-2.834 2.83-10.394 7.426-22.678 13.786-4.649 38.176-5.411 57.614-2.288 58.315 24.966 5.6 2.675 52.774 0 55.99-3.866 4.65 18.539 9.298 67.216 13.942l47.351-206.096-53.917-101.903-35.684 28.544Zm-372.046-44.53c-11.556 19.828-18.653 37.776-21.292 53.842-3.959 24.1-7.918 86.176-3.959 95.766 3.959 9.59 6.592 43.293 60.537 43.293 13.218 0 4.178 5.229 2.248 10.542-1.056 2.908-1.784 8.386-2.183 16.435-31.61 9.006-52.87 3.527-63.779-16.435-16.363-29.943-44.502-119.275-24.855-146.931 13.099-18.438 30.86-37.275 53.283-56.512Z"/>
      <path d="M175.024 246.607c-27.25-31.499-41.77-50.233-45.527-64.466-2.505-9.49 7.292-1.804 29.391 23.055 57.306 8.34 94.47 3.248 111.495-15.274 17.024-18.522 89.423-47.53 217.196-87.023l283.677 114.5 60.483-25.081c-5.153 20.35-16.415 38.446-33.788 54.288-17.373 15.842-24.638 43.572-21.795 83.19-31.23-32.653-49.347-48.98-54.355-48.98-7.51 0-76.957 7.96-94.875-9.83-17.918-17.79-61.43-53.627-75.716-55.618-14.286-1.991-141.176 5.703-147.574 5.703-6.398 0-42.126 19.575-47.886 29.42-5.76 9.846-20.638 42.554-47.098 39.175-26.46-3.38-62.355-1.91-65.788 0-3.434 1.91-26.33 23.928-32.568 40.13-6.238 16.2-8.021-51.692-35.272-83.19Z"/>
    </g>
    <path d="M335.508 349.126c-9.567 14.18 8.682 42.102 9.675 59.817.993 17.714-1.02 16.772-4.575 31.18-3.556 14.408-10.922 15.586-24.25 32.953-13.329 17.368-13.329 21.655 6.94 39.871 20.27 18.216 21.805 7.014 44.4 28.885 15.062 14.581 30.728 26.542 46.997 35.884l26.408-12.488 3.831-16.872v-6.524c-30.795-4.29-50.974-13.174-60.536-26.651-14.344-20.217-19.54-54.02-19.54-69.726 0-15.706 0-28.413 4.785-44.262 4.786-15.848 25.012-49.531 20.578-52.897-2.16-1.64-13.329-16.543-20.578-11.478-7.249 5.064-29.227 5.036-34.135 12.308Zm-234.372 94.66c0 14.495 22.954 66.724 33.193 74.116 10.24 7.391 23.854 46.853 23.854 59.87 0 13.019-2.601 52.19 3.25 66.21 3.9 9.345-3.327 23.375-21.684 42.09l-22.843-24.794-22.639-107.122-12.385-41.209-53.359-11.01c35.863-13.231 55.787-22.852 59.77-28.86 3.983-6.01 10.374-42.535 19.175-109.576l22.362-30.704 28.353 30.704c-14.882 20.881-22.323 35.032-22.323 42.45 0 11.13-34.724 23.34-34.724 37.835Zm764.597 2.914c0 14.484-22.936 66.672-33.167 74.058-10.232 7.386-23.835 46.816-23.835 59.824 0 13.008 2.599 52.15-3.248 66.158-3.897 9.338 3.325 23.357 21.667 42.057l22.826-24.774 22.62-107.039 12.377-41.177 53.317-11.001c-35.836-13.221-55.743-22.834-59.723-28.839-3.98-6.005-10.367-42.501-19.16-109.49l-22.346-30.68-28.33 30.68c14.87 20.865 22.306 35.004 22.306 42.418 0 11.12 34.696 23.322 34.696 37.805Zm-230.347-97.571c9.57 14.183-8.684 42.112-9.677 59.83-.993 17.72 1.02 16.777 4.577 31.189 3.556 14.411 10.924 15.589 24.255 32.96 13.332 17.372 13.332 21.66-6.942 39.88-20.274 18.221-21.81 7.017-44.41 28.893-15.066 14.584-30.736 26.548-47.008 35.892l-26.415-12.49-3.832-16.877v-6.525c30.803-4.291 50.987-13.177 60.551-26.658 14.347-20.222 19.545-54.033 19.545-69.742 0-15.71 0-28.42-4.787-44.272-4.787-15.853-25.018-49.543-20.583-52.91 2.16-1.64 13.332-16.546 20.583-11.481 7.25 5.065 29.235 5.037 34.143 12.311Zm-328.293-140.89c73.193-49.347 114.475-75.76 123.848-79.239 9.372-3.479 35.472 3.583 78.298 21.185l49.35-15.174 103.19 61.97-15.819-67.98-142.625-40.178-16.995-62.244-32.827 75.618L332.808 129l-39.536 50.013 13.821 29.225Zm44.638 509.018-41.29 89.389 3.244 59.702 146.94 45.484 24.27 59.403 29.784-71.926 66.624-9.206 70.96-23.755 107.468-84.338-31.103-49.243c-25.438 15.403-44.526 25.193-57.261 29.37-12.736 4.177-28.43-3.128-47.082-21.913L607.817 754l-26.514 50.101-13.482-15.463c-21.604 8.175-36.768 12.795-45.494 13.862-13.088 1.601.7 45.729-7.648 54.604-8.348 8.874-38.012 4.272-48.223-5.625-6.807-6.599-11.4-22.391-13.78-47.378-25.495-6.646-41.887-8.926-49.177-6.84-7.29 2.088-18.868-6.451-34.734-25.616l-17.034-54.388Z" fill="#FA9B00"/>
    <path d="M480.569 9.362c-5.44 19.328-9.125 30.35-21.778 65.138-2.853 7.844-3.993 9.5-6.54 9.5-12.524 0-61.25 11.032-88.11 19.949-54.595 18.125-104.181 46.699-148.647 85.66-23.782 20.837-21.99 19.909-31.494 16.304-20.235-7.676-36.827-19.701-51.23-37.132-10.318-12.487-12.003-11.36-7.05 4.719 8.155 26.468 19.662 37.382 58.28 55.279 21.575 9.998 32.689 23.495 42.59 51.72 10.807 30.813 27.488 44.32 67.91 54.989 15.664 4.134 24.244 7.274 31.574 11.555 3.726 2.176 7.073 3.957 7.438 3.957 1.803 0-1.312-9.761-6.543-20.5-3.214-6.6-7.498-16.95-9.52-23-11.183-33.47-28.676-50.185-79.45-75.918-17.091-8.662-16.855-8.843 7.799-6.004 53.464 6.158 84.147 27.629 95.632 66.922 1.588 5.434 5.002 15.414 7.813 22.84 1.807 4.775 8.695 14.9 13.5 19.845l4.554 4.685-5.948 6.49c-3.271 3.57-9.525 11.71-13.898 18.089-9.618 14.03-9.211 13.372-10.486 16.956l-1.033 2.904-2.716-2.531c-10.7-9.97-26.42-17.39-47.216-22.288-46.761-11.013-72.623-33.156-86.418-73.99-9.211-27.264-27.115-51.502-32.773-44.37-26.578 33.504-51.757 78.038-65.397 115.668-7.665 21.145-14.028 41.988-16.33 53.49-.463 2.317-1.762 8.712-2.887 14.212-5.01 24.486-7.108 38.17-7.164 46.699-.07 10.657-37.466 25.329-71.522 28.06-3.916.315-4.37 2.889-.782 4.443 21.98 9.525 29.466 12.157 43.273 15.212C61.95 522.443 65.154 523 69.517 523c5.508 0 5.068-1.121 6.47 16.5 1.87 23.498 5.793 44.094 14.444 75.843 10.028 36.803 34.126 86.634 62.006 128.218 8.666 12.926 9.916 13.828 13.639 9.844 3.236-3.464 13.695-9.602 22.924-13.453 17.595-7.342 23.917-8.274 57-8.405l27.5-.108 7.468-2.845c17.478-6.657 28.189-19.04 35.547-41.094 3.742-11.214 8.33-22.053 11.923-28.165C342.381 635.618 343 635.044 343 645.851c0 3.768.4 8.155.89 9.75.492 1.594 1.69 6.724 2.667 11.399.976 4.675 2.157 9.27 2.624 10.213.589 1.187-.23 4.047-2.666 9.323-1.933 4.185-3.515 7.794-3.515 8.02 0 .225-2.036 4.652-4.525 9.837-21.256 44.284-50.7 59.084-106.321 53.445-26.27-2.663-49.81 4.23-76.456 22.393-23.762 16.196-35.698 35.6-35.698 58.036 0 5.586 1.387 4.595 9.676-6.914 15.145-21.03 33.08-33.781 54.669-38.872 10.353-2.441 11.186-2.221 18.038 4.769 49.343 50.34 109.652 85.816 180.638 106.258 20.397 5.874 53.183 12.979 65.557 14.207l5.078.504 3.172 7.013c1.745 3.857 3.172 7.542 3.172 8.19 0 .648.399 1.606.886 2.128 1.399 1.5 8.297 22.477 19.795 60.199 2.495 8.184 5.319 12.257 5.319 7.67 0-.87 1.62-6.832 3.6-13.25s3.969-13.02 4.417-14.67c1.91-7.02 7.165-22.051 12.76-36.5 8.403-21.69 8.025-21 11.518-21 17.67 0 63.784-11.445 106.705-26.484 45.023-15.777 97.04-49.598 139.302-90.572 11.936-11.573 12.775-11.757 27.198-5.983 1.1.44 4.025 1.61 6.5 2.598 13.455 5.375 30.417 19.6 41.449 34.764 7.609 10.457 8.55 10.877 8.55 3.807 0-23.673-15.665-44.418-43.5-57.604-5.5-2.605-13.651-6.473-18.114-8.595-22.51-10.701-33.001-22.85-41.38-47.913-9.91-29.645-19.897-40.576-48.005-52.537-42.771-18.202-61.971-39.062-71.317-77.48a5061.232 5061.232 0 0 0-4.736-19.187c-3.433-13.803-3.535-17.086-.35-11.137 22.568 42.127 46.352 66.14 80.403 81.177l9.5 4.196c1.1.486 4.635 2.02 7.855 3.409 25.218 10.876 39.366 27.697 49.658 59.042 6.118 18.633 9.683 25.1 20.148 36.56 6.17 6.756 18.45 15.695 17.244 12.554-.292-.763 2.11-4.925 5.342-9.25 22.367-29.948 39.51-60.17 51.54-90.864 5.266-13.437 10.262-27.31 12.062-33.5l4.074-14c7.249-24.91 11.43-49.304 13.124-76.572l.687-11.072 7.133-1.146c3.923-.631 9.383-1.403 12.133-1.715 29.663-3.37 64.582-19.727 47.5-22.251-21.98-3.247-38.387-7.981-55.135-15.906l-9.787-4.632-.988-5.103c-.543-2.807-1.73-10.953-2.637-18.103-3.171-24.978-6.734-43.178-12.042-61.5-1.354-4.675-3.174-10.975-4.045-14-12.567-43.644-49.258-113.365-70.154-133.307l-2.941-2.808-4.524 3.053c-17.158 11.58-29.896 13.986-60.247 11.38-51.006-4.38-70.733 6.8-85.023 48.182-1.52 4.4-4.734 12.346-7.144 17.658C640.485 331.64 634 349.846 634 352.166c0 .458 2.59-1.18 5.756-3.638 7.132-5.538 14.775-8.69 31.633-13.042 21.26-5.49 27.66-7.675 36.096-12.327 15.562-8.582 26.608-18.976 35.47-33.38l5.055-8.212 7.745.258c4.26.14 9.2-.178 10.982-.71 4.299-1.285 4.589-.44 2.273 6.617-12.396 37.76-42.006 62.337-87.01 72.219-21.677 4.759-32.84 9.497-42.084 17.863-6.484 5.868-6.441 5.867-9.411.213-4.094-7.792-15.6-23.767-22.522-31.275l-7.146-7.748 6.098-6.752c7.37-8.163 12.32-17.91 18.443-36.315 16.196-48.69 51.929-70.797 104.122-64.418 42.518 5.197 61.407 1.667 85.426-15.964C828.68 205.458 845 176.262 845 161.753c0-4.112-1.227-3.431-7.253 4.027-15.533 19.225-33.132 32.284-52.957 39.294-10.78 3.812-10.897 3.797-16.5-2.203C725.779 157.351 643.722 111.24 573 93.127c-15.27-3.911-19.72-4.733-41.5-7.668-16.582-2.234-16.09-2.052-18.295-6.771-6.425-13.751-13.927-34.733-24.812-69.401-3.775-12.022-4.421-12.016-7.824.075m4.159 37.269c-.301.486-.862 2.68-1.248 4.877-2.018 11.479-10.537 38.263-20.196 63.492-17.395 45.44-15.455 64.642 10.948 108.357 9.79 16.21 13.768 24.35 13.768 28.172 0 3.639 1.749 3.007 3.54-1.28 4.61-11.027 4.046-24.005-1.985-45.581-6.59-23.58-8.402-48.047-4.528-61.168.649-2.2 2.25-7.6 3.559-12 7.18-24.156 8.624-36.951 6.009-53.278-2.163-13.513-8.501-33.802-9.867-31.591M514 112.217c0 2.869-.73 7.124-1.62 9.455-1.617 4.238-1.617 4.24 1.357 8.034 29.352 37.438 24.41 99.117-10.773 134.464-31.304 31.448-73.873-24.317-73.947-96.871-.015-15.15.393-19.904 2.592-30.224 1.169-5.485-2.607.365-7.088 10.98-19.33 45.795-16.797 86.595 7.38 118.945 7.035 9.41 15.099 23.986 15.099 27.287 0 2.057.029 2.058 12 .213 11.444-1.764 35.36-1.937 47.026-.341 14.576 1.995 13.7 2.266 16.683-5.16 3.106-7.73 5.246-11.27 14.813-24.5 31.324-43.32 24.498-110.692-15.375-151.75-7.023-7.23-8.147-7.303-8.147-.532m-179.421 25.872c-22.931 27.252-10.45 79.025 33.34 138.302 6.509 8.81 17.757 28.362 21.128 36.727l3.195 7.925 3.129-2.05c1.72-1.126 6.054-3.696 9.629-5.712 8.305-4.681 8.228-4.518 5.29-11.16-14.34-32.43-23.337-47.985-38.821-67.121-30.29-37.433-38.738-61.893-30.915-89.5 3.095-10.925.103-14.635-5.975-7.411m291.42-.83c0 1.31.665 4.377 1.476 6.813 8.696 26.102 1.523 47.454-29.538 87.928-19.854 25.87-29.171 42.016-37.317 64.668-4.474 12.437-4.5 11.845.63 14.45 2.337 1.188 6.638 3.683 9.557 5.545 6.093 3.886 6.737 3.743 8.24-1.836 2.583-9.596 14.28-30.843 26.88-48.827 35.313-50.4 46.185-86.571 35.004-116.454-4.22-11.28-14.931-20.095-14.931-12.287M465 320.501c-58.394 9.158-101.513 50.266-117.431 111.954-3.634 14.08-3.525 14.427 3.2 10.2 52.762-33.148 97.194-33.097 113.01.13l2.72 5.715-.061 41.762c-.068 46.428.17 44.847-6.49 43.07-5.742-1.533-8.448.725-8.448 7.052 0 6.67 2.92 9.406 8.317 7.789 5.877-1.761 7.522-1.483 12.993 2.199 8.33 5.607 16.242 5.647 22.628.116 3.94-3.411 6.954-4.022 12.649-2.562 7.27 1.863 10.913-.904 10.913-8.29 0-5.446-2.241-6.98-9.07-6.208l-5.71.646-.7-18.287c-.383-10.058-.545-29.537-.36-43.287l.34-25 3.31-6.5c13.006-25.534 50.97-30.753 85.69-11.781 13.329 7.283 29.506 15.109 30.069 14.546.68-.681-1.231-15.032-2.565-19.261-.522-1.652-1.668-5.48-2.548-8.504-17.635-60.656-89.118-105.433-152.456-95.5m-338.393 30.082c-6.29 16.39 22.705 48.719 53.143 59.252 12.735 4.408 21.773 5.268 48.25 4.594 38.809-.988 59.042 4.288 80.472 20.984 7.214 5.62 8.528 5.977 8.528 2.313 0-1.186.954-6.612 2.12-12.058l2.12-9.901-2.87-2.394c-28.748-23.98-42.27-26.901-109.87-23.736-32.995 1.545-60.06-10.667-73.125-32.994-4.555-7.783-7.362-9.723-8.768-6.06m709.735 1.168c-1.391 1.512-4.85 6.097-7.686 10.188-8.524 12.295-21.72 20.838-39.854 25.802-7.315 2.002-31.856 2.343-62.802.872-29.51-1.402-46.241 3.283-68.21 19.1-11.36 8.18-11.286 8.066-9.431 14.468.849 2.926 1.852 8.358 2.23 12.07.79 7.77 1.093 7.935 6.17 3.348 19.195-17.341 46.576-24.962 82.48-22.956 47.375 2.647 82.044-13.232 100.06-45.828 6.894-12.474 4.664-25.347-2.957-17.064m-435.64 89.748c-18.76 5.158-16.381 7.275 8.798 7.83 9.35.206 18.012.719 19.25 1.14 3.072 1.045 2.9-.755-.428-4.491-4.841-5.433-16.987-7.403-27.62-4.48m145.798.36c-10.888 5.146-11.388 9.196-1 8.097 4.4-.465 13.4-.877 20-.915 13.916-.081 16.21-.833 11.326-3.712-8.37-4.933-23.553-6.67-30.326-3.47M153 450.006c-20.058 1.344-34.843 7.614-64 27.14-18.928 12.675-27.83 17.784-36.302 20.833-6.79 2.444-6.112 3.362 3.436 4.647 23.288 3.134 45.38-2.294 66.366-16.306 14.267-9.527 48.017-29.27 54.285-31.756 3.143-1.246 6.615-2.621 7.715-3.053 5.547-2.181-10.197-2.933-31.5-1.505m641.5.428c-.55.22-2.687.684-4.75 1.029-4.571.765-4.82 2.268-.615 3.734 7.927 2.763 24.578 11.812 43.067 23.405 35.87 22.49 52.968 27.587 83.026 24.748l6.727-.635-11.993-5.813c-6.596-3.198-16.52-8.871-22.053-12.608-41.172-27.805-53.762-33.213-78.91-33.896-7.424-.202-13.95-.185-14.5.036m-449.232 7.217C334.912 478.708 364.957 540.5 395 559.933c16.549 10.704 21.289 11.689 26.002 5.399 2.606-3.478 5.712-5.85 12.182-9.298 6.823-3.64 8.487-4.941 7.765-6.082-2.623-4.146-.061-24.427 3.925-31.074 9.53-15.891 1.449-44.127-10.762-37.602-8.266 4.417-16.74 7.688-19.981 7.713-.752.006.719-2.127 3.269-4.74 11.755-12.04 10.922-14.835-4.625-15.51-11.131-.484-15.286-1.216-21.275-3.75-1.1-.465-4.25-1.503-7-2.305-22.194-6.477-37.554-8.447-39.233-5.033m266.65-1.246c-.23.222-3.383.688-7.007 1.035-3.625.347-13.75 2.895-22.5 5.663-17.935 5.674-17.696 5.627-29.66 5.783-8.117.106-8.75.262-8.75 2.164 0 4.376 4.638 10.197 12.024 15.09 3.807 2.523 1.719 3.228-4.713 1.592-6.511-1.657-13.96-4.913-19.534-8.54-2.612-1.7-4.477-2.233-6.25-1.788l-2.527.634v20.28c0 11.156.376 20.71.835 21.232 2.985 3.397 4.662 11.417 4.664 22.293v11.343l3.842 1.32c4.543 1.562 12.34 7.884 15.159 12.29 4.367 6.827 22.526-2.06 41.375-20.25 21.897-21.13 32.277-45.273 34.736-80.796l.675-9.75h-5.976c-3.287 0-6.164.182-6.393.405m-386.882 3.647c-18.17 3.94-40.051 13.603-59.035 26.072C152.595 494.929 146.022 499 145.213 499c-.412 0-2.498 1.188-4.635 2.64l-3.887 2.642 2.873 1.505c11.262 5.9 33.844 2.832 58.232-7.913 7.312-3.223 14.512-6.15 16-6.504 1.487-.355 3.154-.974 3.704-1.376 4.29-3.134 32.876-4.51 43.5-2.094 10 2.274 21.029 7.185 26.832 11.948l3.332 2.734-6.897.063c-9.692.089-20.246 5.87-35.267 19.323-36.16 32.38-82.496 31.79-125.047-1.592l-5.547-4.352-5.425 1.983c-2.984 1.09-8.263 2.274-11.731 2.629-8.22.842-8.342 1.32-2.058 8.02 51.495 54.915 125.132 58.232 174.777 7.876 15.779-16.005 25.932-22.162 40.413-24.51 7.399-1.2 6.978-.298 4.728-10.122-1.06-4.62-2.218-12-2.577-16.4-.783-9.608-.865-9.705-9.33-11.121-3.686-.617-12.778-3.634-20.203-6.704-22.01-9.102-43.151-11.703-61.965-7.623m483.576-1.016c-8.582 1.35-17.6 4.134-30.611 9.45-13.75 5.619-19.551 7.489-23.281 7.503-3.317.013-3.23-.236-4.55 13.01-.575 5.776-1.524 12.713-2.108 15.417-1.295 5.992-1.978 5.363 8.26 7.6 14.306 3.126 21.397 7.728 40.179 26.074 25.199 24.612 49.458 35.483 74.5 33.383 1.925-.161 7.325-.6 12-.975 27.117-2.175 54.306-14.036 76.794-33.501 13.268-11.483 15.539-15.911 8.206-15.995-1.375-.016-6.187-1.312-10.693-2.881l-8.193-2.852-7.256 5.914c-39.84 32.472-88.033 32.087-125.583-1.002-12.241-10.786-21.845-16.123-33.525-18.63-4.235-.908-3.411-1.853 5.5-6.304 13.868-6.928 21.139-8.635 36.75-8.63 17.2.007 19.818.704 42.5 11.325 12.739 5.965 12.532 5.874 17.5 7.677 6.914 2.508 37.1 3.204 42.427.977 4.488-1.876 4.352-2.105-3.927-6.634-7.465-4.083-20.976-12.49-25.094-15.614-1.702-1.292-3.382-2.348-3.733-2.348s-3.458-1.721-6.905-3.824c-24.647-15.04-56.41-22.72-79.157-19.14m-381.12 79.739c-25.31 23.523-30.813 27.858-48.007 37.819-12.184 7.059-26.074 12.753-39.886 16.352-10.116 2.635-16.456 3.858-37.098 7.155-27.414 4.38-37.254 7.945-55.084 19.962-13.085 8.818-21.348 20.789-22.218 32.187l-.438 5.75h2.975c2.517 0 3.647-.962 7.339-6.25 14.316-20.503 27.262-25.971 65.704-27.751 21.899-1.014 34.553-2.324 42.459-4.398 48.495-12.72 75.884-34.581 86.15-68.766 4.959-16.512 4.696-18.185-1.895-12.06M636.6 537.75c12.886 55.556 54.86 82.197 135.9 86.257 34.935 1.75 48.398 7.699 61.676 27.252 6.297 9.272 9.194 8.802 8.563-1.39-1.475-23.793-39.753-46.721-85.74-51.356-11.852-1.195-34.085-6.833-46.373-11.761-18.292-7.336-36.318-19.388-57.126-38.194-15.521-14.028-18.017-15.624-16.9-10.808m-290.212 29.5c-25.316 42.112-50.17 65.192-84.18 78.17-25.491 9.728-42.81 23.87-53.591 43.76-12.366 22.818-12.455 23.629-2.284 20.8 3.759-1.045 9.609-2.202 13-2.571 8.072-.88 8.664-1.25 14.029-8.768 10.075-14.118 21.952-22.551 43.297-30.741 38.315-14.7 57.78-36.87 68.844-78.4 8.065-30.281 8.232-34.472.885-22.25m29.002 2.529c-3.027 1.964-10.21 22.632-12.77 36.747-4.676 25.769.8 70.37 6.859 55.87 7.044-16.858 18.96-27.532 45.313-40.59 30.897-15.307 43.414-25.827 51.237-43.06 3.029-6.674 2.96-6.746-6.32-6.746-14.162 0-20.728 2.453-44.2 16.514-16.128 9.66-32.732 21.659-34.01 24.574-2.808 6.413-3.498 3.275-3.573-16.255-.081-21.021-.755-28.21-2.536-27.054m126.653 5.32c.167 13.088 17.126 28.12 49.457 43.843 26.942 13.1 36.434 21.359 47.427 41.257 3.538 6.403 4.586 6.865 5.907 2.603 4.046-13.051 4.757-46.124 1.308-60.802-3.531-15.028-4.131-17.02-7.1-23.566-5.403-11.918-6.904-8.31-7.137 17.169-.217 23.672.196 22.496-5.675 16.179-5.925-6.376-16.473-14.21-26.23-19.482-10.687-5.774-15.27-8.45-17.08-9.973-5.394-4.538-20.423-9.468-30.626-10.045L502 571.699l.043 3.4M481.5 609.926c-21.174 1.52-19.53 10.87 2 11.367 19.245.443 26.782-5.896 12.204-10.264-5.807-1.74-5.585-1.722-14.204-1.103m-31.062 15.762c-4.982 4.367-12.362 8.69-26.938 15.783-16.974 8.259-23.056 12.053-29.012 18.094-27.767 28.166-33.8 75.468-14.443 113.238 7.327 14.296 11.408 17.815 8.926 7.697-12.02-48.991 1.413-86.775 38.832-109.237 27.627-16.583 38.839-32.621 29.697-42.48-1.375-1.482-2.5-3.14-2.5-3.68 0-2.105-1.75-1.88-4.562.585m61.609 3.079c-7.66 10.399.692 25.213 20.953 37.168 4.125 2.433 10.2 6.023 13.5 7.976 18.429 10.909 33.195 34.032 36.319 56.876 1.724 12.604-.961 46.886-4.343 55.463-3.327 8.436 7.899-7.39 12.607-17.773 22.785-50.251 5.39-102.341-42.083-126.02-15.042-7.503-24.092-12.658-28.327-16.136-3.862-3.171-4.655-2.946-8.626 2.446m114.589 21.483c-.361 3.987-1.964 12.598-3.561 19.134l-2.904 11.883 2.857 6.117c1.572 3.364 4.06 9.04 5.53 12.616 17.457 42.469 52.336 66.916 100.692 70.575 10.797.816 10.969-.04 1-4.97-34.203-16.92-67.933-50.702-77.026-77.147-1.142-3.323-2.616-7.373-3.275-9a203.153 203.153 0 0 1-1.933-4.958c-3.198-8.7-17.664-31.5-19.985-31.5-.405 0-1.033 3.263-1.395 7.25m-145.944-4c-.745 1.237-4.755 7.65-8.91 14.25-12.05 19.138-13.15 22.129-14.347 39-1.295 18.25-7.745 34.508-20.186 50.882-12.932 17.02-16.423 22.163-19.763 29.118-18.172 37.838-10.558 73.262 23.359 108.682l10.655 11.127.62-7.904.62-7.905-6.307-13c-8.413-17.34-9.871-23.414-9.84-41 .045-23.556 3.527-32.694 24.96-65.5 10.233-15.662 18.634-31.443 21.5-40.386l2.208-6.886 3.329 11.58c4.767 16.582 9.254 25.037 24.537 46.228 20.734 28.75 26.813 65.354 16.834 101.363-3.46 12.482-1.507 12.183 8.688-1.33 30.395-40.29 29.533-74.913-2.941-118.07C517.807 732.711 512 718.475 512 698.382c0-13.23-1.61-16.964-18.384-42.632-8.085-12.373-10.241-13.958-12.924-9.5m-51.961 47.105c-18.058 18.017-25.502 36.28-23.273 57.097.84 7.843.736 7.847 7.65-.318 19.269-22.751 24.163-33.226 25.576-54.738.789-12.002.16-12.131-9.953-2.041m101.99 1.395c.695 21.516 4.765 30.933 22.007 50.916 12.06 13.978 11.588 14.08 11.055-2.404-.694-21.471-6.297-33.891-22.561-50.01-10.747-10.65-10.891-10.63-10.5 1.498m-181.34 47.964c-.615 1.532-2.11 6.386-3.32 10.786-1.211 4.4-5.99 17.52-10.621 29.158-13.981 35.138-15.785 50.249-8.408 70.433 6.093 16.669 16.56 18.884 12.352 2.614-6.292-24.325-.505-44.975 16.557-59.074l5.882-4.861-2.534-6.635c-4.688-12.273-7.158-23.44-8.17-36.921-.554-7.411-.738-7.992-1.738-5.5M619 747.669c0 7.623-6.054 30.317-10.587 39.689l-2.487 5.142 2.287 1.816c20.536 16.31 27.35 38.56 19.183 62.638-3.153 9.295 2.468 12.857 8.357 5.296 13.533-17.376 12.268-45.41-3.81-84.39-2.803-6.798-6.476-16.185-8.162-20.86-2.917-8.087-4.781-11.726-4.781-9.331m-140.424 27.83c.344 3.3 1.058 6.81 1.586 7.8 1.184 2.217 1.598 32.635.575 42.2-1.048 9.802-4.878 32.85-6.647 40-4.363 17.644-5.141 36.045-2.021 47.82 2.625 9.912 4.147 15.343 4.953 17.68.475 1.376 2.283 7.113 4.019 12.75 3.9 12.672 3.959 12.668 6.817-.5 1.284-5.912 2.7-12.324 3.149-14.25.448-1.924 1.493-6.65 2.32-10.5 1.36-6.318 4.154-17.2 8.346-32.5 12.602-46.001 7.695-71.066-22.448-114.655-1.072-1.55-1.176-.886-.65 4.156" fill="#281900"/>
  </g>
</svg>