<?xml version="1.0" encoding="UTF-8"?>
<svg width="964px" height="1006px" viewBox="0 0 964 1006" version="1.1" xmlns="http://www.w3.org/2000/svg" xmlns:xlink="http://www.w3.org/1999/xlink" style="background: #FBE7BA;">
    <title>Untitled</title>
    <g id="Page-1" stroke="none" stroke-width="1" fill="none" fill-rule="evenodd">
        <rect id="Rectangle" fill="#F9E7BC" x="0.5" y="0.5" width="963" height="1004"></rect>
        <g id="trace-(2)" transform="translate(0.2854, 0.2821)">
            <path d="M458.714643,130.658901 C458.714643,131.726901 458.290643,132.861901 457.772643,133.181901 C457.254643,133.502901 456.522643,135.891901 456.146643,138.490901 C455.769643,141.090901 455.109643,143.667901 454.678643,144.217901 C452.362643,147.174901 452.960643,176.802901 455.474643,183.596901 C456.222643,185.619901 456.319643,185.607901 461.855643,182.814901 C464.947643,181.255901 468.768643,179.726901 470.345643,179.417901 C478.654643,177.789901 480.150643,177.113901 480.827643,174.684901 C481.346643,172.822901 481.539643,173.367901 481.614643,176.908901 C481.669643,179.488901 482.224643,181.914901 482.848643,182.300901 C483.650643,182.795901 483.804643,182.005901 483.374643,179.609901 C481.960643,171.727901 481.460643,154.681901 482.521643,150.527901 C485.035643,140.679901 485.036643,135.167901 482.524643,134.978901 C481.270643,134.883901 480.108643,134.400901 479.943643,133.903901 C478.623643,129.944901 476.913643,129.181901 474.480643,131.467901 C471.578643,134.193901 469.018643,134.291901 465.776643,131.798901 C464.435643,130.768901 462.747643,130.151901 462.026643,130.428901 C461.304643,130.704901 460.714643,130.433901 460.714643,129.824901 C460.714643,129.215901 460.264643,128.717901 459.714643,128.717901 C459.164643,128.717901 458.714643,129.590901 458.714643,130.658901 M538.088643,140.249901 C538.489643,141.294901 537.808643,142.089901 535.945643,142.749901 C534.443643,143.282901 532.433643,144.168901 531.478643,144.717901 C530.523643,145.267901 528.799643,145.717901 527.648643,145.717901 C525.526643,145.717901 525.568643,150.426901 527.714643,153.217901 C528.477643,154.209901 529.878643,159.612901 531.862643,169.213901 C532.429643,171.960901 532.741643,181.710901 532.554643,190.880901 C532.367643,200.049901 532.399643,207.367901 532.624643,207.141901 C533.143643,206.621901 533.527643,202.032901 533.748643,193.717901 C533.968643,185.424901 534.414643,183.839901 536.511643,183.891901 C537.447643,183.914901 541.494643,183.827901 545.503643,183.698901 C554.489643,183.408901 553.704643,182.381901 554.831643,195.886901 C556.033643,210.299901 556.800643,212.290901 556.113643,199.217901 C555.259643,182.964901 552.878643,168.725901 549.759643,161.217901 C549.303643,160.117901 548.047643,156.967901 546.969643,154.217901 C543.059643,144.240901 540.186643,138.757901 538.857643,138.737726 C538.046643,138.725901 537.737643,139.333901 538.088643,140.249901 M426.123643,145.467901 C418.359643,162.315901 411.553643,185.469901 416.145643,179.414901 C417.168643,178.065901 417.643643,177.939901 418.034643,178.914901 C418.441643,179.931901 418.573643,179.938901 418.635643,178.948901 C418.687643,178.118901 419.541643,177.886901 421.105643,178.279901 C423.943643,178.991901 424.887643,177.773901 425.804643,172.217901 C426.331643,169.020901 426.503643,169.823901 426.659643,176.217901 C426.767643,180.617901 427.208643,185.117901 427.640643,186.217901 C428.072643,187.317901 428.225643,180.567901 427.980643,171.217901 C427.736643,161.867901 427.944643,150.955901 428.444643,146.967901 C429.538643,138.233901 429.475643,138.192901 426.123643,145.467901 M333.898643,180.834901 C332.624643,182.407901 331.831643,184.098901 332.137643,184.592901 C332.442643,185.086901 332.022643,186.046901 331.203643,186.726901 C330.384643,187.406901 329.714643,188.582901 329.714643,189.339901 C329.714643,191.822901 327.766643,190.781901 327.146643,187.967901 C325.969643,182.634901 325.707643,183.291901 326.248643,190.217901 C326.549643,194.067901 327.206643,198.567901 327.710643,200.217901 C328.213643,201.867901 329.337643,205.692901 330.208643,208.717901 C331.990643,214.906901 331.737643,214.299901 338.700643,229.082901 C343.495643,239.263901 345.397643,242.047901 344.058643,236.923901 C343.740643,235.710901 343.083643,234.717901 342.597643,234.717901 C342.112643,234.717901 341.714643,233.952901 341.714643,233.017901 C341.714643,231.748901 342.002643,231.605901 342.850643,232.453901 C344.312643,233.915901 352.714643,227.134901 352.714643,224.492901 C352.714643,223.501901 353.277643,221.683901 353.964643,220.453901 C354.652643,219.223901 355.305643,218.051901 355.416643,217.848901 C355.674643,217.379901 357.634643,219.411901 360.485643,223.102901 C361.711643,224.689901 362.714643,225.630901 362.714643,225.194901 C362.714643,224.758901 360.963643,222.110901 358.822643,219.309901 C352.917643,211.584901 344.315643,197.766901 342.267643,192.717901 C341.264643,190.242901 339.905643,186.867901 339.247643,185.217901 C336.108643,177.338901 336.482643,177.644901 333.898643,180.834901 M629.850643,182.884901 C629.775643,183.800901 629.377643,184.700901 628.964643,184.884901 C628.551643,185.067901 626.501643,188.685901 624.406643,192.923901 C620.152643,201.534901 609.697643,217.571901 603.557643,224.904901 C601.341643,227.551901 600.020643,229.717901 600.621643,229.717901 C601.222643,229.717901 601.721643,229.380901 601.730643,228.967901 C601.738643,228.555901 603.531643,226.192901 605.714643,223.717901 C607.897643,221.242901 609.690643,218.879901 609.698643,218.467901 C609.707643,218.055901 610.102643,217.717901 610.575643,217.717901 C611.049643,217.717901 611.223643,218.834901 610.962643,220.199901 C610.588643,222.158901 611.022643,222.883901 613.024643,223.645901 C614.525643,224.216901 615.694643,225.546901 615.887643,226.903901 C616.080643,228.256901 617.034643,229.346901 618.214643,229.560901 C619.314643,229.760901 620.926643,230.553901 621.795643,231.322901 C622.665643,232.092901 623.677643,232.420901 624.045643,232.053901 C625.369643,230.728901 624.679643,233.322901 623.112643,235.559901 C622.231643,236.817901 621.725643,238.061901 621.988643,238.324901 C622.828643,239.164901 626.764643,231.607901 626.071643,230.486901 C625.699643,229.884901 625.868643,229.694901 626.455643,230.057901 C627.420643,230.653901 635.405643,213.964901 637.144643,207.717901 C637.527643,206.342901 638.231643,204.317901 638.709643,203.217901 C639.187643,202.117901 640.058643,198.517901 640.644643,195.217901 C641.231643,191.917901 641.983643,187.867901 642.317643,186.217901 L642.924643,183.217901 L641.234643,185.507901 C640.262643,186.824901 638.836643,187.608901 637.879643,187.350901 C636.963643,187.104901 635.008643,186.635901 633.533643,186.308901 C631.804643,185.925901 630.699643,184.916901 630.420643,183.465901 C630.165643,182.146901 629.930643,181.905901 629.850643,182.884901 M143.784643,208.808901 C155.059643,227.590901 164.565643,239.216901 167.804643,238.188901 C170.147643,237.445901 178.360643,244.426901 184.948643,252.759901 C188.097643,256.742901 196.714643,273.823901 196.714643,276.081901 C196.714643,276.916901 197.113643,277.846901 197.601643,278.147901 C198.088643,278.448901 198.804643,280.387901 199.190643,282.456901 C199.577643,284.525901 200.209643,286.667901 200.595643,287.217901 C200.981643,287.767901 201.895643,290.017901 202.627643,292.217901 C204.479643,297.787901 208.568643,306.717901 209.268643,306.717901 C209.587643,306.717901 209.586643,305.888901 209.264643,304.874901 C208.921643,303.793901 209.509643,301.976901 210.687643,300.479901 C211.791643,299.075901 212.836643,297.092901 213.008643,296.072901 C213.180643,295.052901 214.052643,291.967901 214.944643,289.217901 C215.837643,286.467901 217.106643,280.211901 217.765643,275.314901 L218.964643,266.410901 L220.911643,270.658901 C221.982643,272.994901 223.078643,274.686901 223.347643,274.418901 C224.271643,273.494901 215.603643,256.767901 211.088643,250.761901 C203.956643,241.274901 185.772643,227.717901 180.178643,227.717901 C176.893643,227.717901 152.423643,214.005901 146.876643,209.055901 L140.537643,203.400901 L143.784643,208.808901 M820.718643,211.213901 C804.209643,228.786901 768.001643,237.996901 736.214643,232.707901 C697.570643,226.277901 661.822643,237.567901 642.303643,262.365901 C639.687643,265.688901 640.421643,265.109901 644.631643,260.529901 C650.036643,254.648901 659.459643,246.717901 661.041643,246.717901 C661.349643,246.717901 661.487643,248.405901 661.349643,250.467901 C661.053643,254.894901 665.317643,264.083901 667.312643,263.318901 C668.048643,263.035901 668.537643,263.542901 668.476643,264.524901 C668.418643,265.455901 668.676643,267.143901 669.049643,268.274901 C669.549643,269.792901 668.938643,271.086901 666.720643,273.211901 C665.067643,274.795901 663.714643,276.538901 663.714643,277.084901 C663.714643,277.630901 665.402643,276.101901 667.464643,273.687901 C669.527643,271.272901 671.090643,268.907901 670.939643,268.432901 C670.788643,267.957901 671.031643,267.795901 671.479643,268.072901 C671.927643,268.348901 674.300643,267.208901 676.753643,265.537901 C690.762643,255.998901 705.088643,253.315901 728.714643,255.807901 C761.419643,259.256901 777.977643,256.845901 794.040643,246.295901 L800.801643,241.855901 L804.508643,244.991901 L808.214643,248.127901 L805.532643,245.172901 L802.849643,242.217901 L811.256643,229.217901 C823.208643,210.735901 825.799643,205.804901 820.718643,211.213901 M229.964643,226.300901 C230.644643,226.981901 243.941643,228.871901 247.964643,228.859901 C251.285643,228.849901 251.575643,230.290901 248.464643,231.346901 C245.935643,232.204901 243.468643,231.926901 242.704643,230.696901 C242.423643,230.245901 240.848643,229.569901 239.204643,229.195901 C237.326643,228.768901 239.159643,230.226901 244.135643,233.116901 C248.491643,235.647901 252.429643,237.717901 252.885643,237.717901 C253.341643,237.717901 253.714643,238.167901 253.714643,238.717901 C253.714643,239.267901 254.235643,239.717901 254.872643,239.717901 C256.385643,239.717901 270.096643,248.441901 279.428643,255.343901 C283.477643,258.338901 287.293643,260.477901 287.907643,260.098901 C288.527643,259.714901 288.746643,259.856901 288.399643,260.417901 C288.056643,260.972901 288.887643,262.470901 290.245643,263.746901 C293.002643,266.336901 293.639643,265.397901 291.059643,262.546901 C290.069643,261.452901 289.868643,260.717901 290.559643,260.717901 C291.194643,260.717901 291.714643,259.790901 291.714643,258.658901 C291.714643,257.526901 292.123643,256.852901 292.623643,257.161901 C294.053643,258.044901 298.701643,251.853901 298.832643,248.890901 C298.984643,245.468901 298.996643,245.561901 298.114643,243.293901 C297.489643,241.685901 297.682643,241.496901 299.290643,242.139901 C303.848643,243.963901 303.895643,243.656901 299.429643,241.236901 C296.797643,239.810901 294.140643,238.954901 293.524643,239.334901 C292.909643,239.715901 292.680643,239.581901 293.016643,239.037901 C293.698643,237.934901 286.336643,234.736901 277.214643,232.173901 C273.914643,231.246901 270.164643,230.082901 268.880643,229.585901 C267.596643,229.089901 262.518643,228.397901 257.595643,228.048901 C252.672643,227.698901 248.408643,227.031901 248.120643,226.565901 C247.832643,226.098901 243.498643,225.717901 238.488643,225.717901 C233.479643,225.717901 229.643643,225.979901 229.964643,226.300901 M502.214643,264.496901 C490.040643,276.245901 479.135643,277.741901 469.464643,268.991901 C468.388643,268.017901 467.714643,267.852901 467.714643,268.562901 C467.714643,269.197901 468.164643,269.717901 468.714643,269.717901 C471.062643,269.717901 469.334643,271.473901 463.964643,274.542901 C454.089643,280.187901 447.454643,284.521901 446.583643,285.895901 C445.949643,286.894901 445.741643,286.912901 445.729643,285.967901 C445.721643,285.280901 445.289643,284.717901 444.770643,284.717901 C444.010643,284.717901 447.033643,293.149901 448.315643,294.605901 C448.503643,294.818901 450.669643,294.430901 453.129643,293.741901 C457.092643,292.631901 459.880643,292.214901 465.924643,291.827901 C466.864643,291.766901 468.664643,290.652901 469.924643,289.350901 C475.347643,283.744901 498.911643,285.381901 506.164643,291.867901 C506.686643,292.335901 508.797643,292.717901 510.855643,292.717901 C512.913643,292.717901 514.874643,293.167901 515.214643,293.717901 C516.037643,295.048901 519.714643,295.003901 519.714643,293.662901 C519.714643,292.777901 520.773643,290.196901 524.407643,282.217901 C524.657643,281.667901 524.213643,282.009901 523.420643,282.978901 C522.070643,284.626901 521.888643,284.631901 520.596643,283.056901 C518.363643,280.335901 508.120643,274.064901 502.763643,272.138901 L497.811643,270.357901 L500.012643,268.203901 C504.608643,263.708901 511.112643,256.718901 510.672643,256.746817 C510.420643,256.762901 506.614643,260.250901 502.214643,264.496901 M767.474643,281.831901 C766.527643,282.362901 761.806643,282.665901 756.983643,282.506901 L748.214643,282.217901 L743.819643,289.217901 C741.402643,293.067901 737.380643,298.692901 734.881643,301.717901 C731.478643,305.835901 731.181643,306.415901 733.698643,304.026901 L737.058643,300.834901 L740.179643,306.944901 C741.895643,310.304901 744.180643,313.540901 745.257643,314.135901 C747.792643,315.536901 748.728643,316.885901 747.994643,318.074901 C747.670643,318.598901 747.925643,318.705901 748.559643,318.312901 C751.644643,316.406901 748.977643,320.358901 742.099643,327.884901 L734.483643,336.217901 L743.118643,327.402901 C747.930643,322.490901 751.454643,318.105901 751.079643,317.498901 C750.701643,316.886901 750.864643,316.691901 751.450643,317.054901 C753.435643,318.280901 762.326643,302.738901 766.231643,291.217901 C767.163643,288.467901 768.404643,285.205901 768.988643,283.969901 C770.275643,281.244901 769.778643,280.542901 767.474643,281.831901 M558.843643,301.900901 C557.173643,307.076901 557.916643,308.496901 563.895643,311.554901 C566.956643,313.119901 570.902643,315.426901 572.664643,316.681901 C576.166643,319.175901 576.901643,318.835901 578.525643,313.967901 C579.793643,310.170901 579.112643,309.540901 577.714643,313.217901 C576.491643,316.435901 575.797643,316.368901 571.102643,312.583901 C568.963643,310.859901 565.335643,308.603901 563.038643,307.569901 C559.019643,305.760901 558.896643,305.569901 559.771643,302.519901 C560.995643,298.251901 560.193643,297.716901 558.843643,301.900901 M605.132643,334.801901 L601.542643,338.478901 L607.837643,344.600901 C612.852643,349.477901 614.303643,350.416901 614.973643,349.219901 C616.566643,346.373901 625.824643,349.601901 628.971643,354.100901 C630.684643,356.549901 630.664643,356.676901 628.176643,359.164901 C626.772643,360.568901 626.094643,361.717901 626.669643,361.717901 C627.244643,361.717901 627.714643,362.392901 627.714643,363.217901 C627.714643,364.042901 628.116643,364.717901 628.607643,364.717901 C630.445643,364.717901 630.715643,368.058901 629.028643,369.923901 C627.336643,371.792901 628.287643,373.647901 630.964643,373.702901 C631.377643,373.710901 631.714643,374.363901 631.714643,375.152901 C631.714643,375.941901 632.181643,377.816901 632.752643,379.318901 L633.790643,382.048901 L637.502643,378.480901 C639.544643,376.518901 642.964643,373.743901 645.104643,372.314901 C647.243643,370.886901 648.530643,369.717901 647.964643,369.717901 C647.397643,369.717901 644.222643,371.714901 640.907643,374.154901 C634.025643,379.220901 633.675643,379.010901 633.778643,369.885901 C633.893643,359.708901 636.649643,349.995901 639.033643,351.361901 C639.683643,351.733901 639.885643,351.674901 639.482643,351.229901 C638.643643,350.302901 641.926643,347.196901 645.964643,345.096901 C647.477643,344.309901 648.714643,343.443901 648.714643,343.171901 C648.714643,341.668901 640.506643,347.219901 636.828643,351.209901 C630.412643,358.170901 630.607643,354.719901 637.639643,336.901901 C638.793643,333.977901 639.282643,331.866901 638.725643,332.210901 C638.169643,332.554901 637.714643,333.483901 637.714643,334.276901 C637.714643,337.264901 623.531643,335.878901 614.714643,332.029901 C611.194643,330.492901 608.610643,331.239901 605.132643,334.801901 M329.552643,334.217901 C330.045643,335.317901 331.167643,337.792901 332.046643,339.717901 C336.650643,349.803901 335.502643,355.606901 329.904643,350.544901 C326.806643,347.742901 316.814643,342.284901 316.096643,343.001901 C315.831643,343.267901 317.835643,344.851901 320.550643,346.521901 C331.011643,352.958901 335.689643,360.915901 335.704643,372.300901 C335.717643,381.312901 335.565643,381.409901 329.022643,376.575901 C326.017643,374.355901 323.359643,372.738901 323.116643,372.982901 C322.873643,373.225901 324.595643,374.673901 326.944643,376.199901 C329.292643,377.725901 332.179643,379.849901 333.359643,380.920901 L335.503643,382.868901 L337.209643,377.733901 C338.290643,374.479901 338.678643,371.338901 338.269643,369.158901 C337.688643,366.061901 339.009643,364.103901 339.892643,366.752901 C340.113643,367.413901 340.863643,367.323901 341.972643,366.502901 C344.615643,364.545901 342.495643,357.279901 339.509643,358.060901 C338.378643,358.356901 336.804643,357.950901 336.012643,357.158901 C334.758643,355.903901 334.904643,355.717901 337.143643,355.717901 C338.762643,355.717901 339.714643,355.161901 339.714643,354.217901 C339.714643,353.259901 340.676643,352.717901 342.376643,352.717901 C345.619643,352.717901 352.979643,348.527901 357.573643,344.065901 C359.438643,342.254901 361.807643,340.505901 362.839643,340.177901 C365.393643,339.367901 365.212643,338.568901 361.714643,335.217901 C360.064643,333.636901 358.714643,332.877901 358.714643,333.530901 C358.714643,334.363901 355.808643,334.724901 348.964643,334.741901 C343.601643,334.754901 337.547643,335.152901 335.509643,335.625901 C332.317643,336.367901 331.587643,336.191901 330.230643,334.351901 C328.822643,332.441901 328.750643,332.427901 329.552643,334.217901 M388.225643,359.990901 C377.515643,370.762901 372.769643,376.655901 376.821643,374.151901 C377.983643,373.433901 377.153643,379.224901 375.808643,381.217901 C375.177643,382.153901 373.896643,386.124901 370.324643,398.217901 C367.568643,407.546901 365.634643,431.717901 367.643643,431.717901 C368.260643,431.717901 372.745643,429.692901 377.608643,427.217901 C382.472643,424.742901 387.073643,422.710901 387.833643,422.702901 C388.913643,422.690901 388.938643,422.511901 387.948643,421.883901 C386.020643,420.659901 386.702643,386.049901 388.714643,382.978901 C390.052643,380.936901 389.982643,380.541901 387.915643,378.478901 C385.976643,376.544901 385.511643,376.434901 384.696643,377.717901 C383.960643,378.877901 383.741643,378.594901 383.729643,376.467901 C383.721643,374.955901 384.212643,373.717901 384.821643,373.717901 C385.430643,373.717901 385.683643,373.078901 385.383643,372.298901 C384.074643,368.885901 390.734643,365.137901 393.389643,367.792901 C394.156643,368.559901 394.464643,368.106901 394.464643,366.215901 C394.464643,363.883901 394.148643,363.628901 391.839643,364.100901 C390.395643,364.396901 389.777643,364.393901 390.464643,364.094901 C391.152643,363.795901 391.714643,362.668901 391.714643,361.590901 C391.714643,360.512901 392.277643,359.702901 392.964643,359.792901 C396.133643,360.203901 396.793643,359.734901 395.761643,357.805901 C394.919643,356.231901 395.378643,355.253901 398.359643,352.272901 C400.351643,350.280901 401.701643,348.370901 401.358643,348.028901 C401.016643,347.686901 395.106643,353.068901 388.225643,359.990901 M566.714643,348.666901 C566.714643,349.244901 567.134643,349.717901 567.647643,349.717901 C568.160643,349.717901 570.268643,351.777901 572.332643,354.296901 L576.084643,358.875901 L574.298643,362.191901 C572.517643,365.497901 573.888643,374.666901 576.693643,378.217901 C577.128643,378.767901 577.812643,380.792901 578.214643,382.717901 C578.616643,384.642901 579.388643,386.767901 579.929643,387.440901 C580.924643,388.676901 583.219643,401.813901 584.511643,413.674901 C585.140643,419.455901 585.475643,420.198901 587.714643,420.776901 C590.040643,421.376901 589.959643,421.473901 586.551643,422.164901 C584.536643,422.573901 581.836643,422.637901 580.551643,422.307901 C578.403643,421.755901 578.417643,421.795901 580.714643,422.801901 C582.089643,423.404901 586.124643,425.250901 589.681643,426.905901 C593.736643,428.790901 596.286643,429.501901 596.517643,428.809901 C596.719643,428.201901 597.344643,427.989901 597.906643,428.336901 C598.557643,428.738901 598.454643,429.260901 597.623643,429.773901 C596.690643,430.350901 597.157643,430.914901 599.266643,431.756901 C600.887643,432.403901 603.045643,433.365901 604.061643,433.894901 C607.034643,435.441901 607.172643,434.017901 604.291643,431.518901 C601.809643,429.365901 601.550643,428.314901 600.283643,415.217901 C598.818643,400.080901 595.643643,388.437901 589.859643,376.996901 C586.901643,371.144901 585.447643,366.208901 587.714643,369.717901 C588.247643,370.542901 588.690643,370.756901 588.699643,370.193901 C588.719643,368.812901 574.726643,353.726901 570.274643,350.331901 C568.316643,348.837901 566.714643,348.088901 566.714643,348.666901 M146.714643,373.658901 C146.714643,374.240901 147.137643,374.717901 147.654643,374.717901 C149.069643,374.717901 148.377643,380.022901 146.924643,380.314901 C146.231643,380.453901 146.125643,380.338901 146.689643,380.059901 C147.253643,379.779901 147.714643,379.083901 147.714643,378.511901 C147.714643,377.884901 147.120643,377.965901 146.214643,378.717901 C145.389643,379.402901 144.714643,380.582901 144.714643,381.339901 C144.714643,382.097901 145.389643,382.717901 146.214643,382.717901 C147.039643,382.717901 147.714643,383.444901 147.714643,384.334901 C147.714643,385.437901 147.103643,385.790901 145.789643,385.447901 C142.694643,384.638901 144.355643,386.791901 150.919643,392.100901 C164.221643,402.859901 189.714643,415.092901 189.714643,410.717901 C189.714643,410.167901 188.348643,409.717901 186.679643,409.717901 C184.141643,409.717901 183.779643,409.430901 184.468643,407.967901 C186.267643,404.149901 184.749643,391.967901 182.386643,391.255901 C180.276643,390.619901 180.270643,390.578901 182.196643,389.814901 C183.759643,389.194901 183.018643,388.768901 178.696643,387.801901 C175.681643,387.126901 172.314643,386.213901 171.214643,385.773901 C165.270643,383.394901 156.729643,379.111901 153.214643,376.747901 C147.318643,372.782901 146.714643,372.495901 146.714643,373.658901 M819.357643,374.217901 C818.532643,375.042901 817.361643,375.717901 816.754643,375.717901 C816.147643,375.717901 815.392643,376.392901 815.076643,377.217901 C814.759643,378.042901 813.703643,378.717901 812.729643,378.717901 C811.756643,378.717901 810.399643,379.392901 809.714643,380.217901 C809.029643,381.042901 807.651643,381.717901 806.651643,381.717901 C805.650643,381.717901 804.564643,382.150901 804.237643,382.680901 C803.910643,383.210901 802.195643,384.075901 800.428643,384.602901 C782.496643,389.955901 782.544643,389.948901 765.714643,390.084901 C755.704643,390.165901 750.984643,390.483901 753.714643,390.893901 C756.189643,391.265901 762.188643,391.602901 767.046643,391.643901 L775.878643,391.717901 L775.446643,398.467901 C775.209643,402.179901 774.673643,406.217901 774.255643,407.439901 C772.999643,411.114901 777.377643,412.473901 783.435643,410.286901 C793.026643,406.825901 809.714643,398.957901 809.714643,397.897901 C809.714643,397.498901 811.263643,396.338901 813.155643,395.319901 C816.711643,393.404901 818.603643,390.717901 816.397643,390.717901 C815.707643,390.717901 815.143643,389.817901 815.143643,388.717901 C815.143643,387.617901 815.496643,386.717901 815.928643,386.717901 C817.072643,386.717901 816.892643,382.945901 815.714643,382.217901 C813.815643,381.043901 814.724643,378.618901 817.698643,376.920901 C819.340643,375.984901 820.901643,374.655901 821.167643,373.967901 C821.812643,372.303901 821.185643,372.389901 819.357643,374.217901 M141.092643,451.749901 C131.484643,453.883901 120.838643,458.163901 111.353643,463.707901 C107.580643,465.912901 104.298643,467.717901 104.061643,467.717901 C98.7706427,467.717901 100.454643,477.972901 105.953643,479.240901 C109.330643,480.018901 110.578643,481.717901 107.773643,481.717901 C106.609643,481.717901 105.714643,482.369901 105.714643,483.217901 C105.714643,484.042901 106.052643,484.718901 106.464643,484.718901 C106.876643,484.719901 108.521643,485.844901 110.120643,487.218901 C113.198643,489.866901 114.714643,490.360901 114.714643,488.717901 C114.714643,488.167901 115.285643,487.717901 115.982643,487.717901 C116.679643,487.717901 118.817643,486.658901 120.732643,485.364901 C123.789643,483.298901 143.863643,471.531901 155.214643,465.151901 C163.213643,460.655901 171.076643,455.717901 170.236643,455.717901 C169.763643,455.717901 167.023643,457.045901 164.148643,458.667901 L158.921643,461.617901 L158.202643,459.417901 C157.807643,458.207901 157.423643,456.917901 157.349643,456.550901 C157.067643,455.154901 155.594643,454.377901 150.980643,453.190901 L146.214643,451.964901 L154.214643,451.282901 C165.583643,450.312901 166.397643,449.949901 157.214643,449.947901 C152.814643,449.947901 145.559643,450.757901 141.092643,451.749901 M467.144643,473.717901 C467.144643,486.642901 467.287643,491.929901 467.461643,485.467901 C467.635643,479.005901 467.635643,468.429901 467.461643,461.967901 C467.287643,455.505901 467.144643,460.792901 467.144643,473.717901 M819.773643,452.055901 C820.081643,452.393901 822.106643,453.085901 824.273643,453.593901 C828.115643,454.493901 828.057643,454.519901 821.995643,454.617901 C817.109643,454.695901 815.892643,455.016901 816.313643,456.114901 C816.709643,457.147901 815.544643,457.690901 811.832643,458.201901 C803.316643,459.372901 803.531643,460.895901 812.931643,465.984901 C817.487643,468.450901 823.926643,472.211901 827.240643,474.342901 C845.003643,485.764901 855.714643,491.536901 855.714643,489.686901 C855.714643,489.153901 855.152643,488.707901 854.464643,488.694901 C853.777643,488.682901 854.662643,487.958901 856.431643,487.085901 C858.201643,486.213901 859.907643,484.686901 860.222643,483.692901 C860.538643,482.697901 862.127643,481.420901 863.755643,480.853901 C866.396643,479.932901 867.321643,478.255901 866.793643,475.349901 C866.706643,474.871901 867.778643,474.767901 869.175643,475.118901 C880.183643,477.881901 844.574643,457.425901 832.714643,454.173901 C826.132643,452.368901 818.994643,451.200901 819.773643,452.055901 M361.714643,459.907901 C361.714643,492.982901 386.339643,526.547901 418.206643,536.908901 C435.889643,542.658901 438.313643,542.491901 439.157643,535.466901 C440.085643,527.742901 441.805643,521.482901 443.616643,519.234901 C445.129643,517.356901 445.115643,517.328901 443.350643,518.701901 C424.842643,533.097901 375.714643,493.918901 375.714643,464.762901 C375.714643,463.598901 374.327643,462.612901 371.464643,461.743901 C368.015643,460.696901 367.581643,460.321901 369.160643,459.753901 C370.950643,459.109901 370.910643,459.000901 368.660643,458.399901 C363.842643,457.110901 361.714643,457.572901 361.714643,459.907901 M598.319643,458.434901 C596.771643,458.831901 596.679643,459.100901 597.819643,459.902901 C598.823643,460.610901 598.373643,460.761901 596.214643,460.441901 C594.564643,460.196901 592.089643,460.338901 590.714643,460.757901 C589.079643,461.254901 588.819643,461.552901 589.964643,461.617901 C595.779643,461.949901 583.397643,491.516901 572.946643,502.254901 C560.227643,515.323901 541.720643,523.578901 530.493643,521.191901 C523.838643,519.777901 523.738643,519.452901 523.488643,498.312901 L523.262643,479.217901 L522.965643,497.526901 L522.668643,515.836901 L525.642643,522.066901 C527.491643,525.941901 528.872643,530.800901 529.294643,534.923901 L529.973643,541.549901 L533.594643,541.004901 C570.976643,535.373901 597.991643,508.244901 604.725643,469.573901 C606.447643,459.686901 604.776643,456.781901 598.319643,458.434901 M502.165643,495.217901 C502.165643,515.017901 502.299643,523.259901 502.462643,513.532901 C502.626643,503.805901 502.626643,487.605901 502.463643,477.532901 C502.300643,467.459901 502.166643,475.417901 502.165643,495.217901 M667.714643,472.957901 C665.239643,474.096901 660.739643,475.521901 657.714643,476.123901 L652.214643,477.217901 L652.014643,483.717901 C651.905643,487.292901 652.053643,489.542901 652.344643,488.717901 C652.635643,487.892901 653.094643,486.542901 653.366643,485.717901 C653.737643,484.586901 654.201643,484.832901 655.251643,486.717901 C657.149643,490.125901 657.125643,502.405901 655.213643,506.071901 C653.379643,509.589901 653.986643,510.717901 657.714643,510.717901 C659.299643,510.717901 660.838643,511.109901 661.134643,511.588901 C661.430643,512.067901 662.958643,512.716901 664.529643,513.030901 C666.099643,513.344901 670.384643,515.612901 674.049643,518.070901 C677.715643,520.528901 680.711643,522.242901 680.707643,521.878901 C680.703643,521.515901 679.128643,520.146901 677.207643,518.838901 C670.052643,513.966901 674.535643,502.190901 683.214643,503.057901 C686.444643,503.380901 687.506643,503.256901 686.214643,502.707901 C685.114643,502.240901 682.977643,501.826901 681.464643,501.787901 C676.309643,501.656901 678.634643,498.964901 687.964643,494.264901 C694.912643,490.763901 696.306643,489.765901 693.563643,490.253901 C687.622643,491.310901 670.005643,474.759901 673.428643,471.336901 C674.554643,470.211901 672.278643,470.856901 667.714643,472.957901 M296.806643,473.639901 C296.032643,474.129901 294.007643,475.716901 292.306643,477.167901 C290.606643,478.617901 287.189643,481.414901 284.714643,483.382901 C282.239643,485.351901 279.524643,488.006901 278.681643,489.282901 C277.567643,490.969901 276.747643,491.350901 275.681643,490.676901 C274.874643,490.165901 273.539643,489.743901 272.714643,489.737901 C271.889643,489.731901 274.797643,491.539901 279.176643,493.755901 C283.555643,495.971901 287.380643,498.139901 287.676643,498.574901 C287.972643,499.008901 289.048643,499.671901 290.068643,500.048901 C291.174643,500.457901 291.693643,501.328901 291.356643,502.208901 C291.045643,503.018901 291.445643,505.538901 292.245643,507.806901 C293.046643,510.074901 293.440643,512.352901 293.121643,512.867901 C292.803643,513.383901 293.017643,514.378901 293.598643,515.078901 C294.395643,516.038901 293.430643,517.285901 289.670643,520.152901 C286.929643,522.243901 284.419643,524.385901 284.094643,524.911901 C283.768643,525.438901 286.308643,523.803901 289.738643,521.278901 C296.135643,516.569901 298.536643,515.269901 307.214643,511.816901 C309.964643,510.721901 311.703643,509.802901 311.077643,509.772901 C306.259643,509.540901 307.224643,477.717901 312.050643,477.717901 C314.380643,477.717901 313.487643,476.440901 310.944643,476.136901 C304.476643,475.363901 301.225643,474.628901 300.337643,473.740901 C299.098643,472.501901 298.625643,472.488901 296.806643,473.639901 M146.342643,498.675901 C138.675643,503.171901 137.929643,504.248901 141.594643,505.525901 C146.048643,507.078901 159.629643,508.157901 157.714643,506.806901 C156.889643,506.224901 154.414643,505.689901 152.214643,505.616901 C150.014643,505.544901 148.955643,505.288901 149.861643,505.047901 C151.911643,504.503901 153.057643,500.547901 151.453643,499.556901 C150.800643,499.152901 149.974643,499.297901 149.615643,499.877901 C149.169643,500.599901 148.763643,500.605901 148.324643,499.896901 C147.973643,499.327901 148.591643,498.573901 149.699643,498.222901 C150.807643,497.870901 151.714643,497.163901 151.714643,496.650901 C151.714643,495.459901 152.028643,495.340901 146.342643,498.675901 M816.714643,497.093901 C816.714643,497.347901 818.329643,498.552901 820.303643,499.772901 C824.646643,502.456901 823.477643,503.679901 816.547643,503.702901 C813.840643,503.711901 811.714643,504.217901 811.484643,504.907901 C811.208643,505.734901 807.746643,506.087901 800.151643,506.063901 C789.647643,506.029901 789.472643,506.063901 795.714643,506.913901 C809.733643,508.821901 832.503643,506.263901 828.019643,503.283901 C824.250643,500.778901 816.714643,496.652901 816.714643,497.093901 M148.924643,541.646901 C149.611643,544.354901 150.352643,545.409901 151.309643,545.042901 C152.073643,544.749901 152.982643,545.251901 153.329643,546.156901 C154.198643,548.421901 153.080643,549.266901 151.238643,547.737901 C150.288643,546.948901 149.714643,546.872901 149.714643,547.536901 C149.714643,548.120901 150.145643,548.865901 150.671643,549.191901 C151.600643,549.764901 151.755643,551.078901 151.823643,558.967901 C151.852643,562.236901 152.160643,562.717901 154.226643,562.717901 C155.530643,562.717901 156.850643,563.128901 157.160643,563.630901 C157.471643,564.132901 159.617643,564.863901 161.931643,565.254901 C164.244643,565.644901 166.829643,566.319901 167.676643,566.752901 C174.117643,570.052901 211.664643,571.590901 219.214643,568.864901 C221.692643,567.969901 220.996643,567.874901 215.214643,568.316901 C210.481643,568.678901 208.674643,568.534901 209.635643,567.870901 C210.849643,567.031901 210.813643,566.516901 209.385643,564.338901 C208.235643,562.583901 207.714643,559.655901 207.714643,554.952901 C207.714643,551.193901 207.221643,547.624901 206.618643,547.021901 C205.824643,546.227901 206.647643,545.735901 209.613643,545.234901 C211.863643,544.854901 214.005643,544.056901 214.373643,543.460901 C214.792643,542.782901 214.447643,542.605901 213.449643,542.988901 C212.573643,543.325901 210.249643,543.901901 208.285643,544.270901 C206.226643,544.656901 204.714643,545.528901 204.714643,546.328901 C204.714643,547.092901 204.264643,547.717901 203.714643,547.717901 C203.164643,547.717901 202.714643,547.327901 202.714643,546.851901 C202.714643,546.374901 195.851643,545.713901 187.464643,545.380901 C179.077643,545.047901 169.514643,544.114901 166.214643,543.305901 C158.227643,541.348901 152.014643,539.350901 151.114643,538.450901 C148.985643,536.322901 147.954643,537.826901 148.924643,541.646901 M810.164643,540.573901 C808.430643,542.137901 792.369643,544.855901 781.464643,545.432901 C775.551643,545.745901 770.714643,546.387901 770.714643,546.859901 C770.714643,547.331901 769.884643,547.717901 768.869643,547.717901 C764.218643,547.717901 760.045643,566.877901 764.447643,568.024901 C765.519643,568.304901 765.034643,568.564901 763.214643,568.687901 L760.214643,568.889901 L763.214643,569.815901 C766.568643,570.851901 782.540643,570.131901 790.214643,568.598901 C798.901643,566.863901 808.195643,564.367901 808.714643,563.629901 C808.989643,563.238901 810.339643,562.710901 811.714643,562.454901 L814.214643,561.989901 L811.531643,561.853901 C806.809643,561.613901 805.788643,543.238901 810.433643,542.073901 C811.688643,541.758901 812.714643,541.099901 812.714643,540.609901 C812.714643,539.478901 811.400643,539.460901 810.164643,540.573901 M765.714643,600.558901 C766.539643,601.073901 769.576643,601.811901 772.464643,602.199901 C778.174643,602.966901 779.211643,604.124901 775.110643,605.154901 C772.538643,605.799901 772.511643,605.902901 772.868643,613.762901 L773.229643,621.717901 L769.721643,621.852901 C767.792643,621.926901 773.414643,622.604901 782.214643,623.359901 C791.014643,624.114901 800.207643,625.404901 802.642643,626.225901 C809.073643,628.392901 810.002643,628.136901 812.181643,623.591901 C813.262643,621.334901 814.745643,619.259901 815.476643,618.978901 C820.359643,617.104901 790.614643,604.365901 775.214643,601.735901 C771.364643,601.078901 767.314643,600.333901 766.214643,600.081901 C764.648643,599.721901 764.540643,599.825901 765.714643,600.558901 M181.214643,604.651901 C167.771643,608.523901 155.649643,614.711901 158.993643,615.994901 C161.603643,616.996901 163.072643,623.664901 161.150643,625.788901 C159.279643,627.855901 161.262643,628.769901 163.267643,626.764901 C163.791643,626.240901 170.519643,625.305901 178.217643,624.688901 C185.915643,624.070901 192.995643,623.149901 193.950643,622.641901 C194.905643,622.133901 196.337643,621.717901 197.132643,621.717901 C198.508643,621.717901 198.656643,613.022901 197.396643,606.217901 C196.742643,602.686901 190.227643,602.055901 181.214643,604.651901 M606.861643,626.217901 C606.594643,640.691901 605.333643,654.242901 604.721643,649.217901 C604.587643,648.117901 604.529643,646.745901 604.593643,646.167901 C604.730643,644.933901 599.073643,642.717901 595.786643,642.717901 C594.217643,642.717901 593.672643,643.164901 594.048643,644.144901 C595.301643,647.411901 592.132643,647.647901 590.327643,644.421901 C588.565643,641.270901 577.051643,630.648901 574.512643,629.831901 C573.798643,629.602901 575.763643,631.500901 578.878643,634.050901 C584.927643,639.002901 594.736643,651.311901 599.269643,659.640901 C602.715643,665.971901 603.126643,665.958901 604.538643,659.467901 C607.050643,647.929901 607.766643,639.550901 607.468643,625.217901 L607.156643,610.217901 L606.861643,626.217901 M360.850643,635.402901 C360.712643,641.699901 361.940643,646.621901 363.962643,647.870901 C364.778643,648.374901 364.740643,648.981901 363.824643,650.085901 C362.499643,651.681901 365.228643,663.717901 366.915643,663.717901 C368.140643,663.717901 371.482643,656.346901 370.945643,654.828901 C370.673643,654.056901 370.906643,653.717901 371.470643,654.066901 C372.028643,654.411901 374.701643,651.657901 377.409643,647.946901 C380.117643,644.234901 385.006643,638.973901 388.273643,636.255901 C391.541643,633.536901 394.642643,630.953901 395.164643,630.514901 C395.687643,630.076901 395.805643,629.717901 395.427643,629.717901 C394.599643,629.717901 381.640643,640.567901 380.188643,642.477901 C378.779643,644.329901 375.677643,643.017901 376.424643,640.884901 C376.900643,639.527901 376.758643,639.449901 375.661643,640.467901 C374.920643,641.155901 373.054643,641.717901 371.514643,641.717901 C369.692643,641.717901 368.714643,642.241901 368.714643,643.217901 C368.714643,644.042901 368.152643,644.731901 367.464643,644.749901 C366.704643,644.768901 366.905643,645.305901 367.975643,646.117901 C369.576643,647.332901 369.592643,647.574901 368.149643,648.771901 C366.407643,650.217901 364.239643,648.295901 365.433643,646.363901 C365.755643,645.841901 365.342643,644.918901 364.515643,644.313901 C363.639643,643.673901 362.587643,640.287901 361.998643,636.215901 L360.986643,629.217901 L360.850643,635.402901 M223.316643,669.896901 C218.441643,675.120901 214.893643,679.741901 215.181643,680.491901 C215.461643,681.222901 215.277643,681.565901 214.771643,681.252901 C213.431643,680.424901 197.796643,709.133901 198.956643,710.292901 C199.220643,710.557901 200.737643,710.268901 202.325643,709.650901 C203.914643,709.032901 210.319643,707.698901 216.559643,706.684901 C227.321643,704.935901 230.554643,703.511901 230.682643,700.462901 C230.700643,700.047901 233.715643,696.222901 237.382643,691.962901 C243.222643,685.179901 241.729643,685.649901 234.980643,692.717901 C232.810643,694.990901 232.690643,695.018901 233.656643,693.028901 C234.278643,691.748901 234.342643,690.605901 233.811643,690.277901 C233.311643,689.968901 233.137643,688.815901 233.425643,687.716901 C233.712643,686.615901 233.455643,685.717901 232.851643,685.717901 C231.491643,685.717901 227.714643,678.484901 227.714643,675.879901 C227.714643,674.825901 226.974643,673.348901 226.070643,672.597901 C224.615643,671.390901 224.503643,671.476901 225.098643,673.351901 C225.619643,674.992901 225.257643,675.633901 223.492643,676.196901 C219.298643,677.534901 218.598643,677.564901 219.011643,676.387901 C219.237643,675.743901 220.223643,675.363901 221.204643,675.542901 C222.497643,675.778901 222.814643,675.420901 222.360643,674.238901 C221.932643,673.122901 223.463643,670.839901 227.220643,666.991901 C230.236643,663.902901 232.537643,661.207901 232.333643,661.002901 C232.128643,660.798901 228.071643,664.800901 223.316643,669.896901 M757.259643,686.967901 C757.633643,688.204901 758.338643,689.645901 758.826643,690.167901 C759.315643,690.689901 759.700643,691.814901 759.684643,692.667901 C759.656643,694.057901 759.560643,694.058901 758.754643,692.681901 C757.392643,690.356901 752.410643,690.923901 751.227643,693.537901 C750.684643,694.736901 749.671643,695.717901 748.977643,695.717901 C748.282643,695.717901 747.714643,696.167901 747.714643,696.717901 C747.714643,697.267901 747.117643,697.717901 746.388643,697.717901 C744.663643,697.717901 741.048643,701.660901 740.430643,704.217901 C740.039643,705.833901 739.924643,705.881901 739.830643,704.467901 C739.766643,703.505901 739.248643,702.717901 738.679643,702.717901 C738.016643,702.717901 737.968643,703.346901 738.546643,704.467901 C740.994643,709.216901 742.898643,714.041901 745.746643,722.717901 C750.888643,738.378901 754.892643,745.240901 763.972643,753.950901 C768.063643,757.876901 782.574643,767.717901 784.270643,767.717901 C784.853643,767.717901 799.265643,774.413901 809.864643,779.609901 C817.155643,783.184901 819.005643,782.928901 815.020643,778.896901 C814.302643,778.169901 813.714643,776.945901 813.714643,776.177901 C813.714643,775.263901 813.109643,775.007901 811.964643,775.436901 C810.393643,776.024901 810.364643,775.907901 811.676643,774.296901 C812.977643,772.699901 812.930643,772.348901 811.249643,771.119901 C810.210643,770.359901 809.600643,769.497901 809.894643,769.204901 C811.034643,768.064901 813.391643,770.033901 817.714643,775.736901 C820.189643,779.001901 823.444643,783.145901 824.948643,784.945901 C826.452643,786.744901 827.689643,788.780901 827.698643,789.467901 C827.707643,790.155901 828.134643,790.717901 828.647643,790.717901 C829.160643,790.717901 829.844643,791.505901 830.168643,792.467901 C830.492643,793.429901 832.115643,795.792901 833.775643,797.717901 C836.339643,800.689901 836.132643,800.073901 832.400643,793.631901 C827.353643,784.918901 819.499643,774.445901 812.591643,767.217901 C809.963643,764.467901 807.369643,761.092901 806.827643,759.717901 C805.847643,757.233901 805.840643,757.232901 805.777643,759.525901 C805.718643,761.698901 805.376643,761.572901 799.964643,757.367901 C781.116643,742.724901 774.720643,733.174901 766.202643,706.960901 C763.873643,699.795901 762.150643,695.948901 761.459643,696.374901 C760.773643,696.799901 760.604643,696.445901 761.001643,695.411901 C761.346643,694.512901 760.726643,691.739901 759.624643,689.247901 C757.522643,684.495901 756.097643,683.121901 757.259643,686.967901 M311.803643,699.967901 C311.329643,701.230901 311.343643,702.363901 311.836643,702.550901 C312.319643,702.734901 312.714643,703.344901 312.714643,703.907901 C312.714643,704.470901 312.090643,704.692901 311.328643,704.399901 C310.455643,704.064901 308.577643,705.851901 306.251643,709.228901 C293.003643,728.463901 280.359643,732.896901 239.802643,732.522901 C206.159643,732.212901 183.590643,738.511901 167.456643,752.713901 C164.954643,754.915901 162.451643,756.717901 161.894643,756.717901 C159.047643,756.717901 143.065643,777.420901 136.420643,789.717901 C134.786643,792.742901 132.570643,796.792901 131.496643,798.717901 L129.545643,802.217901 L132.127643,799.217901 C133.546643,797.567901 135.376643,794.867901 136.192643,793.217901 C139.592643,786.343901 147.388643,776.217901 149.280643,776.217901 C151.538643,776.217901 151.420643,779.707901 149.119643,781.017901 C148.346643,781.457901 147.714643,782.262901 147.714643,782.806901 C147.714643,783.412901 148.198643,783.378901 148.964643,782.718901 C155.666643,776.941901 178.823643,764.736901 189.714643,761.241901 C192.739643,760.270901 196.114643,758.967901 197.214643,758.346901 C198.594643,757.567901 210.534643,757.201901 235.714643,757.164901 C277.689643,757.103901 279.380643,756.887901 295.688643,749.505901 C308.331643,743.782901 320.593643,732.791901 328.927643,719.711901 C333.639643,712.317901 335.942643,707.717901 334.933643,707.717901 C334.475643,707.717901 333.606643,708.954901 333.003643,710.467901 C331.908643,713.211901 331.906643,713.210901 332.432643,709.978901 C333.014643,706.404901 325.698643,701.749901 319.464643,701.727901 C317.521643,701.720901 316.710643,701.203901 316.699643,699.967901 C316.686643,698.515901 316.527643,698.465901 315.765643,699.669901 C315.259643,700.468901 315.068643,701.480901 315.339643,701.919901 C315.610643,702.358901 315.078643,702.717901 314.156643,702.717901 C312.908643,702.717901 312.603643,702.079901 312.959643,700.217901 C313.553643,697.107901 312.930643,696.972901 311.803643,699.967901 M655.791643,698.717901 C655.784643,699.542901 656.438643,701.091901 657.246643,702.158901 C658.053643,703.226901 658.707643,704.801901 658.699643,705.658901 C658.687643,706.893901 658.508643,706.940901 657.838643,705.883901 C656.604643,703.937901 642.714643,706.492901 642.714643,708.666901 C642.714643,709.102901 641.177643,710.513901 639.298643,711.800901 C635.927643,714.109901 635.902643,714.181901 637.414643,717.179901 C643.149643,728.547901 657.802643,743.335901 670.214643,750.280901 C678.387643,754.853901 680.150643,755.704901 681.464643,755.711901 C682.152643,755.714901 682.714643,756.167901 682.714643,756.717901 C682.714643,757.267901 683.389643,757.717901 684.214643,757.717901 C686.251643,757.717901 686.108643,756.046901 683.964643,754.797901 C682.474643,753.929901 682.630643,753.773901 685.017643,753.747901 C686.559643,753.731901 689.476643,752.592901 691.499643,751.217901 C695.590643,748.437901 699.257643,747.860901 698.384643,750.134901 C697.698643,751.921901 700.133643,752.901901 703.291643,752.108901 L705.710643,751.501901 L702.962643,749.362901 C687.754643,737.519901 671.360643,721.679901 664.760643,712.451901 C662.273643,708.973901 661.107643,708.027901 660.446643,708.951901 C659.821643,709.824901 659.679643,709.574901 659.988643,708.143901 C660.233643,707.003901 659.393643,704.078901 658.119643,701.643901 C656.846643,699.209901 655.798643,697.892901 655.791643,698.717901 M432.742643,716.143901 C432.177643,717.630901 431.714643,719.268901 431.714643,719.782901 C431.714643,721.146901 430.784643,720.930901 429.008643,719.154901 C427.462643,717.608901 424.535643,717.617901 418.573643,719.185901 C416.968643,719.607901 415.658643,719.436901 415.234643,718.749901 C414.726643,717.928901 414.106643,717.974901 412.959643,718.918901 C411.567643,720.065901 411.461643,719.866901 412.056643,717.217901 L412.730643,714.217901 L411.283643,716.717901 C410.487643,718.092901 410.069643,720.342901 410.355643,721.717901 C410.718643,723.457901 410.589643,723.811901 409.934643,722.883901 C407.795643,719.853901 405.051643,738.746901 406.148643,748.957901 L406.871643,755.698901 L410.747643,750.795901 C412.878643,748.098901 415.091643,745.602901 415.663643,745.249901 C420.053643,742.535901 436.020643,715.689901 434.279643,713.948901 C433.999643,713.669901 433.307643,714.656901 432.742643,716.143901 M598.844643,723.217901 C598.703643,728.167901 597.998643,735.592901 597.277643,739.717901 L595.966643,747.217901 L595.840643,741.967901 C595.718643,736.903901 593.978643,734.863901 592.214643,737.717901 C591.874643,738.267901 590.610643,738.681901 589.405643,738.638901 C588.200643,738.595901 587.777643,738.332901 588.464643,738.055901 C589.152643,737.777901 589.714643,737.138901 589.714643,736.634901 C589.714643,735.256901 586.956643,735.531901 586.376643,736.967901 C585.920643,738.097901 585.302643,735.325901 585.596643,733.467901 C585.661643,733.054901 585.285643,732.717901 584.762643,732.717901 C584.217643,732.717901 583.623643,739.465901 583.374643,748.467901 C583.135643,757.130901 582.425643,768.216901 581.796643,773.103901 C580.482643,783.317901 580.680643,784.034901 583.567643,779.510901 C584.723643,777.699901 586.126643,775.542901 586.687643,774.717901 C588.219643,772.461901 593.310643,760.762901 594.737643,756.217901 C595.428643,754.017901 596.349643,751.092901 596.784643,749.717901 C598.234643,745.138901 599.903643,727.305901 599.498643,720.717901 C599.126643,714.653901 599.082643,714.821901 598.844643,723.217901 M557.184643,718.217901 C557.607643,720.880901 557.541643,720.978901 556.591643,719.093901 C554.892643,715.721901 539.214643,715.568901 538.152643,718.913901 L537.431643,721.184901 L536.551643,718.805901 C536.067643,717.497901 535.412643,716.686901 535.096643,717.002901 C534.133643,717.964901 540.580643,730.091901 544.712643,735.092901 C555.710643,748.401901 561.455643,753.815901 562.085643,751.464901 C563.975643,744.410901 562.117643,726.493901 558.772643,719.520901 C556.980643,715.785901 556.770643,715.613901 557.184643,718.217901 M447.293643,735.392901 C446.402643,738.083901 438.278643,750.057901 429.540643,761.557901 C425.319643,767.111901 421.291643,773.245901 420.589643,775.187901 C419.887643,777.128901 419.003643,778.717901 418.624643,778.717901 C418.246643,778.717901 417.647643,780.259901 417.294643,782.144901 C416.940643,784.029901 416.268643,785.717901 415.800643,785.894901 C415.333643,786.072901 414.629643,788.242901 414.237643,790.717901 C413.580643,794.861901 413.642643,795.060901 415.025643,793.235901 C416.443643,791.363901 416.798643,791.333901 421.371643,792.701901 C424.034643,793.498901 428.464643,794.235901 431.214643,794.338901 C438.701643,794.621901 438.689643,794.618901 438.147643,796.032901 C437.869643,796.756901 438.080643,798.443901 438.615643,799.782901 L439.587643,802.217901 L439.651643,799.467901 C439.685643,797.954901 440.164643,796.717901 440.714643,796.717901 C441.264643,796.717901 441.714643,796.142901 441.714643,795.439901 C441.714643,792.804901 458.244643,764.973901 461.742643,761.717901 C463.771643,759.830901 475.953643,738.623901 475.354643,738.023901 C474.805643,737.475901 470.714643,744.142901 470.714643,745.585901 C470.714643,747.032901 468.447643,747.050901 467.013643,745.616901 C465.768643,744.371901 445.706643,743.986901 443.789643,745.170901 C443.127643,745.580901 444.019643,743.375901 445.771643,740.270901 C447.523643,737.166901 448.718643,734.388901 448.426643,734.096901 C448.135643,733.805901 447.625643,734.388901 447.293643,735.392901 M383.464643,740.049901 C383.051643,741.056901 382.714643,742.830901 382.714643,743.990901 C382.714643,745.862901 382.573643,745.919901 381.464643,744.504901 C379.354643,741.812901 373.748643,743.288901 373.578643,746.580901 L373.442643,749.217901 L372.993643,746.717901 C372.429643,743.572901 370.714643,741.619901 370.714643,744.122901 C370.714643,751.673901 384.420643,783.717901 387.650643,783.717901 C388.071643,783.717901 387.777643,780.454901 386.997643,776.467901 C386.217643,772.480901 385.271643,762.242901 384.896643,753.717901 C384.520643,745.170901 383.878643,739.039901 383.464643,740.049901 M522.714643,741.395901 C522.714643,741.987901 523.389643,743.032901 524.214643,743.717901 C525.039643,744.402901 525.714643,745.527901 525.714643,746.217901 C525.714643,746.907901 526.400643,748.041901 527.238643,748.737901 C529.710643,750.789901 528.154643,751.020901 524.272643,749.177901 C521.762643,747.987901 519.147643,747.613901 515.661643,747.948901 C512.907643,748.213901 510.413643,748.039901 510.118643,747.562901 C509.824643,747.086901 508.683643,747.326901 507.584643,748.096901 C506.484643,748.866901 504.719643,749.270901 503.661643,748.993901 C502.478643,748.683901 501.504643,749.100901 501.129643,750.078901 C500.606643,751.440901 500.321643,751.467901 499.117643,750.263901 C497.380643,748.525901 497.320643,747.025901 498.964643,746.437901 C499.652643,746.192901 499.898643,745.651901 499.512643,745.235901 C499.125643,744.819901 498.164643,745.124901 497.375643,745.913901 C495.767643,747.521901 499.552643,755.468901 501.210643,753.965901 C501.664643,753.553901 501.706643,753.788901 501.304643,754.485901 C500.852643,755.270901 503.974643,760.431901 509.499643,768.030901 C517.534643,779.081901 520.850643,784.347901 526.991643,795.808901 L528.915643,799.399901 L532.526643,797.558901 C534.512643,796.545901 537.816643,795.717901 539.869643,795.717901 C542.540643,795.717901 544.024643,795.113901 545.088643,793.593901 C546.901643,791.006901 554.080643,791.601901 553.062643,794.254901 C552.753643,795.059901 553.038643,795.717901 553.695643,795.717901 C554.928643,795.717901 554.278643,788.994901 552.732643,785.755901 C546.497643,772.689901 534.323643,753.993901 530.449643,751.532901 C529.770643,751.101901 529.589643,750.741901 530.048643,750.732901 C530.507643,750.724901 529.414643,748.804901 527.620643,746.467901 C523.021643,740.475901 522.714643,740.157901 522.714643,741.395901 M500.815643,816.852901 C499.809643,819.123901 499.240643,819.569901 498.622643,818.568901 C497.503643,816.758901 484.471643,816.629901 485.161643,818.435901 C485.417643,819.105901 485.192643,819.921901 484.662643,820.249901 C484.131643,820.577901 483.331643,819.856901 482.883643,818.646901 C482.313643,817.105901 481.706643,820.005901 480.855643,828.332901 C480.187643,834.869901 479.218643,842.242901 478.703643,844.717901 C478.188643,847.192901 477.471643,852.142901 477.110643,855.717901 C476.749643,859.292901 476.025643,862.758901 475.501643,863.419901 C474.977643,864.080901 474.763643,865.430901 475.025643,866.419901 C475.440643,867.982901 475.597643,867.923901 476.225643,865.967901 C476.754643,864.319901 477.785643,863.677901 480.081643,863.567901 C483.186643,863.419901 483.189643,863.414901 480.404643,862.995901 C478.186643,862.662901 477.659643,862.114901 477.904643,860.395901 C478.308643,857.557901 485.714643,856.480901 485.714643,859.259901 C485.714643,860.707901 486.814643,860.877901 494.214643,860.570901 L502.714643,860.217901 L502.714643,863.408901 C502.714643,870.595901 504.509643,866.983901 505.681643,857.437901 C508.071643,837.975901 504.531643,808.456901 500.815643,816.852901" id="Shape" fill="#FED579"></path>
            <path d="M306.808831,530.629967 C271.237379,508.721514 266.630262,484.914847 292.98748,459.209967 C319.344697,433.505087 330.34201,455.438658 325.979416,525.010681 L306.808831,530.629967 Z" id="Path-10" fill="#FED579"></path>
            <path d="M668.623281,538.629967 C632.974632,516.673968 628.357517,492.815636 654.771935,467.054972 C681.186353,441.294308 692.207531,463.275479 687.83547,532.998486 L668.623281,538.629967 Z" id="Path-10" fill="#FED579" transform="translate(663.3378, 497.63) scale(-1, 1) translate(-663.3378, -497.63)"></path>
            <path d="M323.013603,389.865681 C311.782404,357.812349 309.468906,338.281553 316.07311,331.273292 C322.677314,324.265031 348.201164,323.516156 392.64466,329.026667 L340.323133,405.309233 L323.013603,389.865681 Z" id="Path-9" fill="#FED579"></path>
            <path d="M430.656272,299.026168 C450.782031,276.518481 469.248609,265.264638 486.056006,265.264638 C502.863403,265.264638 521.253639,276.518481 541.226714,299.026168 L430.656272,299.026168 Z" id="Path-11" fill="#FED579"></path>
            <path d="M583.263809,389.929424 C572.021507,357.844404 569.705722,338.2943 576.316456,331.27911 C582.927189,324.263921 608.476272,323.514305 652.963705,329.030264 L600.590452,405.388243 L583.263809,389.929424 Z" id="Path-9" fill="#FED579" transform="translate(612.8042, 365.3882) scale(-1, 1) translate(-612.8042, -365.3882)"></path>
            <path d="M409.363997,329.026667 C397.808175,348.855279 390.71075,366.80269 388.071722,382.868901 C384.113182,406.968216 380.154641,469.045073 384.113182,478.635453 C388.071722,488.225834 390.705642,521.927658 444.649806,521.927658 C457.868462,521.927658 448.827931,527.156847 446.898162,532.470357 C445.842152,535.378021 445.114477,540.856191 444.715137,548.904869 C413.104661,557.910796 391.845046,552.432626 380.93629,532.470357 C364.573156,502.526954 336.433953,413.194733 356.081636,385.538803 C369.180091,367.101516 386.940878,348.264138 409.363997,329.026667 Z" id="Path-7" fill="#FED579"></path>
            <path d="M575.540487,329.026667 C564.40125,348.14046 557.559687,365.440869 555.015796,380.927895 C551.19996,404.158433 547.384124,463.997426 551.19996,473.242075 C555.015796,482.486724 557.554763,514.973601 609.554247,514.973601 C622.296372,514.973601 613.581751,520.014278 611.72155,525.136237 C610.703609,527.93908 610.002166,533.219763 609.617222,540.978287 C579.1463,549.659552 558.653091,544.378868 548.137595,525.136237 C532.36435,496.27229 505.239562,410.160484 524.178948,383.501547 C536.805205,365.728923 553.925718,347.570629 575.540487,329.026667 Z" id="Path-7" fill="#FED579" transform="translate(567.0333, 437.0267) scale(-1, 1) translate(-567.0333, -437.0267)"></path>
            <path d="M168.294041,750.009575 C145.556546,772.784533 132.048442,791.736065 127.769729,806.86417 C123.491016,821.992275 133.098892,816.878868 156.593359,791.523951 C216.480771,776.960943 254.926851,778.92988 271.931599,797.430761 C288.936347,815.931641 361.252052,844.906261 488.878715,884.354621 L778.419922,777.434557 L838.644125,806.363411 C828.678002,784.617956 815.018504,765.833345 797.66563,750.009575 C780.312756,734.185806 771.834265,711.459756 772.230158,681.831426 C744.299916,698.370995 727.833954,706.640779 722.832272,706.640779 C715.329749,706.640779 645.963591,698.69076 628.065859,716.459943 C610.168127,734.229125 581.763655,736.275639 574.366081,734.229125 C566.968506,732.182611 568.377553,713.04785 547.02063,716.974768 C525.663706,720.901686 532.453013,734.800303 532.453013,734.800303 C532.453013,734.800303 554.203649,748.020843 539.933677,750.009575 C525.663706,751.998308 432.936252,740.811821 426.545754,740.811821 C420.155255,740.811821 448.080245,720.394999 441.245987,720.394999 C434.41173,720.394999 397.82899,712.695194 397.82899,720.394999 C397.82899,728.094804 394.132376,738.458057 389.830994,740.811821 C385.529612,743.165586 362.954104,746.765048 357.20024,736.93089 C351.446377,727.096731 336.586258,694.425785 310.156631,697.80125 C283.727003,701.176715 247.87305,699.708396 244.443801,697.80125 C241.014553,695.894103 218.144895,673.900381 211.913842,657.717901 C207.759806,646.92958 193.219873,677.693472 168.294041,750.009575 Z" id="Path-6" fill="#FED579"></path>
            <path d="M184.563076,376.715164 C182.159374,402.979098 182.417043,418.712205 185.336083,423.914483 C189.714643,431.717901 144.284099,445.17222 144.284099,445.17222 C144.284099,445.17222 146.565605,467.381421 158.432027,467.381421 C166.342974,467.381421 168.846226,470.287209 165.941782,476.098785 C175.505736,499.118396 181.712834,512.051502 184.563076,514.898103 C187.413317,517.744705 195.014753,522.365597 207.367383,528.760778 C212.041548,567.14783 212.808208,586.69362 209.667365,587.398149 C184.563076,593.029344 206.977978,640.464359 209.667365,643.699031 C213.55516,648.375094 191.025918,653.048051 142.07964,657.717901 L94.4661788,450.479675 L148.681594,348.013462 L184.563076,376.715164 Z" id="Path-8" fill="#FED579"></path>
            <path d="M844.161872,373.557206 C841.771398,399.676598 842.027649,415.323119 844.930624,420.496766 C849.285087,428.257238 804.104568,441.637513 804.104568,441.637513 C804.104568,441.637513 806.373517,463.724487 818.174633,463.724487 C826.042043,463.724487 828.531519,466.614283 825.643059,472.393876 C835.154378,495.286799 841.327316,508.148729 844.161872,510.979664 C846.996427,513.8106 854.556029,518.406061 866.840677,524.766047 C871.489117,562.941838 872.251559,582.380059 869.128001,583.08071 C844.161872,588.680915 866.453415,635.854874 869.128001,639.071744 C872.9944,643.722073 850.589147,648.369312 801.912241,653.013462 L754.560817,446.915759 L808.477862,345.013462 L844.161872,373.557206 Z" id="Path-8" fill="#FED579" transform="translate(812.7859, 499.0135) scale(-1, 1) translate(-812.7859, -499.0135)"></path>
            <path d="M409.363997,329.026667 C397.808175,348.855279 390.71075,366.80269 388.071722,382.868901 C384.113182,406.968216 380.154641,469.045073 384.113182,478.635453 C388.071722,488.225834 390.705642,521.927658 444.649806,521.927658 C457.868462,521.927658 448.827931,527.156847 446.898162,532.470357 C445.842152,535.378021 445.114477,540.856191 444.715137,548.904869 C413.104661,557.910796 391.845046,552.432626 380.93629,532.470357 C364.573156,502.526954 336.433953,413.194733 356.081636,385.538803 C369.180091,367.101516 386.940878,348.264138 409.363997,329.026667 Z" id="Path-7" fill="#FED579"></path>
            <path d="M174.739087,188.268042 C147.48849,219.766167 132.968434,238.499871 129.211738,252.733329 C126.707274,262.222301 136.504434,254.537157 158.603217,229.677898 C215.908936,221.338495 253.073927,226.42985 270.098192,244.951965 C287.122457,263.474079 359.521161,292.481954 487.294305,331.975589 L770.970957,217.475589 L831.453843,242.556486 C826.301426,222.206121 815.038823,204.109973 797.666033,188.268042 C780.293242,172.426112 773.028188,144.696348 775.87087,105.078752 C744.641963,137.731438 726.523799,154.057781 721.516376,154.057781 C714.005242,154.057781 644.55947,146.098638 626.641197,163.888214 C608.722923,181.677791 565.211576,217.515369 550.925227,219.506384 C536.638878,221.497399 409.748851,213.803142 403.351018,213.803142 C396.953185,213.803142 361.225166,194.228102 355.464699,184.382656 C349.704231,174.537211 334.827057,141.828767 308.367096,145.208107 C281.907134,148.587446 246.01203,147.117442 242.578846,145.208107 C239.145662,143.298771 216.249756,121.279806 210.011551,105.078752 C203.773346,88.8776992 201.989685,156.769917 174.739087,188.268042 Z" id="Path-6" fill="#FED579" transform="translate(480.1416, 217.2964) scale(1, -1) translate(-480.1416, -217.2964)"></path>
            <g id="Dark-Orange" transform="translate(28.2385, 26.2965)" fill="#FA9B00">
                <path d="M306.985425,322.54695 C297.417573,336.726149 315.667303,364.649338 316.659952,382.36363 C317.652601,400.077923 315.640286,399.136139 312.084603,413.54418 C308.52892,427.952221 301.163188,429.129765 287.83458,446.49715 C274.505971,463.864535 274.505971,468.151767 294.775072,486.367993 C315.044173,504.584218 316.579832,493.382254 339.174292,515.25341 C354.237265,529.834181 369.903081,541.795325 386.171741,551.136841 L412.580446,538.649117 L416.411276,521.777184 L416.411276,515.25341 C385.615663,510.963299 365.436788,502.079366 355.874651,488.601613 C341.531446,468.384983 336.334626,434.581759 336.334626,418.875729 C336.334626,403.1697 336.334626,390.462692 341.120268,374.614246 C345.90591,358.765801 366.132441,325.083047 361.69835,321.716971 C359.538426,320.077296 348.369418,305.174479 341.120268,310.238669 C333.871117,315.302859 311.892607,315.27469 306.985425,322.54695 Z" id="Path-2"></path>
                <path d="M72.6134891,417.207447 C72.6134891,431.702301 95.5665635,483.931428 105.806066,491.322809 C116.045569,498.714191 129.659888,538.175631 129.659888,551.193821 C129.659888,564.212011 127.058818,603.383671 132.909829,617.40254 C136.810503,626.748454 129.58264,640.778408 111.226239,659.492403 L88.3827216,634.698944 L65.7440811,527.577369 L53.3587346,486.367993 L-1.42108547e-14,475.358173 C35.8634044,462.126771 55.7866024,452.50643 59.7695939,446.49715 C63.7525854,440.48787 70.1443931,403.962755 78.945017,336.921806 L101.307112,306.217694 L129.659888,336.921806 C114.777765,357.803175 107.336703,371.953552 107.336703,379.372937 C107.336703,390.502015 72.6134891,402.712592 72.6134891,417.207447 Z" id="Path-4"></path>
                <path d="M848.492275,420.12114 C848.492275,434.604724 871.427501,486.793237 881.659041,494.178871 C891.890582,501.564504 905.494315,540.995259 905.494315,554.003326 C905.494315,567.011393 902.895267,606.152592 908.741728,620.160561 C912.639369,629.499207 905.417126,643.518251 887.075,662.217694 L864.249245,637.443515 L841.628209,530.405238 L829.252493,489.227907 L775.935251,478.226648 C811.770768,465.005535 831.678473,455.392675 835.658367,449.388068 C839.638262,443.383461 846.025099,406.886748 854.81888,339.89793 L877.163586,309.217694 L905.494315,339.89793 C890.623764,360.763062 883.188488,374.902436 883.188488,382.316051 C883.188488,393.436475 848.492275,405.637557 848.492275,420.12114 Z" id="Path-4-Copy" transform="translate(842.8508, 485.7177) scale(-1, 1) translate(-842.8508, -485.7177)"></path>
                <path d="M525.833093,322.550094 C516.262987,336.732633 534.517015,364.662398 535.509898,382.380863 C536.502781,400.099327 534.489991,399.157322 530.933471,413.568756 C527.376951,427.98019 520.009484,429.158012 506.677737,446.529487 C493.34599,463.900962 493.34599,468.189204 513.619864,486.409719 C533.893738,504.630234 535.429759,493.425632 558.02954,515.301939 C573.096061,529.886144 588.765567,541.850105 605.038058,551.193821 L631.452982,538.703156 L635.284714,521.82725 L635.284714,515.301939 C604.481849,511.010818 584.298221,502.124793 574.733832,488.643866 C560.387249,468.422474 555.189205,434.611289 555.189205,418.901561 C555.189205,403.191832 555.189205,390.481831 559.975974,374.629654 C564.762743,358.777476 584.994038,325.086789 580.558903,321.719921 C578.39847,320.079859 567.226832,305.173532 559.975974,310.238915 C552.725117,315.304297 530.74143,315.276122 525.833093,322.550094 Z" id="Path-2-Copy" transform="translate(566.348, 430.1938) scale(-1, 1) translate(-566.348, -430.1938)"></path>
                <path d="M278.5703,181.65947 C351.762684,132.31304 393.045164,105.900353 402.417741,102.42141 C411.790318,98.9424671 437.889688,106.003941 480.715851,123.60583 L530.065285,108.432343 L633.255361,170.402677 L617.437301,102.42141 L474.81159,62.2435909 L457.817476,0 L424.989511,75.6179848 L304.284776,102.42141 L264.748949,152.433815 L278.5703,181.65947 Z" id="Path-5"></path>
                <path d="M323.207846,690.678278 L281.9181,780.06692 L285.161747,839.769302 L432.101844,885.252699 L456.372469,944.65555 L486.156036,872.73041 L552.779725,863.524363 L623.740268,839.769302 L731.208054,755.430891 L700.105368,706.187879 C674.666506,721.591071 655.579274,731.381132 642.843672,735.558063 C630.108069,739.734993 614.414216,732.430485 595.762112,713.644539 C584.78304,722.82912 579.293504,727.42141 579.293504,727.42141 C579.293504,727.42141 570.455578,744.121687 552.779725,777.522242 L539.298059,762.059476 C517.694198,770.233544 502.529531,774.854189 493.804059,775.92141 C480.715851,777.522242 494.503909,821.649793 486.156036,830.524631 C477.808164,839.39947 448.14426,834.796941 437.933347,824.89965 C431.126073,818.301456 426.532505,802.508986 424.152644,777.522242 C398.658345,770.875872 382.26625,768.59606 374.976359,770.682804 C367.686468,772.769548 356.108228,764.230772 340.241638,745.066475 L323.207846,690.678278 Z" id="Path-3"></path>
            </g>
            <path d="M480.283643,9.07990051 C474.843643,28.4079005 471.158643,39.4309005 458.505643,74.2179005 C455.652643,82.0619005 454.512643,83.7179005 451.965643,83.7179005 C439.441643,83.7179005 390.716643,94.7499005 363.856643,103.666901 C309.260643,121.791901 259.674643,150.365901 215.208643,189.326901 C191.426643,210.163901 193.219643,209.235901 183.714643,205.630901 C163.479643,197.954901 146.887643,185.929901 132.484643,168.498901 C122.166643,156.011901 120.481643,157.139901 125.434643,173.217901 C133.589643,199.685901 145.096643,210.599901 183.714643,228.496901 C205.289643,238.494901 216.403643,251.991901 226.304643,280.217901 C237.111643,311.029901 253.792643,324.536901 294.214643,335.205901 C309.878643,339.339901 318.458643,342.479901 325.788643,346.760901 C329.514643,348.936901 332.861643,350.717901 333.226643,350.717901 C335.029643,350.717901 331.914643,340.956901 326.683643,330.217901 C323.469643,323.617901 319.185643,313.267901 317.164643,307.217901 C305.980643,273.747901 288.487643,257.032901 237.714643,231.299901 C220.622643,222.637901 220.858643,222.456901 245.512643,225.295901 C298.976643,231.453901 329.659643,252.924901 341.144643,292.217901 C342.732643,297.651901 346.146643,307.631901 348.957643,315.058901 C350.764643,319.832901 357.652643,329.957901 362.458643,334.902901 L367.011643,339.587901 L361.063643,346.077901 C357.792643,349.647901 351.538643,357.787901 347.165643,364.166901 C337.547643,378.197901 337.954643,377.538901 336.679643,381.122901 L335.646643,384.026901 L332.930643,381.495901 C322.231643,371.526901 306.510643,364.105901 285.714643,359.207901 C238.953643,348.194901 213.091643,326.051901 199.296643,285.217901 C190.085643,257.953901 172.181643,233.715901 166.523643,240.848901 C139.945643,274.351901 114.766643,318.885901 101.126643,356.515901 C93.4616427,377.660901 87.0986427,398.503901 84.7966427,410.006901 C84.3336427,412.322901 83.0346427,418.717901 81.9096427,424.217901 C76.9006427,448.703901 74.8016427,462.387901 74.7456427,470.916901 C74.6756427,481.573901 37.2796427,496.245901 3.22364267,498.977901 C-0.692357327,499.291901 -1.14535733,501.865901 2.44164267,503.419901 C24.4216427,512.944901 31.9076427,515.576901 45.7146427,518.631901 C61.6646427,522.160901 64.8686427,522.717901 69.2316427,522.717901 C74.7396427,522.717901 74.2996427,521.596901 75.7026427,539.217901 C77.5726427,562.715901 81.4946427,583.311901 90.1456427,615.060901 C100.173643,651.863901 124.271643,701.694901 152.151643,743.278901 C160.817643,756.204901 162.067643,757.106901 165.790643,753.122901 C169.026643,749.658901 179.485643,743.520901 188.714643,739.669901 C206.309643,732.327901 212.631643,731.395901 245.714643,731.264901 L273.214643,731.156901 L280.682643,728.311901 C298.160643,721.654901 308.871643,709.271901 316.229643,687.217901 C319.971643,676.003901 324.560643,665.164901 328.152643,659.052901 C342.095643,635.335901 342.714643,634.761901 342.714643,645.568901 C342.714643,649.336901 343.115643,653.723901 343.605643,655.318901 C344.096643,656.912901 345.295643,662.042901 346.271643,666.717901 C347.247643,671.392901 348.428643,675.988901 348.895643,676.930901 C349.484643,678.117901 348.666643,680.977901 346.229643,686.253901 C344.296643,690.438901 342.714643,694.047901 342.714643,694.273901 C342.714643,694.498901 340.678643,698.925901 338.189643,704.110901 C316.933643,748.394901 287.490643,763.194901 231.868643,757.555901 C205.598643,754.892901 182.058643,761.786901 155.412643,779.948901 C131.650643,796.144901 119.714643,815.549901 119.714643,837.984901 C119.714643,843.570901 121.101643,842.579901 129.390643,831.070901 C144.535643,810.041901 162.470643,797.289901 184.059643,792.198901 C194.412643,789.757901 195.245643,789.977901 202.097643,796.967901 C251.440643,847.307901 311.749643,882.783901 382.735643,903.225901 C403.132643,909.099901 435.918643,916.204901 448.292643,917.432901 L453.370643,917.936901 L456.542643,924.949901 C458.287643,928.806901 459.714643,932.491901 459.714643,933.139901 C459.714643,933.787901 460.113643,934.745901 460.600643,935.267901 C461.999643,936.767901 468.897643,957.744901 480.395643,995.466901 C482.890643,1003.6509 485.714643,1007.7239 485.714643,1003.1369 C485.714643,1002.2669 487.334643,996.304901 489.315643,989.886901 C491.295643,983.468901 493.283643,976.867901 493.731643,975.217901 C495.641643,968.196901 500.896643,953.165901 506.492643,938.717901 C514.894643,917.027901 514.516643,917.717901 518.009643,917.717901 C535.680643,917.717901 581.793643,906.271901 624.714643,891.232901 C669.737643,875.455901 721.755643,841.634901 764.016643,800.660901 C775.952643,789.087901 776.791643,788.903901 791.214643,794.677901 C792.314643,795.117901 795.239643,796.287901 797.714643,797.275901 C811.169643,802.650901 828.131643,816.876901 839.163643,832.039901 C846.772643,842.496901 847.714643,842.916901 847.714643,835.846901 C847.714643,812.173901 832.048643,791.428901 804.214643,778.242901 C798.714643,775.637901 790.562643,771.769901 786.099643,769.647901 C763.590643,758.946901 753.098643,746.798901 744.720643,721.734901 C734.810643,692.089901 724.822643,681.158901 696.714643,669.197901 C653.943643,650.995901 634.743643,630.135901 625.397643,591.717901 C624.528643,588.142901 622.396643,579.508901 620.661643,572.530901 C617.228643,558.727901 617.126643,555.444901 620.312643,561.393901 C642.879643,603.520901 666.663643,627.533901 700.714643,642.570901 C704.839643,644.392901 709.114643,646.280901 710.214643,646.766901 C711.314643,647.252901 714.849643,648.786901 718.069643,650.175901 C743.287643,661.051901 757.435643,677.872901 767.727643,709.217901 C773.845643,727.850901 777.410643,734.318901 787.875643,745.777901 C794.045643,752.533901 806.325643,761.472901 805.119643,758.331901 C804.827643,757.568901 807.230643,753.406901 810.461643,749.081901 C832.828643,719.133901 849.971643,688.911901 862.001643,658.217901 C867.267643,644.780901 872.263643,630.907901 874.063643,624.717901 C874.943643,621.692901 876.777643,615.392901 878.137643,610.717901 C885.386643,585.807901 889.567643,561.413901 891.261643,534.145901 L891.948643,523.073901 L899.081643,521.927901 C903.004643,521.296901 908.464643,520.524901 911.214643,520.212901 C940.877643,516.842901 975.796643,500.485901 958.714643,497.961901 C936.735643,494.714901 920.327643,489.980901 903.579643,482.055901 L893.792643,477.423901 L892.804643,472.320901 C892.261643,469.513901 891.074643,461.367901 890.167643,454.217901 C886.996643,429.239901 883.433643,411.039901 878.125643,392.717901 C876.771643,388.042901 874.951643,381.742901 874.080643,378.717901 C861.513643,335.073901 824.822643,265.352901 803.926643,245.410901 L800.985643,242.602901 L796.461643,245.655901 C779.303643,257.235901 766.565643,259.641901 736.214643,257.035901 C685.208643,252.656901 665.481643,263.835901 651.191643,305.217901 C649.672643,309.617901 646.457643,317.563901 644.047643,322.875901 C640.199643,331.357901 633.714643,349.563901 633.714643,351.883901 C633.714643,352.341901 636.304643,350.704901 639.470643,348.245901 C646.602643,342.707901 654.245643,339.555901 671.103643,335.203901 C692.364643,329.713901 698.763643,327.528901 707.199643,322.876901 C722.761643,314.294901 733.807643,303.900901 742.670643,289.496901 L747.724643,281.284901 L755.469643,281.542901 C759.729643,281.683901 764.670643,281.364901 766.451643,280.832901 C770.750643,279.547901 771.040643,280.392901 768.724643,287.449901 C756.328643,325.210901 726.718643,349.786901 681.714643,359.668901 C660.037643,364.427901 648.874643,369.165901 639.630643,377.531901 C633.146643,383.399901 633.189643,383.398901 630.219643,377.744901 C626.125643,369.952901 614.620643,353.977901 607.697643,346.469901 L600.551643,338.721901 L606.649643,331.969901 C614.020643,323.806901 618.970643,314.060901 625.092643,295.654901 C641.288643,246.964901 677.021643,224.857901 729.214643,231.236901 C771.732643,236.433901 790.621643,232.903901 814.640643,215.272901 C828.394643,205.175901 844.714643,175.979901 844.714643,161.470901 C844.714643,157.358901 843.487643,158.039901 837.461643,165.497901 C821.928643,184.722901 804.329643,197.781901 784.504643,204.791901 C773.724643,208.603901 773.607643,208.588901 768.004643,202.588901 C725.493643,157.069901 643.436643,110.957901 572.714643,92.8449005 C557.444643,88.9339005 552.995643,88.1119005 531.214643,85.1769005 C514.632643,82.9429005 515.124643,83.1249005 512.919643,78.4059005 C506.494643,64.6549005 498.992643,43.6729005 488.107643,9.00490051 C484.332643,-3.01709949 483.686643,-3.01109949 480.283643,9.07990051 M484.442643,46.3489005 C484.141643,46.8349005 483.580643,49.0299005 483.194643,51.2259005 C481.176643,62.7049005 472.657643,89.4889005 462.998643,114.717901 C445.603643,160.157901 447.543643,179.359901 473.946643,223.074901 C483.736643,239.284901 487.714643,247.424901 487.714643,251.246901 C487.714643,254.885901 489.463643,254.253901 491.255643,249.967901 C495.865643,238.939901 495.300643,225.961901 489.269643,204.385901 C482.679643,180.805901 480.867643,156.338901 484.741643,143.217901 C485.390643,141.017901 486.992643,135.617901 488.300643,131.217901 C495.480643,107.061901 496.924643,94.2669005 494.309643,77.9399005 C492.146643,64.4269005 485.808643,44.1379005 484.442643,46.3489005 M513.714643,111.934901 C513.714643,114.803901 512.985643,119.058901 512.095643,121.389901 C510.477643,125.627901 510.477643,125.630901 513.451643,129.423901 C542.803643,166.861901 537.862643,228.540901 502.678643,263.887901 C471.374643,295.335901 428.805643,239.570901 428.731643,167.016901 C428.716643,151.866901 429.124643,147.112901 431.323643,136.792901 C432.492643,131.307901 428.716643,137.157901 424.235643,147.773901 C404.906643,193.567901 407.438643,234.367901 431.616643,266.717901 C438.650643,276.127901 446.714643,290.703901 446.714643,294.004901 C446.714643,296.061901 446.743643,296.062901 458.714643,294.217901 C470.158643,292.453901 494.074643,292.280901 505.740643,293.876901 C520.316643,295.871901 519.440643,296.142901 522.423643,288.717901 C525.529643,280.987901 527.669643,277.446901 537.236643,264.217901 C568.560643,220.897901 561.734643,153.524901 521.861643,112.467901 C514.838643,105.236901 513.714643,105.163901 513.714643,111.934901 M334.293643,137.806901 C311.362643,165.058901 323.843643,216.831901 367.633643,276.108901 C374.142643,284.918901 385.390643,304.470901 388.761643,312.835901 L391.956643,320.760901 L395.085643,318.711901 C396.806643,317.584901 401.139643,315.014901 404.714643,312.998901 C413.019643,308.317901 412.942643,308.480901 410.005643,301.839901 C395.664643,269.408901 386.667643,253.853901 371.183643,234.717901 C340.894643,197.284901 332.445643,172.824901 340.268643,145.217901 C343.363643,134.292901 340.371643,130.582901 334.293643,137.806901 M625.714643,136.976901 C625.714643,138.287901 626.378643,141.353901 627.189643,143.789901 C635.885643,169.891901 628.712643,191.243901 597.651643,231.717901 C577.797643,257.587901 568.480643,273.733901 560.334643,296.385901 C555.860643,308.822901 555.835643,308.230901 560.964643,310.836901 C563.301643,312.023901 567.602643,314.518901 570.521643,316.380901 C576.614643,320.266901 577.258643,320.123901 578.761643,314.544901 C581.344643,304.948901 593.042643,283.701901 605.642643,265.717901 C640.954643,215.317901 651.826643,179.146901 640.645643,149.263901 C636.425643,137.983901 625.714643,129.168901 625.714643,136.976901 M464.714643,320.218901 C406.320643,329.376901 363.201643,370.484901 347.283643,432.172901 C343.649643,446.253901 343.758643,446.599901 350.484643,442.373901 C403.245643,409.224901 447.677643,409.275901 463.494643,442.503901 L466.214643,448.217901 L466.152643,489.979901 C466.084643,536.407901 466.322643,534.826901 459.663643,533.049901 C453.920643,531.516901 451.214643,533.774901 451.214643,540.101901 C451.214643,546.771901 454.135643,549.507901 459.531643,547.890901 C465.408643,546.129901 467.053643,546.407901 472.524643,550.089901 C480.855643,555.696901 488.766643,555.736901 495.152643,550.205901 C499.092643,546.794901 502.106643,546.183901 507.801643,547.643901 C515.071643,549.506901 518.714643,546.739901 518.714643,539.354901 C518.714643,533.907901 516.473643,532.373901 509.644643,533.145901 L503.934643,533.791901 L503.235643,515.504901 C502.851643,505.446901 502.689643,485.967901 502.875643,472.217901 L503.214643,447.217901 L506.525643,440.717901 C519.530643,415.183901 557.494643,409.964901 592.214643,428.936901 C605.543643,436.219901 621.720643,444.045901 622.283643,443.482901 C622.963643,442.801901 621.052643,428.450901 619.718643,424.221901 C619.196643,422.569901 618.050643,418.742901 617.170643,415.717901 C599.535643,355.061901 528.052643,310.284901 464.714643,320.218901 M126.321643,350.299901 C120.031643,366.690901 149.026643,399.018901 179.464643,409.551901 C192.199643,413.959901 201.237643,414.819901 227.714643,414.145901 C266.523643,413.157901 286.756643,418.433901 308.186643,435.129901 C315.400643,440.750901 316.714643,441.106901 316.714643,437.442901 C316.714643,436.256901 317.668643,430.830901 318.834643,425.384901 L320.954643,415.483901 L318.084643,413.089901 C289.336643,389.109901 275.815643,386.188901 208.214643,389.353901 C175.219643,390.898901 148.155643,378.686901 135.089643,356.359901 C130.534643,348.576901 127.727643,346.636901 126.321643,350.299901 M836.056643,351.467901 C834.665643,352.979901 831.206643,357.564901 828.370643,361.655901 C819.846643,373.950901 806.651643,382.493901 788.516643,387.457901 C781.201643,389.459901 756.660643,389.800901 725.714643,388.329901 C696.204643,386.927901 679.473643,391.612901 657.505643,407.429901 C646.144643,415.609901 646.218643,415.495901 648.073643,421.897901 C648.922643,424.823901 649.925643,430.255901 650.303643,433.967901 C651.094643,441.738901 651.396643,441.902901 656.474643,437.315901 C675.668643,419.974901 703.049643,412.353901 738.953643,414.359901 C786.328643,417.006901 820.997643,401.127901 839.013643,368.531901 C845.907643,356.057901 843.677643,343.184901 836.056643,351.467901 M400.417643,441.215901 C381.656643,446.373901 384.035643,448.490901 409.214643,449.045901 C418.564643,449.251901 427.226643,449.764901 428.464643,450.185901 C431.536643,451.230901 431.365643,449.430901 428.036643,445.694901 C423.195643,440.261901 411.049643,438.291901 400.417643,441.215901 M546.214643,441.575901 C535.326643,446.720901 534.826643,450.770901 545.214643,449.671901 C549.614643,449.206901 558.614643,448.794901 565.214643,448.756901 C579.130643,448.675901 581.425643,447.923901 576.540643,445.044901 C568.170643,440.111901 552.987643,438.374901 546.214643,441.575901 M152.714643,449.723901 C132.656643,451.067901 117.871643,457.337901 88.7146427,476.863901 C69.7866427,489.538901 60.8856427,494.647901 52.4126427,497.696901 C45.6226427,500.140901 46.3006427,501.058901 55.8486427,502.343901 C79.1366427,505.477901 101.228643,500.049901 122.214643,486.037901 C136.481643,476.510901 170.231643,456.768901 176.499643,454.281901 C179.642643,453.035901 183.114643,451.660901 184.214643,451.228901 C189.761643,449.047901 174.017643,448.295901 152.714643,449.723901 M794.214643,450.151901 C793.664643,450.372901 791.527643,450.835901 789.464643,451.180901 C784.893643,451.945901 784.645643,453.448901 788.849643,454.914901 C796.776643,457.677901 813.427643,466.726901 831.916643,478.319901 C867.786643,500.810901 884.884643,505.906901 914.942643,503.067901 L921.669643,502.432901 L909.676643,496.619901 C903.080643,493.421901 893.157643,487.748901 887.623643,484.011901 C846.451643,456.206901 833.861643,450.798901 808.714643,450.115901 C801.289643,449.913901 794.764643,449.930901 794.214643,450.151901 M344.981643,457.368901 C334.626643,478.425901 364.671643,540.217901 394.714643,559.650901 C411.263643,570.354901 416.003643,571.339901 420.716643,565.049901 C423.322643,561.571901 426.428643,559.200901 432.898643,555.751901 C439.721643,552.112901 441.385643,550.810901 440.663643,549.669901 C438.040643,545.523901 440.602643,525.242901 444.588643,518.595901 C454.119643,502.704901 446.037643,474.468901 433.826643,480.993901 C425.560643,485.410901 417.087643,488.681901 413.845643,488.706901 C413.093643,488.712901 414.564643,486.579901 417.114643,483.967901 C428.869643,471.927901 428.036643,469.131901 412.489643,468.456901 C401.358643,467.972901 397.203643,467.240901 391.214643,464.706901 C390.114643,464.241901 386.964643,463.203901 384.214643,462.401901 C362.020643,455.924901 346.660643,453.954901 344.981643,457.368901 M611.631643,456.122901 C611.402643,456.344901 608.248643,456.810901 604.624643,457.157901 C600.999643,457.504901 590.874643,460.052901 582.124643,462.820901 C564.189643,468.494901 564.428643,468.447901 552.464643,468.603901 C544.347643,468.709901 543.714643,468.865901 543.714643,470.767901 C543.714643,475.143901 548.352643,480.964901 555.738643,485.858901 C559.545643,488.380901 557.457643,489.085901 551.025643,487.449901 C544.514643,485.792901 537.065643,482.536901 531.491643,478.909901 C528.879643,477.210901 527.014643,476.676901 525.241643,477.121901 L522.714643,477.755901 L522.714643,498.036901 C522.714643,509.191901 523.090643,518.745901 523.549643,519.267901 C526.534643,522.664901 528.211643,530.684901 528.213643,541.560901 L528.214643,552.903901 L532.055643,554.223901 C536.598643,555.785901 544.395643,562.107901 547.214643,566.513901 C551.581643,573.340901 569.740643,564.453901 588.589643,546.264901 C610.486643,525.134901 620.866643,500.990901 623.325643,465.467901 L624.000643,455.717901 L618.024643,455.717901 C614.737643,455.717901 611.860643,455.899901 611.631643,456.122901 M224.749643,459.769901 C206.579643,463.709901 184.698643,473.372901 165.714643,485.841901 C152.309643,494.646901 145.736643,498.717901 144.927643,498.717901 C144.515643,498.717901 142.429643,499.905901 140.292643,501.358901 L136.405643,503.999901 L139.278643,505.504901 C150.540643,511.405901 173.122643,508.336901 197.510643,497.591901 C204.822643,494.368901 212.022643,491.442901 213.510643,491.087901 C214.997643,490.732901 216.664643,490.113901 217.214643,489.711901 C221.504643,486.577901 250.090643,485.202901 260.714643,487.617901 C270.715643,489.891901 281.743643,494.802901 287.546643,499.565901 L290.878643,502.299901 L283.981643,502.362901 C274.289643,502.451901 263.735643,508.233901 248.714643,521.685901 C212.555643,554.066901 166.218643,553.476901 123.667643,520.093901 L118.120643,515.741901 L112.695643,517.724901 C109.711643,518.814901 104.432643,519.998901 100.964643,520.353901 C92.7456427,521.195901 92.6226427,521.674901 98.9066427,528.374901 C150.401643,583.288901 224.038643,586.605901 273.683643,536.249901 C289.462643,520.244901 299.615643,514.087901 314.096643,511.739901 C321.495643,510.540901 321.074643,511.441901 318.824643,501.617901 C317.765643,496.997901 316.606643,489.617901 316.247643,485.217901 C315.464643,475.609901 315.382643,475.512901 306.918643,474.096901 C303.231643,473.479901 294.139643,470.462901 286.714643,467.392901 C264.705643,458.290901 243.563643,455.689901 224.749643,459.769901 M708.325643,458.753901 C699.743643,460.103901 690.726643,462.887901 677.714643,468.204901 C663.964643,473.822901 658.163643,475.692901 654.433643,475.706901 C651.116643,475.719901 651.203643,475.470901 649.883643,488.717901 C649.308643,494.492901 648.359643,501.429901 647.775643,504.133901 C646.480643,510.125901 645.797643,509.496901 656.035643,511.733901 C670.341643,514.859901 677.432643,519.461901 696.214643,537.807901 C721.413643,562.419901 745.672643,573.290901 770.714643,571.190901 C772.639643,571.029901 778.039643,570.590901 782.714643,570.215901 C809.831643,568.040901 837.020643,556.179901 859.508643,536.714901 C872.776643,525.231901 875.047643,520.803901 867.714643,520.719901 C866.339643,520.703901 861.527643,519.407901 857.021643,517.838901 L848.828643,514.986901 L841.572643,520.900901 C801.732643,553.372901 753.539643,552.987901 715.989643,519.898901 C703.748643,509.112901 694.144643,503.775901 682.464643,501.269901 C678.229643,500.360901 679.053643,499.415901 687.964643,494.964901 C701.832643,488.036901 709.103643,486.329901 724.714643,486.335901 C741.915643,486.341901 744.532643,487.038901 767.214643,497.659901 C779.953643,503.624901 779.746643,503.533901 784.714643,505.336901 C791.628643,507.844901 821.815643,508.540901 827.141643,506.313901 C831.629643,504.437901 831.493643,504.208901 823.214643,499.679901 C815.749643,495.596901 802.238643,487.189901 798.120643,484.065901 C796.418643,482.773901 794.738643,481.717901 794.387643,481.717901 C794.036643,481.717901 790.929643,479.996901 787.482643,477.893901 C762.835643,462.854901 731.072643,455.174901 708.325643,458.753901 M327.206643,538.492901 C301.895643,562.015901 296.392643,566.350901 279.198643,576.311901 C267.014643,583.370901 253.124643,589.064901 239.312643,592.663901 C229.196643,595.298901 222.856643,596.521901 202.214643,599.818901 C174.800643,604.198901 164.960643,607.763901 147.130643,619.780901 C134.045643,628.598901 125.782643,640.569901 124.912643,651.967901 L124.474643,657.717901 L127.449643,657.717901 C129.966643,657.717901 131.096643,656.755901 134.788643,651.467901 C149.104643,630.964901 162.050643,625.496901 200.492643,623.716901 C222.391643,622.702901 235.045643,621.392901 242.951643,619.318901 C291.446643,606.599901 318.835643,584.737901 329.101643,550.552901 C334.060643,534.040901 333.797643,532.367901 327.206643,538.492901 M636.314643,537.467901 C649.200643,593.023901 691.174643,619.664901 772.214643,623.724901 C807.149643,625.475901 820.612643,631.423901 833.890643,650.976901 C840.187643,660.248901 843.084643,659.778901 842.453643,649.586901 C840.978643,625.793901 802.700643,602.865901 756.714643,598.230901 C744.861643,597.035901 722.628643,591.397901 710.340643,586.469901 C692.048643,579.133901 674.022643,567.081901 653.214643,548.275901 C637.693643,534.247901 635.197643,532.651901 636.314643,537.467901 M346.102643,566.967901 C320.786643,609.079901 295.932643,632.159901 261.923643,645.137901 C236.431643,654.865901 219.112643,669.008901 208.331643,688.898901 C195.965643,711.715901 195.876643,712.526901 206.047643,709.698901 C209.806643,708.652901 215.656643,707.495901 219.047643,707.126901 C227.119643,706.246901 227.711643,705.876901 233.076643,698.358901 C243.151643,684.240901 255.028643,675.807901 276.373643,667.617901 C314.688643,652.917901 334.154643,630.748901 345.217643,589.217901 C353.282643,558.936901 353.449643,554.745901 346.102643,566.967901 M375.104643,569.496901 C372.077643,571.460901 364.895643,592.128901 362.334643,606.243901 C357.658643,632.012901 363.134643,676.614901 369.193643,662.113901 C376.237643,645.255901 388.153643,634.581901 414.506643,621.524901 C445.403643,606.216901 457.920643,595.696901 465.743643,578.463901 C468.772643,571.789901 468.704643,571.717901 459.424643,571.717901 C445.261643,571.717901 438.695643,574.170901 415.224643,588.231901 C399.095643,597.892901 382.491643,609.890901 381.214643,612.805901 C378.405643,619.218901 377.715643,616.080901 377.640643,596.550901 C377.559643,575.529901 376.885643,568.340901 375.104643,569.496901 M501.757643,574.816901 C501.924643,587.904901 518.883643,602.937901 551.214643,618.659901 C578.156643,631.760901 587.648643,640.018901 598.641643,659.916901 C602.179643,666.319901 603.227643,666.781901 604.548643,662.519901 C608.594643,649.468901 609.305643,616.395901 605.856643,601.717901 C602.325643,586.689901 601.725643,584.697901 598.757643,578.151901 C593.353643,566.233901 591.852643,569.842901 591.619643,595.320901 C591.402643,618.992901 591.815643,617.816901 585.944643,611.499901 C580.019643,605.123901 569.471643,597.289901 559.714643,592.017901 C549.027643,586.243901 544.444643,583.567901 542.634643,582.044901 C537.240643,577.506901 522.211643,572.576901 512.008643,571.999901 L501.714643,571.416901 L501.757643,574.816901 M481.214643,609.643901 C460.040643,611.163901 461.685643,620.514901 483.214643,621.010901 C502.459643,621.453901 509.996643,615.114901 495.418643,610.746901 C489.611643,609.007901 489.833643,609.024901 481.214643,609.643901 M450.152643,625.405901 C445.170643,629.772901 437.790643,634.095901 423.214643,641.188901 C406.240643,649.447901 400.158643,653.241901 394.202643,659.282901 C366.435643,687.448901 360.402643,734.750901 379.759643,772.520901 C387.086643,786.816901 391.167643,790.335901 388.685643,780.217901 C376.666643,731.226901 390.098643,693.442901 427.517643,670.980901 C455.144643,654.397901 466.356643,638.359901 457.214643,628.500901 C455.839643,627.018901 454.714643,625.361901 454.714643,624.820901 C454.714643,622.715901 452.965643,622.940901 450.152643,625.405901 M511.761643,628.484901 C504.101643,638.883901 512.453643,653.697901 532.714643,665.652901 C536.839643,668.085901 542.914643,671.675901 546.214643,673.628901 C564.643643,684.537901 579.409643,707.660901 582.533643,730.504901 C584.257643,743.108901 581.572643,777.390901 578.190643,785.967901 C574.863643,794.403901 586.089643,778.577901 590.797643,768.194901 C613.582643,717.943901 596.187643,665.853901 548.714643,642.174901 C533.672643,634.671901 524.622643,629.516901 520.387643,626.038901 C516.525643,622.867901 515.732643,623.092901 511.761643,628.484901 M626.350643,649.967901 C625.989643,653.954901 624.386643,662.565901 622.789643,669.101901 L619.885643,680.984901 L622.742643,687.101901 C624.314643,690.465901 626.803643,696.142901 628.272643,699.717901 C645.729643,742.186901 680.608643,766.633901 728.964643,770.292901 C739.761643,771.108901 739.933643,770.253901 729.964643,765.322901 C695.761643,748.402901 662.031643,714.620901 652.938643,688.175901 C651.796643,684.852901 650.322643,680.802901 649.663643,679.175901 C649.004643,677.548901 648.134643,675.317901 647.730643,674.217901 C644.532643,665.518901 630.066643,642.717901 627.745643,642.717901 C627.340643,642.717901 626.712643,645.980901 626.350643,649.967901 M480.406643,645.967901 C479.661643,647.204901 475.651643,653.617901 471.496643,660.217901 C459.447643,679.355901 458.347643,682.346901 457.149643,699.217901 C455.854643,717.468901 449.404643,733.725901 436.963643,750.099901 C424.031643,767.120901 420.540643,772.262901 417.200643,779.217901 C399.028643,817.055901 406.642643,852.479901 440.559643,887.899901 L451.214643,899.026901 L451.834643,891.122901 L452.455643,883.217901 L446.147643,870.217901 C437.734643,852.878901 436.276643,846.803901 436.308643,829.217901 C436.352643,805.661901 439.834643,796.523901 461.268643,763.717901 C471.500643,748.055901 479.901643,732.274901 482.768643,723.331901 L484.975643,716.445901 L488.304643,728.026901 C493.071643,744.607901 497.558643,753.062901 512.841643,774.253901 C533.575643,803.003901 539.654643,839.607901 529.675643,875.616901 C526.216643,888.098901 528.168643,887.799901 538.363643,874.286901 C568.758643,833.996901 567.896643,799.373901 535.422643,756.217901 C517.521643,732.428901 511.714643,718.192901 511.714643,698.099901 C511.714643,684.869901 510.104643,681.135901 493.330643,655.467901 C485.245643,643.094901 483.089643,641.509901 480.406643,645.967901 M428.445643,693.072901 C410.387643,711.089901 402.943643,729.353901 405.172643,750.169901 C406.012643,758.012901 405.908643,758.016901 412.823643,749.851901 C432.091643,727.100901 436.985643,716.625901 438.398643,695.113901 C439.187643,683.111901 438.558643,682.982901 428.445643,693.072901 M530.436643,694.467901 C531.130643,715.983901 535.200643,725.400901 552.442643,745.383901 C564.503643,759.361901 564.030643,759.464901 563.497643,742.979901 C562.803643,721.508901 557.200643,709.088901 540.936643,692.970901 C530.189643,682.319901 530.045643,682.340901 530.436643,694.467901 M349.096643,742.431901 C348.481643,743.963901 346.987643,748.817901 345.776643,753.217901 C344.565643,757.617901 339.786643,770.738901 335.155643,782.375901 C321.174643,817.513901 319.370643,832.624901 326.747643,852.808901 C332.840643,869.477901 343.307643,871.692901 339.099643,855.422901 C332.807643,831.097901 338.594643,810.447901 355.656643,796.348901 L361.538643,791.487901 L359.004643,784.852901 C354.316643,772.579901 351.846643,761.412901 350.835643,747.931901 C350.280643,740.520901 350.096643,739.939901 349.096643,742.431901 M618.714643,747.386901 C618.714643,755.009901 612.660643,777.703901 608.127643,787.075901 L605.640643,792.217901 L607.927643,794.033901 C628.463643,810.343901 635.277643,832.593901 627.110643,856.671901 C623.957643,865.966901 629.578643,869.528901 635.467643,861.967901 C649.000643,844.591901 647.735643,816.558901 631.658643,777.578901 C628.854643,770.779901 625.181643,761.392901 623.495643,756.717901 C620.578643,748.630901 618.714643,744.991901 618.714643,747.386901 M478.290643,775.217901 C478.634643,778.517901 479.348643,782.026901 479.876643,783.016901 C481.060643,785.233901 481.474643,815.651901 480.451643,825.217901 C479.403643,835.018901 475.573643,858.066901 473.804643,865.217901 C469.441643,882.860901 468.663643,901.261901 471.783643,913.036901 C474.408643,922.948901 475.930643,928.379901 476.736643,930.717901 C477.211643,932.092901 479.019643,937.829901 480.755643,943.467901 C484.656643,956.138901 484.714643,956.134901 487.572643,942.967901 C488.856643,937.054901 490.273643,930.642901 490.721643,928.717901 C491.169643,926.792901 492.214643,922.067901 493.042643,918.217901 C494.401643,911.898901 497.195643,901.016901 501.387643,885.717901 C513.989643,839.715901 509.082643,814.650901 478.939643,771.061901 C477.867643,769.511901 477.763643,770.175901 478.290643,775.217901" id="Shape" fill="#281900"></path>
        </g>
    </g>
</svg>